<svg xmlns="http://www.w3.org/2000/svg" width="1440" height="500" viewBox="0 0 1440 500">
<rect width="100%" height="100%" fill="#f6f7f9"/>
<rect x="24" y="24" width="1392" height="452" rx="8" fill="#ffffff" stroke="#dfe4ec"/>
<defs>
<pattern id="oilHatch" patternUnits="userSpaceOnUse" width="8" height="8" patternTransform="rotate(45)">
<line x1="0" y1="0" x2="0" y2="8" stroke="#087f75" stroke-opacity="0.30" stroke-width="2"/>
</pattern>
</defs>
<style>text{font-family:Inter,ui-sans-serif,system-ui,-apple-system,BlinkMacSystemFont,'Segoe UI',sans-serif;fill:#172033;letter-spacing:0}.title{font-size:32px;font-weight:760}.section{font-size:16px;font-weight:760;text-transform:uppercase}.label{font-size:15px;font-weight:720}.small{font-size:13px;font-weight:560;fill:#5d687a}.axis{font-size:11px;font-weight:560;fill:#5d687a}.note{font-size:13px;font-weight:560;fill:#5d687a}.value{font-size:14px;font-weight:720}.pct{font-size:12px;font-weight:760;fill:#ffffff}</style>
<text x="72" y="70" class="title">How much Hormuz-routed oil can still reach the world market?</text>
<rect x="72" y="106" width="30" height="14" rx="2" fill="#087f75"/>
<text x="112" y="118" class="small">recoverable</text>
<rect x="222" y="106" width="30" height="14" rx="2" fill="#dff3ef"/>
<rect x="222" y="106" width="30" height="14" rx="2" fill="url(#oilHatch)"/>
<text x="262" y="118" class="small">unrecoverable</text>
<line x1="360.0" y1="146" x2="360.0" y2="326" stroke="#e8edf3"/>
<line x1="532.5" y1="146" x2="532.5" y2="326" stroke="#e8edf3"/>
<line x1="705.0" y1="146" x2="705.0" y2="326" stroke="#e8edf3"/>
<line x1="877.5" y1="146" x2="877.5" y2="326" stroke="#e8edf3"/>
<line x1="1050.0" y1="146" x2="1050.0" y2="326" stroke="#e8edf3"/>
<text x="96" y="180" class="label">Saudi Arabia</text>
<rect x="360" y="164" width="690" height="20" rx="3" fill="#dff3ef"/>
<rect x="360" y="164" width="690" height="20" rx="3" fill="url(#oilHatch)"/>
<rect x="360" y="164" width="407.2" height="20" rx="3" fill="#087f75"/>
<text x="759.2" y="179" text-anchor="end" class="pct">59%</text>
<text x="1080" y="180" class="value">~4.0 of 6.8 mb/d</text>
<text x="96" y="232" class="label">UAE</text>
<rect x="360" y="216" width="690" height="20" rx="3" fill="#dff3ef"/>
<rect x="360" y="216" width="690" height="20" rx="3" fill="url(#oilHatch)"/>
<rect x="360" y="216" width="142.5" height="20" rx="3" fill="#087f75"/>
<text x="494.5" y="231" text-anchor="end" class="pct">21%</text>
<text x="1080" y="232" class="value">~0.7 of 3.4 mb/d</text>
<text x="96" y="284" class="label">Iraq</text>
<rect x="360" y="268" width="690" height="20" rx="3" fill="#dff3ef"/>
<rect x="360" y="268" width="690" height="20" rx="3" fill="url(#oilHatch)"/>
<rect x="360" y="268" width="55.9" height="20" rx="3" fill="#087f75"/>
<text x="407.9" y="283" text-anchor="end" class="pct">8%</text>
<text x="1080" y="284" class="value">~0.3 of 3.7 mb/d</text>
<text x="360.0" y="350" text-anchor="middle" class="axis">0%</text>
<text x="532.5" y="350" text-anchor="middle" class="axis">25%</text>
<text x="705.0" y="350" text-anchor="middle" class="axis">50%</text>
<text x="877.5" y="350" text-anchor="middle" class="axis">75%</text>
<text x="1050.0" y="350" text-anchor="middle" class="axis">100%</text>
<text x="705.0" y="374" text-anchor="middle" class="axis">share of normal Hormuz-routed exports</text>
<rect x="72" y="428" width="1296" height="1" fill="#d8dee8"/>
<text x="72" y="461" class="note">Sources: EIA/Vortexa, IEA, Aramco and ADNOC</text>
<metadata>Generated by scripts/build_ccx_supplier_side_cushioning.py from the two EIA/Vortexa baseline Sankey data files; methodology and uncertainty are documented in docs/hormuz-supplier-side-cushioning.md.</metadata>
</svg>
