<svg xmlns="http://www.w3.org/2000/svg" width="1440" height="980" viewBox="0 0 1440 980">
<rect width="100%" height="100%" fill="#f6f7f9"/>
<rect x="24" y="24" width="1392" height="932" rx="8" fill="#ffffff" stroke="#dfe4ec"/>
<style>text{font-family:Inter,ui-sans-serif,system-ui,-apple-system,BlinkMacSystemFont,'Segoe UI',sans-serif;fill:#172033;letter-spacing:0}.title{font-size:30px;font-weight:760}.label{font-size:15px;font-weight:740}.small{font-size:13px;font-weight:560;fill:#5d687a}.total{font-size:14px;font-weight:720;fill:#172033}.note{font-size:13px;font-weight:560;fill:#5d687a}</style>
<text x="72" y="66" class="title">LNG Flow through the Strait of Hormuz, 2024</text>
<path d="M 272.0 108.0 C 511.8 108.0, 468.2 108.0, 708.0 108.0 L 708.0 789.8 C 468.2 789.8, 511.8 746.8, 272.0 746.8 Z" fill="#087f75" opacity="0.34"/>
<path d="M 272.0 770.8 C 511.8 770.8, 468.2 789.8, 708.0 789.8 L 708.0 841.0 C 468.2 841.0, 511.8 818.7, 272.0 818.7 Z" fill="#315c99" opacity="0.34"/>
<path d="M 272.0 842.7 C 511.8 842.7, 468.2 841.0, 708.0 841.0 L 708.0 868.0 C 468.2 868.0, 511.8 868.0, 272.0 868.0 Z" fill="#b56b12" opacity="0.34"/>
<path d="M 730.0 108.0 C 888.4 108.0, 859.6 108.0, 1018.0 108.0 L 1018.0 229.6 C 859.6 229.6, 888.4 288.4, 730.0 288.4 Z" fill="#6d5bd0" opacity="0.34"/>
<path d="M 730.0 288.4 C 888.4 288.4, 859.6 260.6, 1018.0 260.6 L 1018.0 346.2 C 859.6 346.2, 888.4 415.5, 730.0 415.5 Z" fill="#b42318" opacity="0.34"/>
<path d="M 730.0 415.5 C 888.4 415.5, 859.6 377.2, 1018.0 377.2 L 1018.0 415.8 C 859.6 415.8, 888.4 472.9, 730.0 472.9 Z" fill="#2f7d48" opacity="0.34"/>
<path d="M 730.0 472.9 C 888.4 472.9, 859.6 446.8, 1018.0 446.8 L 1018.0 506.6 C 859.6 506.6, 888.4 561.7, 730.0 561.7 Z" fill="#6b7280" opacity="0.34"/>
<path d="M 730.0 561.7 C 888.4 561.7, 859.6 537.6, 1018.0 537.6 L 1018.0 580.1 C 859.6 580.1, 888.4 624.7, 730.0 624.7 Z" fill="#2084a0" opacity="0.34"/>
<path d="M 730.0 624.7 C 888.4 624.7, 859.6 611.1, 1018.0 611.1 L 1018.0 687.7 C 859.6 687.7, 888.4 738.4, 730.0 738.4 Z" fill="#8c5a2b" opacity="0.34"/>
<path d="M 730.0 738.4 C 888.4 738.4, 859.6 718.7, 1018.0 718.7 L 1018.0 750.7 C 859.6 750.7, 888.4 785.9, 730.0 785.9 Z" fill="#087f75" opacity="0.34"/>
<path d="M 730.0 785.9 C 888.4 785.9, 859.6 781.7, 1018.0 781.7 L 1018.0 818.8 C 859.6 818.8, 888.4 841.0, 730.0 841.0 Z" fill="#315c99" opacity="0.34"/>
<path d="M 730.0 841.0 C 888.4 841.0, 859.6 849.8, 1018.0 849.8 L 1018.0 868.0 C 859.6 868.0, 888.4 868.0, 730.0 868.0 Z" fill="#b56b12" opacity="0.34"/>
<rect x="250" y="108.0" width="22" height="638.8" fill="#087f75"/>
<text x="236" y="423.4" class="label" text-anchor="end">Qatar</text>
<text x="236" y="440.4" class="small" text-anchor="end">9.3 Bcf/d</text>
<rect x="250" y="770.8" width="22" height="48.0" fill="#315c99"/>
<text x="236" y="790.7" class="label" text-anchor="end">United Arab Emirates</text>
<text x="236" y="807.7" class="small" text-anchor="end">0.70 Bcf/d</text>
<rect x="250" y="842.7" width="22" height="25.3" fill="#b56b12"/>
<text x="236" y="851.4" class="label" text-anchor="end">Other origins</text>
<text x="236" y="868.4" class="small" text-anchor="end">0.37 Bcf/d</text>
<rect x="708" y="108.0" width="22" height="760.0" fill="#172033"/>
<text x="719.0" y="896.0" class="total" text-anchor="middle">10.3 Bcf/d</text>
<rect x="1018" y="108.0" width="22" height="121.6" fill="#6d5bd0"/>
<text x="1054" y="164.8" class="label">China</text>
<text x="1054" y="181.8" class="small">2.5 Bcf/d</text>
<rect x="1018" y="260.6" width="22" height="85.6" fill="#b42318"/>
<text x="1054" y="299.4" class="label">India</text>
<text x="1054" y="316.4" class="small">1.7 Bcf/d</text>
<rect x="1018" y="377.2" width="22" height="38.6" fill="#2f7d48"/>
<text x="1054" y="392.5" class="label">Taiwan</text>
<text x="1054" y="409.5" class="small">0.78 Bcf/d</text>
<rect x="1018" y="446.8" width="22" height="59.8" fill="#6b7280"/>
<text x="1054" y="472.7" class="label">South Korea</text>
<text x="1054" y="489.7" class="small">1.2 Bcf/d</text>
<rect x="1018" y="537.6" width="22" height="42.5" fill="#2084a0"/>
<text x="1054" y="554.9" class="label">Pakistan</text>
<text x="1054" y="571.9" class="small">0.86 Bcf/d</text>
<rect x="1018" y="611.1" width="22" height="76.6" fill="#8c5a2b"/>
<text x="1054" y="645.4" class="label">Other Asia</text>
<text x="1054" y="662.4" class="small">1.5 Bcf/d</text>
<rect x="1018" y="718.7" width="22" height="31.9" fill="#087f75"/>
<text x="1054" y="730.7" class="label">Italy</text>
<text x="1054" y="747.7" class="small">0.65 Bcf/d</text>
<rect x="1018" y="781.7" width="22" height="37.2" fill="#315c99"/>
<text x="1054" y="796.2" class="label">Other Europe</text>
<text x="1054" y="813.2" class="small">0.75 Bcf/d</text>
<rect x="1018" y="849.8" width="22" height="18.2" fill="#b56b12"/>
<text x="1054" y="854.9" class="label">Other</text>
<text x="1054" y="871.9" class="small">0.37 Bcf/d</text>
<rect x="72" y="916" width="1296" height="1" fill="#d8dee8"/>
<text x="72" y="944" class="note">Source: EIA/Vortexa</text>
<metadata>Figure generated by scripts/build_hormuz_baseline_sankeys.py; commodity=liquefied natural gas; source=https://www.eia.gov/todayinenergy/images/2025.06.24/fig2.xlsx; unit=Bcf/d; year=2024.</metadata>
</svg>
