<svg xmlns="http://www.w3.org/2000/svg" width="1400" height="760" viewBox="0 0 1400 760">
<rect width="100%" height="100%" fill="#ffffff"/>
<style>text{font-family:Arial,Helvetica,sans-serif;fill:#111827}.title{font-size:28px;font-weight:700}.sub{font-size:16px;fill:#4b5563}.label{font-size:14px;font-weight:700}.small{font-size:12px;fill:#4b5563}.note{font-size:12px;fill:#6b7280}</style>
<text x="72" y="42" class="title">2024 Hormuz LNG Flow Baseline</text>
<text x="72" y="68" class="sub">Liquefied natural gas moving through Hormuz, by origin and destination market</text>
<text x="72" y="96" class="small">Exporter totals</text>
<text x="699.0" y="96" class="small" text-anchor="middle">Strait of Hormuz</text>
<text x="1328" y="96" class="small" text-anchor="end">Destination totals</text>
<path d="M 228.0 334.4 C 482.1 334.4, 435.9 347.9, 690.0 347.9" stroke="#0f766e" stroke-width="46.0" fill="none" opacity="0.34" stroke-linecap="round"/>
<path d="M 228.0 575.9 C 482.1 575.9, 435.9 555.3, 690.0 555.3" stroke="#2563eb" stroke-width="3.5" fill="none" opacity="0.34" stroke-linecap="round"/>
<path d="M 228.0 611.5 C 482.1 611.5, 435.9 577.4, 690.0 577.4" stroke="#b45309" stroke-width="2.0" fill="none" opacity="0.34" stroke-linecap="round"/>
<path d="M 708.0 206.0 C 874.1 206.0, 843.9 171.8, 1010.0 171.8" stroke="#7c3aed" stroke-width="12.2" fill="none" opacity="0.34" stroke-linecap="round"/>
<path d="M 708.0 293.0 C 874.1 293.0, 843.9 268.0, 1010.0 268.0" stroke="#dc2626" stroke-width="8.6" fill="none" opacity="0.34" stroke-linecap="round"/>
<path d="M 708.0 345.2 C 874.1 345.2, 843.9 328.9, 1010.0 328.9" stroke="#15803d" stroke-width="3.9" fill="none" opacity="0.34" stroke-linecap="round"/>
<path d="M 708.0 386.6 C 874.1 386.6, 843.9 378.8, 1010.0 378.8" stroke="#6b7280" stroke-width="6.0" fill="none" opacity="0.34" stroke-linecap="round"/>
<path d="M 708.0 429.5 C 874.1 429.5, 843.9 430.3, 1010.0 430.3" stroke="#0891b2" stroke-width="4.3" fill="none" opacity="0.34" stroke-linecap="round"/>
<path d="M 708.0 479.5 C 874.1 479.5, 843.9 489.1, 1010.0 489.1" stroke="#9333ea" stroke-width="7.7" fill="none" opacity="0.34" stroke-linecap="round"/>
<path d="M 708.0 525.1 C 874.1 525.1, 843.9 543.3, 1010.0 543.3" stroke="#0f766e" stroke-width="3.2" fill="none" opacity="0.34" stroke-linecap="round"/>
<path d="M 708.0 554.1 C 874.1 554.1, 843.9 580.7, 1010.0 580.7" stroke="#2563eb" stroke-width="3.7" fill="none" opacity="0.34" stroke-linecap="round"/>
<path d="M 708.0 577.4 C 874.1 577.4, 843.9 612.3, 1010.0 612.3" stroke="#b45309" stroke-width="2.0" fill="none" opacity="0.34" stroke-linecap="round"/>
<rect x="210" y="120.0" width="18" height="428.8" rx="3" fill="#0f766e"/>
<text x="200" y="331.4" class="label" text-anchor="end">Qatar</text>
<text x="200" y="347.4" class="small" text-anchor="end">9.3 Bcf/d</text>
<rect x="210" y="559.8" width="18" height="32.2" rx="3" fill="#2563eb"/>
<text x="200" y="572.9" class="label" text-anchor="end">United Arab Emirates</text>
<text x="200" y="588.9" class="small" text-anchor="end">0.70 Bcf/d</text>
<rect x="210" y="603.0" width="18" height="17.0" rx="3" fill="#b45309"/>
<text x="200" y="608.5" class="label" text-anchor="end">Other origins</text>
<text x="200" y="624.5" class="small" text-anchor="end">0.37 Bcf/d</text>
<rect x="690" y="155.0" width="18" height="430.0" rx="4" fill="#374151"/>
<text x="699.0" y="611.0" class="label" text-anchor="middle">Total 10.3 Bcf/d</text>
<rect x="1010" y="120.0" width="18" height="103.5" rx="3" fill="#7c3aed"/>
<text x="1038" y="168.8" class="label">China</text>
<text x="1038" y="184.8" class="small">2.5 Bcf/d</text>
<rect x="1010" y="231.5" width="18" height="72.9" rx="3" fill="#dc2626"/>
<text x="1038" y="265.0" class="label">India</text>
<text x="1038" y="281.0" class="small">1.7 Bcf/d</text>
<rect x="1010" y="312.4" width="18" height="32.9" rx="3" fill="#15803d"/>
<text x="1038" y="325.9" class="label">Taiwan</text>
<text x="1038" y="341.9" class="small">0.78 Bcf/d</text>
<rect x="1010" y="353.3" width="18" height="50.9" rx="3" fill="#6b7280"/>
<text x="1038" y="375.8" class="label">South Korea</text>
<text x="1038" y="391.8" class="small">1.2 Bcf/d</text>
<rect x="1010" y="412.3" width="18" height="36.2" rx="3" fill="#0891b2"/>
<text x="1038" y="427.3" class="label">Pakistan</text>
<text x="1038" y="443.3" class="small">0.86 Bcf/d</text>
<rect x="1010" y="456.4" width="18" height="65.2" rx="3" fill="#9333ea"/>
<text x="1038" y="486.1" class="label">Other Asia</text>
<text x="1038" y="502.1" class="small">1.5 Bcf/d</text>
<rect x="1010" y="529.7" width="18" height="27.2" rx="3" fill="#0f766e"/>
<text x="1038" y="540.3" class="label">Italy</text>
<text x="1038" y="556.3" class="small">0.65 Bcf/d</text>
<rect x="1010" y="564.9" width="18" height="31.7" rx="3" fill="#2563eb"/>
<text x="1038" y="577.7" class="label">Other Europe</text>
<text x="1038" y="593.7" class="small">0.75 Bcf/d</text>
<rect x="1010" y="604.5" width="18" height="15.5" rx="3" fill="#b45309"/>
<text x="1038" y="609.3" class="label">Other</text>
<text x="1038" y="625.3" class="small">0.37 Bcf/d</text>
<rect x="72" y="654" width="1256" height="1" fill="#e5e7eb"/>
<text x="72" y="682" class="note">Source: EIA Today in Energy figure data based on Vortexa; 2024 annual average; calculations by project. Caveats: see figures/README.md.</text>
<text x="72" y="704" class="note">Origin and destination totals are separate aggregates, not country-pair cargo matching. Rounding gap: 0.000 Bcf/d.</text>
<metadata>Figure generated by scripts/build_hormuz_baseline_sankeys.py; commodity=liquefied natural gas; source=https://www.eia.gov/todayinenergy/images/2025.06.24/fig2.xlsx; unit=Bcf/d; year=2024.</metadata>
</svg>
