<svg xmlns="http://www.w3.org/2000/svg" width="1440" height="980" viewBox="0 0 1440 980">
<rect width="100%" height="100%" fill="#f6f7f9"/>
<rect x="24" y="24" width="1392" height="932" rx="8" fill="#ffffff" stroke="#dfe4ec"/>
<style>text{font-family:Inter,ui-sans-serif,system-ui,-apple-system,BlinkMacSystemFont,'Segoe UI',sans-serif;fill:#172033;letter-spacing:0}.title{font-size:30px;font-weight:760}.label{font-size:15px;font-weight:740}.small{font-size:13px;font-weight:560;fill:#5d687a}.total{font-size:14px;font-weight:720;fill:#172033}.note{font-size:13px;font-weight:560;fill:#5d687a}</style>
<text x="72" y="66" class="title">Oil Flow through the Strait of Hormuz, 2024</text>
<path d="M 272.0 108.0 C 511.8 108.0, 468.2 108.0, 708.0 108.0 L 708.0 398.7 C 468.2 398.7, 511.8 343.7, 272.0 343.7 Z" fill="#087f75" opacity="0.34"/>
<path d="M 272.0 367.7 C 511.8 367.7, 468.2 398.7, 708.0 398.7 L 708.0 499.1 C 468.2 499.1, 511.8 449.0, 272.0 449.0 Z" fill="#315c99" opacity="0.34"/>
<path d="M 272.0 473.0 C 511.8 473.0, 468.2 499.1, 708.0 499.1 L 708.0 670.2 C 468.2 670.2, 511.8 611.7, 272.0 611.7 Z" fill="#b56b12" opacity="0.34"/>
<path d="M 272.0 635.7 C 511.8 635.7, 468.2 670.2, 708.0 670.2 L 708.0 740.5 C 468.2 740.5, 511.8 692.7, 272.0 692.7 Z" fill="#6d5bd0" opacity="0.34"/>
<path d="M 272.0 716.7 C 511.8 716.7, 468.2 740.5, 708.0 740.5 L 708.0 775.0 C 468.2 775.0, 511.8 744.6, 272.0 744.6 Z" fill="#b42318" opacity="0.34"/>
<path d="M 272.0 768.6 C 511.8 768.6, 468.2 775.0, 708.0 775.0 L 708.0 849.3 C 468.2 849.3, 511.8 828.8, 272.0 828.8 Z" fill="#2f7d48" opacity="0.34"/>
<path d="M 272.0 852.8 C 511.8 852.8, 468.2 849.3, 708.0 849.3 L 708.0 868.0 C 468.2 868.0, 511.8 868.0, 272.0 868.0 Z" fill="#6b7280" opacity="0.34"/>
<path d="M 730.0 108.0 C 888.4 108.0, 859.6 108.0, 1018.0 108.0 L 1018.0 279.1 C 859.6 279.1, 888.4 362.0, 730.0 362.0 Z" fill="#6d5bd0" opacity="0.34"/>
<path d="M 730.0 362.0 C 888.4 362.0, 859.6 310.1, 1018.0 310.1 L 1018.0 377.5 C 859.6 377.5, 888.4 462.0, 730.0 462.0 Z" fill="#b42318" opacity="0.34"/>
<path d="M 730.0 462.0 C 888.4 462.0, 859.6 408.5, 1018.0 408.5 L 1018.0 470.2 C 859.6 470.2, 888.4 553.7, 730.0 553.7 Z" fill="#2f7d48" opacity="0.34"/>
<path d="M 730.0 553.7 C 888.4 553.7, 859.6 501.2, 1018.0 501.2 L 1018.0 555.4 C 859.6 555.4, 888.4 634.1, 730.0 634.1 Z" fill="#6b7280" opacity="0.34"/>
<path d="M 730.0 634.1 C 888.4 634.1, 859.6 586.4, 1018.0 586.4 L 1018.0 660.5 C 859.6 660.5, 888.4 744.1, 730.0 744.1 Z" fill="#2084a0" opacity="0.34"/>
<path d="M 730.0 744.1 C 888.4 744.1, 859.6 691.5, 1018.0 691.5 L 1018.0 717.3 C 859.6 717.3, 888.4 782.3, 730.0 782.3 Z" fill="#8c5a2b" opacity="0.34"/>
<path d="M 730.0 782.3 C 888.4 782.3, 859.6 748.3, 1018.0 748.3 L 1018.0 765.6 C 859.6 765.6, 888.4 808.0, 730.0 808.0 Z" fill="#087f75" opacity="0.34"/>
<path d="M 730.0 808.0 C 888.4 808.0, 859.6 796.6, 1018.0 796.6 L 1018.0 804.8 C 859.6 804.8, 888.4 820.1, 730.0 820.1 Z" fill="#315c99" opacity="0.34"/>
<path d="M 730.0 820.1 C 888.4 820.1, 859.6 835.8, 1018.0 835.8 L 1018.0 868.0 C 859.6 868.0, 888.4 868.0, 730.0 868.0 Z" fill="#b56b12" opacity="0.34"/>
<rect x="250" y="108.0" width="22" height="235.7" fill="#087f75"/>
<text x="236" y="221.8" class="label" text-anchor="end">Saudi Arabia</text>
<text x="236" y="238.8" class="small" text-anchor="end">5.5 mb/d</text>
<rect x="250" y="367.7" width="22" height="81.3" fill="#315c99"/>
<text x="236" y="404.3" class="label" text-anchor="end">United Arab Emirates</text>
<text x="236" y="421.3" class="small" text-anchor="end">1.9 mb/d</text>
<rect x="250" y="473.0" width="22" height="138.7" fill="#b56b12"/>
<text x="236" y="538.3" class="label" text-anchor="end">Iraq</text>
<text x="236" y="555.3" class="small" text-anchor="end">3.2 mb/d</text>
<rect x="250" y="635.7" width="22" height="57.0" fill="#6d5bd0"/>
<text x="236" y="660.2" class="label" text-anchor="end">Kuwait</text>
<text x="236" y="677.2" class="small" text-anchor="end">1.3 mb/d</text>
<rect x="250" y="716.7" width="22" height="27.9" fill="#b42318"/>
<text x="236" y="726.6" class="label" text-anchor="end">Qatar</text>
<text x="236" y="743.6" class="small" text-anchor="end">0.65 mb/d</text>
<rect x="250" y="768.6" width="22" height="60.2" fill="#2f7d48"/>
<text x="236" y="794.7" class="label" text-anchor="end">Iran</text>
<text x="236" y="811.7" class="small" text-anchor="end">1.4 mb/d</text>
<rect x="250" y="852.8" width="22" height="15.2" fill="#6b7280"/>
<text x="236" y="856.4" class="label" text-anchor="end">Other</text>
<text x="236" y="873.4" class="small" text-anchor="end">0.35 mb/d</text>
<rect x="708" y="108.0" width="22" height="760.0" fill="#172033"/>
<text x="719.0" y="896.0" class="total" text-anchor="middle">14.3 mb/d</text>
<rect x="1018" y="108.0" width="22" height="171.1" fill="#6d5bd0"/>
<text x="1054" y="189.5" class="label">China</text>
<text x="1054" y="206.5" class="small">4.8 mb/d</text>
<rect x="1018" y="310.1" width="22" height="67.4" fill="#b42318"/>
<text x="1054" y="339.8" class="label">India</text>
<text x="1054" y="356.8" class="small">1.9 mb/d</text>
<rect x="1018" y="408.5" width="22" height="61.7" fill="#2f7d48"/>
<text x="1054" y="435.4" class="label">South Korea</text>
<text x="1054" y="452.4" class="small">1.7 mb/d</text>
<rect x="1018" y="501.2" width="22" height="54.2" fill="#6b7280"/>
<text x="1054" y="524.3" class="label">Japan</text>
<text x="1054" y="541.3" class="small">1.5 mb/d</text>
<rect x="1018" y="586.4" width="22" height="74.1" fill="#2084a0"/>
<text x="1054" y="619.5" class="label">Other Asia</text>
<text x="1054" y="636.5" class="small">2.1 mb/d</text>
<rect x="1018" y="691.5" width="22" height="25.8" fill="#8c5a2b"/>
<text x="1054" y="700.4" class="label">Europe</text>
<text x="1054" y="717.4" class="small">0.72 mb/d</text>
<rect x="1018" y="748.3" width="22" height="17.3" fill="#087f75"/>
<text x="1054" y="752.9" class="label">United States</text>
<text x="1054" y="769.9" class="small">0.48 mb/d</text>
<rect x="1018" y="796.6" width="22" height="8.2" fill="#315c99"/>
<text x="1054" y="796.7" class="label">Saudi Arabia</text>
<text x="1054" y="813.7" class="small">0.23 mb/d</text>
<rect x="1018" y="835.8" width="22" height="32.2" fill="#b56b12"/>
<text x="1054" y="847.9" class="label">Other</text>
<text x="1054" y="864.9" class="small">0.90 mb/d</text>
<rect x="72" y="916" width="1296" height="1" fill="#d8dee8"/>
<text x="72" y="944" class="note">Source: EIA/Vortexa</text>
<metadata>Figure generated by scripts/build_hormuz_baseline_sankeys.py; commodity=crude oil and condensate; source=https://www.eia.gov/todayinenergy/images/2025.06.16/fig3.xlsx; unit=mb/d; year=2024.</metadata>
</svg>
