<svg xmlns="http://www.w3.org/2000/svg" width="1440" height="820" viewBox="0 0 1440 820">
<rect width="100%" height="100%" fill="#f6f7f9"/>
<rect x="24" y="24" width="1392" height="772" rx="8" fill="#ffffff" stroke="#dfe4ec"/>
<defs>
<pattern id="oilHatch" patternUnits="userSpaceOnUse" width="8" height="8" patternTransform="rotate(45)">
<line x1="0" y1="0" x2="0" y2="8" stroke="#087f75" stroke-opacity="0.30" stroke-width="2"/>
</pattern>
<pattern id="lngHatch" patternUnits="userSpaceOnUse" width="8" height="8" patternTransform="rotate(45)">
<line x1="0" y1="0" x2="0" y2="8" stroke="#315c99" stroke-opacity="0.30" stroke-width="2"/>
</pattern>
</defs>
<style>text{font-family:Inter,ui-sans-serif,system-ui,-apple-system,BlinkMacSystemFont,'Segoe UI',sans-serif;fill:#172033;letter-spacing:0}.title{font-size:32px;font-weight:760}.section{font-size:16px;font-weight:760;text-transform:uppercase}.label{font-size:15px;font-weight:720}.small{font-size:13px;font-weight:560;fill:#5d687a}.axis{font-size:11px;font-weight:560;fill:#5d687a}.note{font-size:13px;font-weight:560;fill:#5d687a}.value{font-size:14px;font-weight:720}</style>
<text x="72" y="70" class="title">How Gulf suppliers cushion a Hormuz export shock</text>
<rect x="72" y="106" width="30" height="14" rx="2" fill="#087f75"/>
<text x="112" y="118" class="small">recoverable</text>
<rect x="222" y="106" width="30" height="14" rx="2" fill="#dff3ef"/>
<rect x="222" y="106" width="30" height="14" rx="2" fill="url(#oilHatch)"/>
<text x="262" y="118" class="small">unrecoverable</text>
<line x1="360.0" y1="154" x2="360.0" y2="672" stroke="#e8edf3"/>
<line x1="532.5" y1="154" x2="532.5" y2="672" stroke="#e8edf3"/>
<line x1="705.0" y1="154" x2="705.0" y2="672" stroke="#e8edf3"/>
<line x1="877.5" y1="154" x2="877.5" y2="672" stroke="#e8edf3"/>
<line x1="1050.0" y1="154" x2="1050.0" y2="672" stroke="#e8edf3"/>
<text x="72" y="190" class="section" fill="#087f75">OIL</text>
<text x="96" y="232" class="label">Saudi Arabia</text>
<rect x="360" y="216" width="690" height="20" rx="3" fill="#dff3ef"/>
<rect x="360" y="216" width="690" height="20" rx="3" fill="url(#oilHatch)"/>
<rect x="360" y="216" width="407.2" height="20" rx="3" fill="#087f75"/>
<text x="1080" y="232" class="value">~4.0 of 6.8 mb/d</text>
<text x="96" y="276" class="label">UAE</text>
<rect x="360" y="260" width="690" height="20" rx="3" fill="#dff3ef"/>
<rect x="360" y="260" width="690" height="20" rx="3" fill="url(#oilHatch)"/>
<rect x="360" y="260" width="142.5" height="20" rx="3" fill="#087f75"/>
<text x="1080" y="276" class="value">~0.70 of 3.4 mb/d</text>
<text x="96" y="320" class="label">Iraq</text>
<rect x="360" y="304" width="690" height="20" rx="3" fill="#dff3ef"/>
<rect x="360" y="304" width="690" height="20" rx="3" fill="url(#oilHatch)"/>
<rect x="360" y="304" width="55.9" height="20" rx="3" fill="#087f75"/>
<text x="1080" y="320" class="value">~0.30 of 3.7 mb/d</text>
<text x="96" y="364" class="label">Kuwait</text>
<rect x="360" y="348" width="690" height="20" rx="3" fill="#dff3ef"/>
<rect x="360" y="348" width="690" height="20" rx="3" fill="url(#oilHatch)"/>
<text x="1080" y="364" class="value">~0 of 2.2 mb/d</text>
<text x="96" y="408" class="label">Qatar</text>
<rect x="360" y="392" width="690" height="20" rx="3" fill="#dff3ef"/>
<rect x="360" y="392" width="690" height="20" rx="3" fill="url(#oilHatch)"/>
<text x="1080" y="408" class="value">~0 of 1.5 mb/d</text>
<text x="96" y="452" class="label">Iran</text>
<rect x="360" y="436" width="690" height="20" rx="3" fill="#dff3ef"/>
<rect x="360" y="436" width="690" height="20" rx="3" fill="url(#oilHatch)"/>
<rect x="360" y="436" width="14.4" height="20" rx="3" fill="#087f75"/>
<text x="1080" y="452" class="value">~0.05 of 2.4 mb/d</text>
<text x="96" y="496" class="label">Other</text>
<rect x="360" y="480" width="690" height="20" rx="3" fill="#dff3ef"/>
<rect x="360" y="480" width="690" height="20" rx="3" fill="url(#oilHatch)"/>
<text x="1080" y="496" class="value">~0 of 0.35 mb/d</text>
<text x="72" y="540" class="section" fill="#315c99">LNG</text>
<text x="96" y="582" class="label">Qatar</text>
<rect x="360" y="566" width="690" height="20" rx="3" fill="#e3ebf7"/>
<rect x="360" y="566" width="690" height="20" rx="3" fill="url(#lngHatch)"/>
<text x="1080" y="582" class="value">~0 of 9.3 Bcf/d</text>
<text x="96" y="626" class="label">UAE</text>
<rect x="360" y="610" width="690" height="20" rx="3" fill="#e3ebf7"/>
<rect x="360" y="610" width="690" height="20" rx="3" fill="url(#lngHatch)"/>
<text x="1080" y="626" class="value">~0 of 0.70 Bcf/d</text>
<text x="360.0" y="694" text-anchor="middle" class="axis">0%</text>
<text x="532.5" y="694" text-anchor="middle" class="axis">25%</text>
<text x="705.0" y="694" text-anchor="middle" class="axis">50%</text>
<text x="877.5" y="694" text-anchor="middle" class="axis">75%</text>
<text x="1050.0" y="694" text-anchor="middle" class="axis">100%</text>
<text x="705.0" y="718" text-anchor="middle" class="axis">share of normal Hormuz-routed exports</text>
<rect x="72" y="756" width="1296" height="1" fill="#d8dee8"/>
<text x="72" y="785" class="note">Sources: EIA/Vortexa, IEA, Aramco and ADNOC</text>
<metadata>Generated by scripts/build_ccx_supplier_side_cushioning.py from the two EIA/Vortexa baseline Sankey data files; methodology and uncertainty are documented in docs/hormuz-supplier-side-cushioning.md.</metadata>
</svg>
