<svg xmlns="http://www.w3.org/2000/svg" width="1200" height="760" viewBox="0 0 1200 760">
  <rect width="1200" height="760" fill="#ffffff"/>
  <text x="72" y="38" font-family="Arial, sans-serif" font-size="28" font-weight="700" fill="#111827">Daily Strait of Hormuz Transits</text>
  <text x="72" y="62" font-family="Arial, sans-serif" font-size="16" fill="#4b5563">Public IMF PortWatch chokepoint calls, 7-day average; latest observation 2026-06-28</text>
  <g font-family="Arial, sans-serif">
    <line x1="72" y1="572.0" x2="1072" y2="572.0" stroke="#eef2f7" stroke-width="1"/><text x="58" y="577.0" font-size="15" text-anchor="end" fill="#374151">0</text><line x1="72" y1="470.2" x2="1072" y2="470.2" stroke="#eef2f7" stroke-width="1"/><text x="58" y="475.2" font-size="15" text-anchor="end" fill="#374151">30</text><line x1="72" y1="368.4" x2="1072" y2="368.4" stroke="#eef2f7" stroke-width="1"/><text x="58" y="373.4" font-size="15" text-anchor="end" fill="#374151">60</text><line x1="72" y1="266.6" x2="1072" y2="266.6" stroke="#eef2f7" stroke-width="1"/><text x="58" y="271.6" font-size="15" text-anchor="end" fill="#374151">90</text><line x1="72" y1="164.8" x2="1072" y2="164.8" stroke="#eef2f7" stroke-width="1"/><text x="58" y="169.8" font-size="15" text-anchor="end" fill="#374151">120</text>
    <line x1="72.0" y1="72" x2="72.0" y2="572" stroke="#e5e7eb" stroke-width="1"/><text x="72.0" y="604" font-size="16" text-anchor="middle" fill="#374151">2019</text><line x1="205.5" y1="72" x2="205.5" y2="572" stroke="#e5e7eb" stroke-width="1"/><text x="205.5" y="604" font-size="16" text-anchor="middle" fill="#374151">2020</text><line x1="339.3" y1="72" x2="339.3" y2="572" stroke="#e5e7eb" stroke-width="1"/><text x="339.3" y="604" font-size="16" text-anchor="middle" fill="#374151">2021</text><line x1="472.7" y1="72" x2="472.7" y2="572" stroke="#e5e7eb" stroke-width="1"/><text x="472.7" y="604" font-size="16" text-anchor="middle" fill="#374151">2022</text><line x1="606.2" y1="72" x2="606.2" y2="572" stroke="#e5e7eb" stroke-width="1"/><text x="606.2" y="604" font-size="16" text-anchor="middle" fill="#374151">2023</text><line x1="739.6" y1="72" x2="739.6" y2="572" stroke="#e5e7eb" stroke-width="1"/><text x="739.6" y="604" font-size="16" text-anchor="middle" fill="#374151">2024</text><line x1="873.5" y1="72" x2="873.5" y2="572" stroke="#e5e7eb" stroke-width="1"/><text x="873.5" y="604" font-size="16" text-anchor="middle" fill="#374151">2025</text><line x1="1006.9" y1="72" x2="1006.9" y2="572" stroke="#e5e7eb" stroke-width="1"/><text x="1006.9" y="604" font-size="16" text-anchor="middle" fill="#374151">2026</text>
    <line x1="72" y1="72" x2="72" y2="572" stroke="#111827" stroke-width="1.5"/>
    <line x1="72" y1="572" x2="1072" y2="572" stroke="#111827" stroke-width="1.5"/>
    <line x1="72" y1="264.8" x2="1072" y2="264.8" stroke="#6b7280" stroke-width="2" stroke-dasharray="7 7"/>
    <text x="1068" y="256.8" font-size="15" text-anchor="end" fill="#4b5563">2019-2024 average: 90.5/day</text>
    <line x1="1028.1" y1="72" x2="1028.1" y2="572" stroke="#991b1b" stroke-width="2" stroke-dasharray="5 6"/>
    <text x="1036.1" y="94" font-size="15" fill="#991b1b">2026-02-28 shock onset</text>
    <polyline points="72.0,348.0 72.4,341.2 72.7,328.8 73.1,329.4 73.5,328.4 73.8,332.2 74.2,326.2 74.6,324.8 74.9,337.4 75.3,342.2 75.7,342.2 76.0,345.6 76.4,352.9 76.8,361.1 77.1,364.5 77.5,350.4 77.9,352.4 78.2,359.2 78.6,358.7 78.9,343.2 79.3,342.7 79.7,341.7 80.0,353.4 80.4,360.1 80.8,361.6 81.1,359.2 81.5,366.0 81.9,367.4 82.2,369.4 82.6,358.7 83.0,357.7 83.3,355.8 83.7,362.6 84.1,364.0 84.4,365.0 84.8,362.1 85.2,368.4 85.5,360.1 85.9,354.8 86.3,349.0 86.6,346.1 87.0,352.4 87.4,354.3 87.7,353.8 88.1,351.9 88.5,350.0 88.8,348.0 89.2,358.7 89.6,342.7 89.9,341.2 90.3,333.0 90.6,328.1 91.0,321.9 91.4,316.5 91.7,302.5 92.1,315.6 92.5,318.5 92.8,332.1 93.2,341.7 93.6,345.1 93.9,351.9 94.3,354.3 94.7,353.8 95.0,344.6 95.4,324.3 95.8,329.6 96.1,330.6 96.5,321.4 96.9,329.6 97.2,334.0 97.6,344.2 98.0,350.0 98.3,344.6 98.7,351.4 99.1,366.0 99.4,354.8 99.8,356.3 100.2,352.4 100.5,355.3 100.9,356.8 101.3,357.7 101.6,353.8 102.0,361.1 102.3,356.8 102.7,357.7 103.1,360.1 103.4,366.0 103.8,356.8 104.2,350.4 104.5,352.4 104.9,340.3 105.3,342.7 105.6,343.7 106.0,349.5 106.4,350.4 106.7,350.0 107.1,345.1 107.5,343.2 107.8,331.1 108.2,331.1 108.6,316.0 108.9,324.8 109.3,329.1 109.7,340.3 110.0,336.9 110.4,337.9 110.8,326.2 111.1,326.2 111.5,306.8 111.9,295.7 112.2,274.4 112.6,271.0 113.0,282.1 113.3,290.3 113.7,287.0 114.0,299.1 114.4,294.2 114.8,294.2 115.1,290.8 115.5,285.0 115.9,289.4 116.2,275.3 116.6,263.7 117.0,278.2 117.3,292.3 117.7,304.4 118.1,299.1 118.4,279.7 118.8,295.2 119.2,307.8 119.5,307.3 119.9,301.0 120.3,298.1 120.6,311.7 121.0,321.9 121.4,321.4 121.7,307.8 122.1,309.7 122.5,308.3 122.8,317.5 123.2,318.0 123.6,324.8 123.9,321.4 124.3,327.7 124.7,321.9 125.0,321.9 125.4,304.4 125.7,298.6 126.1,284.0 126.5,273.4 126.8,273.4 127.2,294.2 127.6,287.4 127.9,286.0 128.3,266.1 128.7,285.5 129.0,295.2 129.4,293.3 129.8,274.4 130.1,284.5 130.5,293.7 130.9,300.1 131.2,289.4 131.6,299.5 132.0,312.6 132.3,318.0 132.7,297.6 133.1,292.8 133.4,295.7 133.8,298.6 134.2,283.6 134.5,269.0 134.9,258.8 135.3,283.6 135.6,272.9 136.0,263.7 136.4,248.6 136.7,242.4 137.1,245.2 137.4,254.0 137.8,231.2 138.2,232.2 138.5,239.0 138.9,233.1 139.3,224.4 139.6,223.5 140.0,199.7 140.4,204.5 140.7,213.8 141.1,221.5 141.5,246.2 141.8,260.3 142.2,252.0 142.6,276.8 142.9,281.6 143.3,280.6 143.7,271.9 144.0,262.7 144.4,268.1 144.8,282.6 145.1,284.0 145.5,278.2 145.9,277.8 146.2,283.6 146.6,286.5 147.0,291.3 147.3,288.4 147.7,287.0 148.1,295.7 148.4,298.1 148.8,309.2 149.1,305.4 149.5,291.8 149.9,288.4 150.2,290.3 150.6,297.6 151.0,304.4 151.3,282.1 151.7,269.0 152.1,267.1 152.4,274.8 152.8,258.3 153.2,242.8 153.5,238.0 153.9,245.2 154.3,268.1 154.6,275.8 155.0,273.9 155.4,275.3 155.7,286.0 156.1,292.8 156.5,297.6 156.8,284.5 157.2,288.4 157.6,284.0 157.9,286.5 158.3,277.8 158.7,267.1 159.0,262.7 159.4,271.9 159.8,260.3 160.1,255.9 160.5,265.6 160.8,268.1 161.2,280.6 161.6,283.1 161.9,273.4 162.3,277.8 162.7,278.2 163.0,265.1 163.4,266.6 163.8,259.8 164.1,255.9 164.5,259.3 164.9,275.8 165.2,290.3 165.6,284.5 166.0,289.4 166.3,280.6 166.7,284.0 167.1,301.5 167.4,297.1 167.8,285.5 168.2,303.4 168.5,302.9 168.9,320.4 169.3,327.2 169.6,318.0 170.0,324.8 170.4,337.9 170.7,326.2 171.1,310.7 171.5,302.5 171.8,298.1 172.2,292.3 172.5,295.2 172.9,304.9 173.3,311.7 173.6,334.0 174.0,347.6 174.4,354.8 174.7,359.7 175.1,349.0 175.5,335.9 175.8,340.3 176.2,336.4 176.6,323.8 176.9,313.1 177.3,297.1 177.7,279.7 178.0,278.2 178.4,292.3 178.8,280.6 179.1,289.4 179.5,292.8 179.9,302.0 180.2,324.8 180.6,321.9 181.0,306.8 181.3,316.5 181.7,324.3 182.1,326.7 182.4,321.4 182.8,319.0 183.2,320.9 183.5,330.6 183.9,343.2 184.2,331.5 184.6,338.8 185.0,354.3 185.3,358.2 185.7,360.6 186.1,354.3 186.4,351.9 186.8,362.6 187.2,363.5 187.5,367.9 187.9,374.7 188.3,385.8 188.6,392.1 189.0,402.8 189.4,405.2 189.7,406.7 190.1,408.6 190.5,407.2 190.8,403.8 191.2,409.6 191.6,406.7 191.9,404.3 192.3,402.3 192.7,395.1 193.0,388.3 193.4,384.9 193.8,383.0 194.1,380.5 194.5,373.2 194.9,368.4 195.2,376.6 195.6,381.5 195.9,391.7 196.3,394.6 196.7,387.3 197.0,397.5 197.4,403.8 197.8,409.6 198.1,404.7 198.5,392.1 198.9,378.1 199.2,367.9 199.6,365.5 200.0,360.6 200.3,345.1 200.7,341.7 201.1,340.3 201.4,342.2 201.8,364.0 202.2,353.4 202.5,356.8 202.9,356.3 203.3,357.7 203.6,370.3 204.0,389.7 204.4,378.1 204.7,379.6 205.1,372.8 205.5,366.0 205.8,362.1 206.2,346.6 206.6,323.8 206.9,315.6 207.3,317.0 207.6,314.6 208.0,332.5 208.4,335.4 208.7,336.9 209.1,334.5 209.5,340.3 209.8,341.2 210.2,345.1 210.6,337.9 210.9,354.8 211.3,351.4 211.7,355.8 212.0,353.8 212.4,351.9 212.8,353.4 213.1,352.4 213.5,337.4 213.9,334.5 214.2,328.1 214.6,321.9 215.0,325.3 215.3,328.7 215.7,328.1 216.1,322.8 216.4,325.3 216.8,331.5 217.2,342.7 217.5,336.4 217.9,334.5 218.3,332.5 218.6,332.5 219.0,332.5 219.3,334.0 219.7,342.2 220.1,351.9 220.4,349.0 220.8,352.4 221.2,368.9 221.5,382.0 221.9,386.8 222.3,373.2 222.6,351.0 223.0,349.0 223.4,353.8 223.7,326.7 224.1,314.6 224.5,312.2 224.8,312.2 225.2,326.7 225.6,320.4 225.9,312.6 226.3,339.3 226.7,340.8 227.0,331.5 227.4,336.4 227.8,328.1 228.1,343.7 228.5,358.7 228.9,350.4 229.2,352.9 229.6,357.2 230.0,344.2 230.3,365.5 230.7,364.0 231.0,353.8 231.4,349.0 231.8,359.7 232.1,369.9 232.5,385.4 232.9,388.3 233.2,384.9 233.6,382.4 234.0,386.8 234.3,375.7 234.7,370.8 235.1,366.9 235.4,356.3 235.8,355.3 236.2,365.0 236.5,356.8 236.9,367.4 237.3,360.6 237.6,376.6 238.0,380.5 238.4,378.1 238.7,369.4 239.1,362.6 239.5,340.8 239.8,341.7 240.2,307.8 240.6,287.0 240.9,279.2 241.3,264.7 241.7,275.8 242.0,286.5 242.4,291.8 242.7,311.7 243.1,322.8 243.5,346.6 243.8,359.7 244.2,354.3 244.6,352.9 244.9,347.6 245.3,336.9 245.7,341.2 246.0,321.4 246.4,317.5 246.8,315.1 247.1,308.3 247.5,301.5 247.9,299.1 248.2,295.2 248.6,296.7 249.0,300.5 249.3,312.2 249.7,328.7 250.1,335.9 250.4,341.2 250.8,325.3 251.2,321.9 251.5,315.1 251.9,299.1 252.3,277.2 252.6,261.7 253.0,252.5 253.4,250.6 253.7,243.3 254.1,236.1 254.4,228.3 254.8,231.7 255.2,234.6 255.5,234.6 255.9,253.5 256.3,251.6 256.6,245.8 257.0,252.0 257.4,269.0 257.7,284.0 258.1,285.0 258.5,275.8 258.8,293.3 259.2,313.6 259.6,314.6 259.9,296.1 260.3,291.8 260.7,298.1 261.0,297.6 261.4,279.2 261.8,265.1 262.1,269.0 262.5,269.0 262.9,266.1 263.2,261.3 263.6,259.8 264.0,262.2 264.3,255.9 264.7,247.7 265.1,246.7 265.4,240.4 265.8,229.3 266.1,224.4 266.5,222.5 266.9,220.5 267.2,225.4 267.6,217.2 268.0,213.3 268.3,217.2 268.7,216.2 269.1,214.2 269.4,221.0 269.8,223.0 270.2,236.1 270.5,245.8 270.9,253.5 271.3,246.2 271.6,248.2 272.0,266.6 272.4,267.1 272.7,261.3 273.1,255.4 273.5,248.2 273.8,262.2 274.2,256.9 274.6,242.4 274.9,236.5 275.3,242.8 275.7,238.0 276.0,241.4 276.4,239.0 276.8,244.8 277.1,245.8 277.5,250.6 277.9,253.5 278.2,253.0 278.6,259.8 278.9,255.4 279.3,263.2 279.7,266.1 280.0,272.4 280.4,258.8 280.8,261.7 281.1,246.2 281.5,252.5 281.9,246.2 282.2,237.5 282.6,224.4 283.0,238.5 283.3,241.9 283.7,249.6 284.1,242.8 284.4,246.7 284.8,247.7 285.2,258.3 285.5,248.6 285.9,247.7 286.3,260.8 286.6,265.6 287.0,267.1 287.4,267.6 287.7,259.3 288.1,253.5 288.5,250.6 288.8,234.6 289.2,233.1 289.6,222.5 289.9,223.5 290.3,225.4 290.6,236.1 291.0,245.2 291.4,246.7 291.7,254.5 292.1,268.1 292.5,272.4 292.8,272.9 293.2,275.3 293.6,270.0 293.9,268.5 294.3,262.2 294.7,253.0 295.0,244.8 295.4,242.8 295.8,238.0 296.1,238.5 296.5,247.2 296.9,234.6 297.2,234.1 297.6,233.1 298.0,233.1 298.3,227.3 298.7,218.1 299.1,210.4 299.4,231.2 299.8,245.8 300.2,249.2 300.5,242.4 300.9,246.7 301.3,249.2 301.6,245.8 302.0,222.5 302.3,212.8 302.7,214.7 303.1,215.2 303.4,219.1 303.8,223.0 304.2,214.7 304.5,224.9 304.9,224.9 305.3,221.0 305.6,234.6 306.0,225.4 306.4,213.8 306.7,227.3 307.1,239.9 307.5,226.9 307.8,221.0 308.2,203.1 308.6,218.6 308.9,226.9 309.3,242.4 309.7,238.0 310.0,259.8 310.4,279.2 310.8,286.5 311.1,280.2 311.5,287.9 311.9,273.4 312.2,280.6 312.6,279.2 313.0,279.7 313.3,301.5 313.7,291.8 314.0,297.1 314.4,301.5 314.8,299.1 315.1,287.9 315.5,287.9 315.9,274.8 316.2,280.6 316.6,272.9 317.0,274.4 317.3,264.2 317.7,266.6 318.1,253.5 318.4,245.8 318.8,267.6 319.2,277.8 319.5,294.7 319.9,306.3 320.3,306.8 320.6,302.0 321.0,312.2 321.4,305.9 321.7,311.2 322.1,305.9 322.5,315.6 322.8,327.2 323.2,354.8 323.6,370.8 323.9,373.7 324.3,383.0 324.7,392.6 325.0,400.4 325.4,410.1 325.7,400.4 326.1,394.6 326.5,388.3 326.8,374.7 327.2,363.5 327.6,350.0 327.9,338.3 328.3,327.2 328.7,319.4 329.0,314.1 329.4,310.7 329.8,313.1 330.1,321.9 330.5,330.6 330.9,349.5 331.2,355.8 331.6,363.5 332.0,383.0 332.3,384.9 332.7,375.7 333.1,373.7 333.4,380.5 333.8,398.0 334.2,402.8 334.5,392.1 334.9,396.0 335.3,403.8 335.6,403.8 336.0,394.1 336.4,377.6 336.7,379.1 337.1,370.8 337.4,371.3 337.8,361.6 338.2,357.2 338.5,358.2 338.9,359.7 339.3,351.9 339.6,358.2 340.0,341.7 340.4,348.0 340.7,344.2 341.1,336.4 341.5,326.2 341.8,330.6 342.2,330.1 342.6,341.7 342.9,334.5 343.3,340.3 343.7,340.8 344.0,343.7 344.4,332.5 344.8,325.3 345.1,314.1 345.5,303.4 345.9,277.2 346.2,263.7 346.6,255.4 347.0,266.1 347.3,275.8 347.7,288.9 348.1,302.5 348.4,323.8 348.8,327.2 349.1,328.1 349.5,310.2 349.9,303.4 350.2,293.3 350.6,289.4 351.0,290.8 351.3,299.5 351.7,295.7 352.1,304.4 352.4,302.0 352.8,300.5 353.2,304.4 353.5,303.9 353.9,301.0 354.3,301.0 354.6,290.8 355.0,287.9 355.4,276.8 355.7,250.1 356.1,240.4 356.5,235.1 356.8,241.4 357.2,247.2 357.6,249.6 357.9,270.0 358.3,296.7 358.7,305.9 359.0,320.4 359.4,321.9 359.8,334.5 360.1,339.8 360.5,346.6 360.8,336.9 361.2,328.1 361.6,316.0 361.9,313.6 362.3,304.4 362.7,303.9 363.0,302.5 363.4,317.0 363.8,317.5 364.1,333.0 364.5,329.1 364.9,333.0 365.2,334.5 365.6,319.0 366.0,303.4 366.3,302.0 366.7,320.9 367.1,339.3 367.4,329.1 367.8,325.7 368.2,342.2 368.5,351.9 368.9,361.6 369.3,319.9 369.6,316.0 370.0,327.7 370.4,320.4 370.7,302.9 371.1,287.9 371.5,271.4 371.8,266.1 372.2,238.0 372.5,224.9 372.9,212.3 373.3,199.2 373.6,203.6 374.0,219.1 374.4,218.1 374.7,231.7 375.1,217.2 375.5,229.7 375.8,236.5 376.2,243.3 376.6,249.2 376.9,274.8 377.3,283.1 377.7,292.8 378.0,286.0 378.4,285.5 378.8,277.2 379.1,264.2 379.5,239.0 379.9,221.0 380.2,219.1 380.6,210.8 381.0,209.9 381.3,219.1 381.7,219.1 382.1,233.6 382.4,252.0 382.8,277.8 383.2,300.5 383.5,298.1 383.9,285.5 384.2,285.5 384.6,294.2 385.0,283.6 385.3,260.8 385.7,240.4 386.1,248.6 386.4,258.8 386.8,247.7 387.2,223.0 387.5,213.8 387.9,212.3 388.3,235.1 388.6,243.8 389.0,234.6 389.4,244.3 389.7,255.9 390.1,264.7 390.5,263.2 390.8,243.3 391.2,225.9 391.6,226.3 391.9,232.7 392.3,244.3 392.7,239.0 393.0,244.8 393.4,253.5 393.8,260.8 394.1,255.4 394.5,236.5 394.9,218.1 395.2,213.3 395.6,222.5 395.9,213.8 396.3,207.0 396.7,212.3 397.0,227.3 397.4,231.2 397.8,236.5 398.1,224.4 398.5,226.3 398.9,235.6 399.2,245.2 399.6,239.9 400.0,232.7 400.3,231.2 400.7,224.4 401.1,225.9 401.4,211.3 401.8,195.3 402.2,191.0 402.5,194.3 402.9,194.3 403.3,190.5 403.6,189.5 404.0,198.7 404.4,208.9 404.7,210.4 405.1,214.7 405.5,214.2 405.8,219.6 406.2,219.1 406.6,214.7 406.9,206.5 407.3,213.3 407.6,221.0 408.0,228.3 408.4,229.7 408.7,237.0 409.1,239.0 409.5,243.3 409.8,244.8 410.2,242.8 410.6,257.9 410.9,268.5 411.3,269.0 411.7,275.3 412.0,271.0 412.4,268.5 412.8,275.8 413.1,259.8 413.5,249.2 413.9,246.2 414.2,243.3 414.6,247.7 415.0,246.2 415.3,230.2 415.7,232.2 416.1,240.4 416.4,239.4 416.8,232.2 417.2,230.2 417.5,223.5 417.9,220.1 418.3,212.3 418.6,200.2 419.0,193.4 419.3,208.4 419.7,215.7 420.1,221.0 420.4,238.0 420.8,245.2 421.2,263.2 421.5,265.6 421.9,254.0 422.3,255.4 422.6,270.5 423.0,274.4 423.4,278.7 423.7,277.2 424.1,273.4 424.5,277.2 424.8,282.1 425.2,277.2 425.6,271.4 425.9,263.2 426.3,253.0 426.7,259.8 427.0,251.6 427.4,239.0 427.8,226.3 428.1,218.6 428.5,229.7 428.9,236.1 429.2,241.4 429.6,258.3 430.0,263.2 430.3,270.5 430.7,265.6 431.0,252.0 431.4,255.9 431.8,258.8 432.1,248.6 432.5,249.2 432.9,241.4 433.2,241.4 433.6,244.3 434.0,234.6 434.3,229.7 434.7,230.2 435.1,229.3 435.4,237.0 435.8,237.0 436.2,241.4 436.5,239.9 436.9,245.2 437.3,242.8 437.6,244.3 438.0,239.0 438.4,234.6 438.7,225.4 439.1,250.6 439.5,256.4 439.8,270.0 440.2,264.7 440.6,263.2 440.9,266.1 441.3,272.9 441.7,236.5 442.0,213.8 442.4,197.3 442.7,225.9 443.1,244.3 443.5,250.1 443.8,242.4 444.2,248.6 444.6,265.6 444.9,272.9 445.3,242.4 445.7,230.7 446.0,227.3 446.4,239.4 446.8,262.7 447.1,258.8 447.5,253.0 447.9,261.7 448.2,277.8 448.6,295.2 449.0,304.9 449.3,310.7 449.7,320.4 450.1,324.8 450.4,311.7 450.8,287.0 451.2,277.8 451.5,271.9 451.9,261.7 452.3,265.6 452.6,287.9 453.0,321.4 453.4,334.0 453.7,326.2 454.1,309.7 454.4,310.2 454.8,292.3 455.2,266.1 455.5,241.4 455.9,228.8 456.3,233.1 456.6,246.7 457.0,239.9 457.4,241.9 457.7,235.6 458.1,235.6 458.5,239.4 458.8,237.0 459.2,244.8 459.6,248.6 459.9,244.8 460.3,280.2 460.7,282.1 461.0,287.9 461.4,288.4 461.8,275.8 462.1,266.6 462.5,271.4 462.9,247.2 463.2,255.9 463.6,255.0 464.0,273.9 464.3,275.8 464.7,277.2 465.1,288.9 465.4,297.6 465.8,299.1 466.1,300.5 466.5,282.6 466.9,298.1 467.2,309.2 467.6,287.9 468.0,270.5 468.3,259.3 468.7,267.1 469.1,273.9 469.4,266.6 469.8,265.1 470.2,266.1 470.5,271.9 470.9,280.6 471.3,275.3 471.6,283.6 472.0,277.8 472.4,274.8 472.7,295.2 473.1,295.7 473.5,291.3 473.8,287.9 474.2,278.7 474.6,282.6 474.9,289.9 475.3,283.6 475.7,280.2 476.0,273.4 476.4,275.3 476.8,270.5 477.1,263.2 477.5,251.1 477.9,251.1 478.2,252.5 478.6,256.9 478.9,245.8 479.3,243.8 479.7,244.3 480.0,253.0 480.4,256.9 480.8,262.7 481.1,260.8 481.5,263.7 481.9,258.3 482.2,251.1 482.6,255.9 483.0,248.2 483.3,237.5 483.7,232.2 484.1,225.4 484.4,228.8 484.8,223.5 485.2,203.6 485.5,190.5 485.9,196.3 486.3,204.5 486.6,205.5 487.0,201.6 487.4,206.0 487.7,197.7 488.1,195.8 488.5,191.9 488.8,187.6 489.2,187.6 489.6,180.8 489.9,180.3 490.3,189.5 490.6,187.1 491.0,179.8 491.4,173.5 491.7,191.9 492.1,196.8 492.5,197.3 492.8,188.5 493.2,195.3 493.6,197.3 493.9,207.9 494.3,197.7 494.7,204.1 495.0,199.7 495.4,207.4 495.8,214.2 496.1,213.8 496.5,207.0 496.9,213.3 497.2,217.2 497.6,234.1 498.0,245.2 498.3,234.6 498.7,224.4 499.1,208.4 499.4,189.5 499.8,176.9 500.2,169.6 500.5,178.4 500.9,186.6 501.3,200.7 501.6,204.1 502.0,204.1 502.3,203.1 502.7,216.2 503.1,197.3 503.4,188.5 503.8,185.2 504.2,205.0 504.5,223.9 504.9,239.0 505.3,211.8 505.6,200.7 506.0,217.2 506.4,211.8 506.7,190.5 507.1,170.6 507.5,144.9 507.8,146.4 508.2,159.0 508.6,151.7 508.9,169.6 509.3,181.8 509.7,186.6 510.0,196.3 510.4,197.7 510.8,195.8 511.1,193.9 511.5,178.8 511.9,174.5 512.2,176.0 512.6,178.8 513.0,183.7 513.3,177.9 513.7,165.3 514.0,168.7 514.4,167.7 514.8,152.7 515.1,149.3 515.5,146.4 515.9,148.3 516.2,162.4 516.6,166.7 517.0,167.2 517.3,181.8 517.7,192.9 518.1,188.5 518.4,176.9 518.8,161.9 519.2,149.8 519.5,149.8 519.9,156.5 520.3,185.6 520.6,223.5 521.0,261.7 521.4,275.8 521.7,294.2 522.1,305.9 522.5,299.1 522.8,260.8 523.2,227.3 523.6,213.8 523.9,208.4 524.3,211.8 524.7,204.1 525.0,216.7 525.4,222.0 525.7,227.8 526.1,211.3 526.5,209.9 526.8,189.5 527.2,179.3 527.6,164.8 527.9,156.5 528.3,139.6 528.7,141.5 529.0,147.3 529.4,152.7 529.8,157.0 530.1,162.4 530.5,190.5 530.9,216.7 531.2,239.9 531.6,239.9 532.0,243.8 532.3,264.2 532.7,262.2 533.1,263.2 533.4,253.0 533.8,249.6 534.2,252.0 534.5,248.6 534.9,232.2 535.3,237.0 535.6,226.9 536.0,227.3 536.4,227.3 536.7,225.4 537.1,222.5 537.4,212.8 537.8,207.0 538.2,193.9 538.5,182.2 538.9,174.0 539.3,182.7 539.6,184.7 540.0,183.7 540.4,184.7 540.7,188.5 541.1,203.6 541.5,220.1 541.8,211.3 542.2,230.7 542.6,244.3 542.9,252.5 543.3,250.1 543.7,228.8 544.0,195.8 544.4,193.9 544.8,174.0 545.1,188.5 545.5,191.0 545.9,199.7 546.2,230.2 546.6,247.7 547.0,256.9 547.3,289.9 547.7,290.3 548.1,273.9 548.4,268.1 548.8,261.3 549.1,258.8 549.5,246.7 549.9,216.2 550.2,199.2 550.6,197.3 551.0,184.7 551.3,171.1 551.7,165.3 552.1,179.8 552.4,176.4 552.8,173.0 553.2,195.8 553.5,196.3 553.9,211.3 554.3,206.0 554.6,190.5 555.0,194.3 555.4,192.9 555.7,168.7 556.1,192.4 556.5,190.5 556.8,184.2 557.2,183.7 557.6,184.7 557.9,189.5 558.3,194.9 558.7,189.0 559.0,186.6 559.4,192.4 559.8,196.8 560.1,201.1 560.5,214.7 560.8,221.5 561.2,209.4 561.6,194.9 561.9,192.4 562.3,184.2 562.7,170.1 563.0,151.2 563.4,149.3 563.8,162.4 564.1,187.1 564.5,217.2 564.9,248.6 565.2,259.8 565.6,272.4 566.0,265.6 566.3,247.7 566.7,238.5 567.1,208.9 567.4,190.5 567.8,195.3 568.2,205.5 568.5,211.3 568.9,240.9 569.3,237.0 569.6,256.4 570.0,265.1 570.4,253.0 570.7,225.9 571.1,233.1 571.5,225.4 571.8,226.9 572.2,231.7 572.5,221.5 572.9,224.4 573.3,236.5 573.6,228.8 574.0,210.8 574.4,210.4 574.7,205.0 575.1,200.2 575.5,201.1 575.8,196.3 576.2,197.3 576.6,209.9 576.9,214.7 577.3,201.6 577.7,195.8 578.0,194.9 578.4,196.3 578.8,213.8 579.1,207.9 579.5,209.4 579.9,208.4 580.2,209.9 580.6,200.7 581.0,204.5 581.3,192.4 581.7,201.6 582.1,184.7 582.4,176.4 582.8,177.9 583.2,198.7 583.5,203.6 583.9,196.8 584.2,187.1 584.6,201.1 585.0,224.9 585.3,245.8 585.7,243.3 586.1,236.5 586.4,249.2 586.8,276.3 587.2,288.4 587.5,280.2 587.9,267.1 588.3,278.7 588.6,295.2 589.0,296.1 589.4,281.2 589.7,255.9 590.1,254.0 590.5,287.0 590.8,274.8 591.2,273.9 591.6,279.7 591.9,284.0 592.3,306.8 592.7,327.7 593.0,320.9 593.4,317.5 593.8,297.6 594.1,281.2 594.5,271.4 594.9,271.9 595.2,262.2 595.6,245.2 595.9,252.5 596.3,265.1 596.7,279.7 597.0,280.6 597.4,286.0 597.8,297.1 598.1,296.7 598.5,296.7 598.9,295.7 599.2,289.9 599.6,295.2 600.0,279.7 600.3,269.5 600.7,263.7 601.1,253.5 601.4,260.3 601.8,268.1 602.2,264.2 602.5,260.8 602.9,257.9 603.3,271.9 603.6,290.3 604.0,289.4 604.4,289.9 604.7,290.8 605.1,306.3 605.5,324.8 605.8,326.7 606.2,319.0 606.6,309.2 606.9,299.1 607.3,295.7 607.6,288.4 608.0,280.2 608.4,266.1 608.7,267.1 609.1,271.9 609.5,273.4 609.8,286.5 610.2,291.8 610.6,292.8 610.9,294.7 611.3,305.4 611.7,310.7 612.0,312.6 612.4,300.1 612.8,291.3 613.1,281.2 613.5,281.6 613.9,261.7 614.2,255.9 614.6,251.1 615.0,239.0 615.3,240.9 615.7,240.4 616.1,236.5 616.4,246.2 616.8,250.1 617.2,247.7 617.5,261.7 617.9,273.4 618.3,266.6 618.6,267.1 619.0,272.9 619.3,267.1 619.7,258.8 620.1,258.8 620.4,248.6 620.8,265.1 621.2,284.0 621.5,262.7 621.9,253.0 622.3,276.8 622.6,291.8 623.0,264.2 623.4,241.9 623.7,229.3 624.1,246.2 624.5,249.2 624.8,232.7 625.2,200.7 625.6,228.3 625.9,219.6 626.3,203.6 626.7,179.8 627.0,187.1 627.4,185.6 627.8,198.7 628.1,199.7 628.5,221.5 628.9,243.3 629.2,257.9 629.6,241.9 630.0,229.3 630.3,218.6 630.7,202.1 631.0,190.5 631.4,160.9 631.8,154.6 632.1,165.8 632.5,176.9 632.9,198.2 633.2,210.4 633.6,217.6 634.0,231.7 634.3,232.7 634.7,234.6 635.1,249.6 635.4,252.5 635.8,267.6 636.2,291.3 636.5,302.5 636.9,312.6 637.3,329.6 637.6,335.9 638.0,329.6 638.4,307.3 638.7,270.0 639.1,249.6 639.5,256.4 639.8,251.6 640.2,244.3 640.6,239.9 640.9,232.7 641.3,247.7 641.7,255.4 642.0,234.1 642.4,218.1 642.7,197.7 643.1,193.9 643.5,202.6 643.8,198.2 644.2,206.5 644.6,221.0 644.9,227.3 645.3,236.1 645.7,231.7 646.0,208.9 646.4,200.2 646.8,173.5 647.1,164.8 647.5,159.0 647.9,157.5 648.2,170.6 648.6,197.7 649.0,207.9 649.3,226.3 649.7,238.0 650.1,239.9 650.4,241.9 650.8,237.5 651.2,244.3 651.5,246.2 651.9,234.6 652.3,215.2 652.6,203.6 653.0,205.5 653.4,192.9 653.7,170.1 654.1,164.8 654.4,168.7 654.8,172.1 655.2,186.1 655.5,200.2 655.9,208.4 656.3,212.8 656.6,200.2 657.0,195.8 657.4,223.0 657.7,216.2 658.1,199.7 658.5,201.6 658.8,210.4 659.2,218.1 659.6,230.7 659.9,218.1 660.3,214.7 660.7,218.1 661.0,205.0 661.4,209.4 661.8,218.1 662.1,247.7 662.5,240.9 662.9,230.7 663.2,221.5 663.6,236.5 664.0,232.2 664.3,218.1 664.7,187.6 665.1,183.7 665.4,217.6 665.8,244.8 666.1,249.6 666.5,254.5 666.9,272.4 667.2,273.4 667.6,272.4 668.0,254.0 668.3,233.1 668.7,217.6 669.1,208.9 669.4,209.9 669.8,196.3 670.2,203.1 670.5,208.9 670.9,205.0 671.3,203.1 671.6,200.2 672.0,194.3 672.4,206.0 672.7,198.2 673.1,198.7 673.5,207.0 673.8,193.9 674.2,208.4 674.6,204.5 674.9,221.0 675.3,233.1 675.7,218.6 676.0,205.0 676.4,239.9 676.8,218.6 677.1,208.9 677.5,190.0 677.9,188.5 678.2,192.4 678.6,207.0 678.9,212.3 679.3,210.4 679.7,214.7 680.0,225.4 680.4,219.6 680.8,225.4 681.1,231.2 681.5,225.4 681.9,253.0 682.2,272.4 682.6,288.9 683.0,287.9 683.3,269.5 683.7,259.3 684.1,246.2 684.4,225.9 684.8,207.4 685.2,192.4 685.5,197.7 685.9,221.0 686.3,213.8 686.6,219.6 687.0,219.6 687.4,210.4 687.7,190.0 688.1,168.7 688.5,150.7 688.8,163.8 689.2,148.8 689.6,160.4 689.9,167.2 690.3,170.6 690.6,177.4 691.0,195.8 691.4,182.7 691.7,196.8 692.1,223.9 692.5,229.3 692.8,240.4 693.2,247.2 693.6,229.7 693.9,226.3 694.3,225.4 694.7,209.9 695.0,233.1 695.4,255.4 695.8,259.8 696.1,281.6 696.5,280.2 696.9,261.7 697.2,235.6 697.6,207.4 698.0,190.0 698.3,197.3 698.7,184.2 699.1,203.6 699.4,206.0 699.8,200.7 700.2,212.3 700.5,209.9 700.9,209.4 701.3,203.6 701.6,186.1 702.0,187.6 702.3,202.6 702.7,215.7 703.1,222.0 703.4,223.9 703.8,239.4 704.2,255.9 704.5,250.6 704.9,252.0 705.3,219.6 705.6,207.0 706.0,188.1 706.4,191.9 706.7,186.1 707.1,209.4 707.5,197.7 707.8,198.7 708.2,200.2 708.6,199.7 708.9,179.8 709.3,192.9 709.7,189.0 710.0,212.3 710.4,228.8 710.8,226.3 711.1,231.2 711.5,240.4 711.9,236.5 712.2,255.4 712.6,244.3 713.0,236.1 713.3,239.9 713.7,253.5 714.0,258.8 714.4,250.1 714.8,228.3 715.1,246.2 715.5,262.2 715.9,276.3 716.2,286.5 716.6,268.1 717.0,260.3 717.3,255.4 717.7,248.2 718.1,248.6 718.4,260.3 718.8,255.0 719.2,297.1 719.5,324.8 719.9,341.7 720.3,351.0 720.6,342.7 721.0,308.8 721.4,285.5 721.7,246.2 722.1,219.1 722.5,218.1 722.8,214.7 723.2,224.9 723.6,240.4 723.9,266.6 724.3,290.8 724.7,308.3 725.0,312.2 725.4,322.8 725.7,321.4 726.1,330.1 726.5,330.1 726.8,336.4 727.2,337.4 727.6,330.1 727.9,322.3 728.3,335.4 728.7,344.6 729.0,325.7 729.4,305.4 729.8,293.3 730.1,287.9 730.5,272.9 730.9,277.2 731.2,272.9 731.6,281.2 732.0,292.3 732.3,297.1 732.7,307.3 733.1,317.5 733.4,302.0 733.8,307.8 734.2,322.3 734.5,327.7 734.9,338.8 735.3,330.1 735.6,328.1 736.0,334.5 736.4,312.6 736.7,301.5 737.1,290.8 737.4,292.3 737.8,291.3 738.2,281.2 738.5,284.5 738.9,300.1 739.3,304.9 739.6,313.1 740.0,300.5 740.4,304.9 740.7,310.2 741.1,292.3 741.5,277.8 741.8,275.3 742.2,272.4 742.6,287.9 742.9,294.7 743.3,294.2 743.7,299.1 744.0,302.9 744.4,293.7 744.8,272.4 745.1,249.2 745.5,238.5 745.9,245.2 746.2,247.7 746.6,237.0 747.0,242.8 747.3,259.3 747.7,256.9 748.1,250.6 748.4,256.9 748.8,249.2 749.1,261.7 749.5,256.9 749.9,263.2 750.2,280.6 750.6,288.9 751.0,273.9 751.3,284.0 751.7,285.0 752.1,294.2 752.4,294.2 752.8,300.5 753.2,298.6 753.5,299.1 753.9,296.1 754.3,288.9 754.6,282.1 755.0,276.8 755.4,267.1 755.7,271.9 756.1,267.1 756.5,258.8 756.8,274.8 757.2,282.6 757.6,291.3 757.9,297.1 758.3,298.6 758.7,318.5 759.0,333.0 759.4,318.5 759.8,322.3 760.1,312.2 760.5,309.2 760.8,303.4 761.2,291.3 761.6,282.1 761.9,288.4 762.3,266.1 762.7,261.3 763.0,257.9 763.4,273.9 763.8,272.9 764.1,262.2 764.5,266.1 764.9,282.6 765.2,278.2 765.6,255.9 766.0,239.4 766.3,249.6 766.7,246.2 767.1,206.5 767.4,181.8 767.8,174.0 768.2,185.6 768.5,181.3 768.9,165.3 769.3,166.2 769.6,181.3 770.0,189.0 770.4,197.7 770.7,201.6 771.1,198.7 771.5,198.2 771.8,199.2 772.2,203.1 772.5,197.3 772.9,196.3 773.3,195.8 773.6,199.7 774.0,208.4 774.4,220.5 774.7,209.9 775.1,223.0 775.5,211.8 775.8,206.5 776.2,195.8 776.6,178.4 776.9,181.3 777.3,190.5 777.7,180.3 778.0,192.9 778.4,200.2 778.8,220.5 779.1,233.6 779.5,238.0 779.9,234.6 780.2,233.6 780.6,234.1 781.0,212.3 781.3,200.2 781.7,205.5 782.1,189.0 782.4,189.5 782.8,209.9 783.2,215.2 783.5,211.8 783.9,216.2 784.2,216.2 784.6,223.5 785.0,229.7 785.3,211.8 785.7,198.2 786.1,207.0 786.4,208.9 786.8,190.0 787.2,187.1 787.5,190.0 787.9,188.1 788.3,177.4 788.6,185.6 789.0,163.3 789.4,158.0 789.7,150.2 790.1,163.3 790.5,164.8 790.8,194.9 791.2,189.0 791.6,199.2 791.9,201.1 792.3,205.0 792.7,192.4 793.0,184.2 793.4,161.9 793.8,153.6 794.1,148.3 794.5,168.2 794.9,167.7 795.2,174.5 795.6,171.6 795.9,173.5 796.3,177.9 796.7,192.9 797.0,189.0 797.4,199.7 797.8,201.1 798.1,233.1 798.5,229.3 798.9,247.7 799.2,251.1 799.6,246.2 800.0,229.7 800.3,205.5 800.7,182.2 801.1,191.5 801.4,188.5 801.8,166.2 802.2,172.6 802.5,184.2 802.9,189.5 803.3,190.5 803.6,181.3 804.0,178.4 804.4,184.2 804.7,161.4 805.1,150.7 805.5,172.6 805.8,185.6 806.2,208.4 806.6,220.5 806.9,219.1 807.3,222.5 807.6,224.9 808.0,199.2 808.4,183.7 808.7,163.8 809.1,126.5 809.5,127.0 809.8,120.2 810.2,112.4 810.6,112.0 810.9,109.0 811.3,111.0 811.7,119.7 812.0,113.9 812.4,151.7 812.8,167.7 813.1,176.9 813.5,182.7 813.9,199.7 814.2,222.0 814.6,248.2 815.0,226.9 815.3,226.3 815.7,231.7 816.1,236.5 816.4,219.1 816.8,206.0 817.2,190.5 817.5,191.5 817.9,197.7 818.3,202.1 818.6,198.2 819.0,207.0 819.3,226.9 819.7,254.0 820.1,258.8 820.4,246.7 820.8,244.3 821.2,242.8 821.5,235.6 821.9,235.1 822.3,229.7 822.6,255.9 823.0,272.9 823.4,283.6 823.7,310.2 824.1,333.0 824.5,337.4 824.8,332.5 825.2,306.8 825.6,294.7 825.9,283.1 826.3,258.3 826.7,228.3 827.0,212.8 827.4,211.8 827.8,211.3 828.1,212.3 828.5,209.4 828.9,217.6 829.2,229.7 829.6,223.9 830.0,210.4 830.3,208.9 830.7,196.8 831.0,209.9 831.4,225.9 831.8,232.2 832.1,221.0 832.5,215.2 832.9,209.9 833.2,218.1 833.6,204.1 834.0,206.0 834.3,203.1 834.7,224.9 835.1,235.6 835.4,241.4 835.8,246.2 836.2,248.2 836.5,231.7 836.9,244.3 837.3,245.2 837.6,262.2 838.0,270.0 838.4,269.0 838.7,276.3 839.1,277.8 839.5,287.4 839.8,291.3 840.2,266.1 840.6,250.6 840.9,251.6 841.3,255.9 841.7,274.4 842.0,253.0 842.4,234.6 842.7,248.6 843.1,262.7 843.5,267.6 843.8,260.8 844.2,255.0 844.6,262.2 844.9,280.2 845.3,282.6 845.7,277.2 846.0,277.2 846.4,265.6 846.8,239.9 847.1,238.5 847.5,240.9 847.9,243.3 848.2,262.7 848.6,249.6 849.0,260.3 849.3,266.6 849.7,271.9 850.1,270.5 850.4,268.5 850.8,272.9 851.2,281.2 851.5,284.5 851.9,291.8 852.3,282.1 852.6,284.0 853.0,272.4 853.4,250.1 853.7,261.7 854.1,267.6 854.4,268.5 854.8,269.5 855.2,257.4 855.5,277.2 855.9,283.6 856.3,284.0 856.6,292.3 857.0,300.1 857.4,299.1 857.7,315.6 858.1,314.6 858.5,327.2 858.8,317.5 859.2,309.2 859.6,317.0 859.9,331.5 860.3,334.0 860.7,340.3 861.0,335.4 861.4,342.2 861.8,347.1 862.1,343.2 862.5,339.8 862.9,346.6 863.2,339.8 863.6,347.1 864.0,360.1 864.3,365.5 864.7,377.1 865.1,384.4 865.4,378.1 865.8,377.6 866.1,360.1 866.5,354.8 866.9,353.8 867.2,337.9 867.6,330.6 868.0,327.2 868.3,343.7 868.7,354.8 869.1,345.1 869.4,340.8 869.8,343.2 870.2,351.9 870.5,355.8 870.9,337.4 871.3,340.3 871.6,346.6 872.0,337.4 872.4,339.3 872.7,337.9 873.1,333.5 873.5,327.2 873.8,330.1 874.2,323.3 874.6,322.8 874.9,321.4 875.3,319.4 875.7,316.0 876.0,321.9 876.4,310.2 876.8,308.8 877.1,306.3 877.5,289.4 877.9,282.6 878.2,281.2 878.6,279.7 878.9,275.3 879.3,272.4 879.7,273.9 880.0,284.5 880.4,281.2 880.8,277.8 881.1,279.7 881.5,283.1 881.9,286.0 882.2,281.2 882.6,274.4 883.0,275.3 883.3,282.6 883.7,271.4 884.1,263.7 884.4,262.7 884.8,274.4 885.2,285.0 885.5,282.6 885.9,271.4 886.3,279.2 886.6,282.6 887.0,291.8 887.4,289.4 887.7,280.2 888.1,283.6 888.5,276.8 888.8,255.9 889.2,226.3 889.6,214.7 889.9,212.3 890.3,222.0 890.6,223.9 891.0,241.9 891.4,256.4 891.7,287.4 892.1,289.9 892.5,282.6 892.8,283.6 893.2,288.9 893.6,289.9 893.9,309.2 894.3,312.6 894.7,319.4 895.0,331.5 895.4,331.1 895.8,324.3 896.1,315.1 896.5,293.3 896.9,270.0 897.2,258.3 897.6,251.6 898.0,251.6 898.3,247.7 898.7,259.8 899.1,266.1 899.4,280.6 899.8,287.0 900.2,281.2 900.5,253.5 900.9,249.6 901.3,230.7 901.6,228.8 902.0,229.3 902.3,218.6 902.7,233.1 903.1,249.2 903.4,254.0 903.8,269.0 904.2,280.6 904.5,285.0 904.9,271.0 905.3,236.1 905.6,222.5 906.0,215.7 906.4,182.7 906.7,164.8 907.1,166.2 907.5,167.2 907.8,185.2 908.2,185.2 908.6,179.8 908.9,191.0 909.3,176.4 909.7,158.0 910.0,159.5 910.4,154.6 910.8,157.5 911.1,159.9 911.5,188.1 911.9,195.3 912.2,221.5 912.6,261.7 913.0,284.5 913.3,294.7 913.7,287.4 914.0,241.9 914.4,249.2 914.8,229.3 915.1,217.2 915.5,183.2 915.9,177.4 916.2,195.3 916.6,226.3 917.0,229.3 917.3,222.5 917.7,199.7 918.1,224.4 918.4,230.7 918.8,211.3 919.2,190.5 919.5,196.8 919.9,237.0 920.3,244.3 920.6,246.2 921.0,242.8 921.4,237.0 921.7,240.4 922.1,222.5 922.5,196.3 922.8,191.9 923.2,170.6 923.6,164.3 923.9,185.2 924.3,185.6 924.7,191.0 925.0,178.8 925.4,182.7 925.7,186.6 926.1,192.9 926.5,180.3 926.8,186.1 927.2,186.6 927.6,178.8 927.9,165.3 928.3,161.9 928.7,148.3 929.0,154.6 929.4,157.0 929.8,145.9 930.1,159.9 930.5,177.9 930.9,192.9 931.2,195.3 931.6,194.3 932.0,196.3 932.3,213.3 932.7,219.6 933.1,229.3 933.4,225.4 933.8,227.3 934.2,255.9 934.5,264.2 934.9,254.5 935.3,247.7 935.6,233.6 936.0,241.4 936.4,258.3 936.7,239.0 937.1,244.8 937.4,271.4 937.8,284.5 938.2,289.4 938.5,288.9 938.9,269.0 939.3,258.8 939.6,246.7 940.0,235.6 940.4,238.0 940.7,231.7 941.1,236.5 941.5,257.4 941.8,277.8 942.2,280.6 942.6,266.6 942.9,255.4 943.3,271.4 943.7,252.0 944.0,248.2 944.4,226.9 944.8,208.9 945.1,200.7 945.5,196.3 945.9,181.8 946.2,188.1 946.6,168.2 947.0,176.9 947.3,196.3 947.7,199.7 948.1,200.2 948.4,206.0 948.8,212.3 949.1,221.5 949.5,211.8 949.9,199.7 950.2,210.8 950.6,202.1 951.0,213.3 951.3,202.6 951.7,212.8 952.1,244.3 952.4,257.9 952.8,267.6 953.2,288.4 953.5,280.6 953.9,302.9 954.3,320.4 954.6,302.0 955.0,273.4 955.4,269.5 955.7,258.3 956.1,266.1 956.5,264.2 956.8,253.0 957.2,248.2 957.6,262.7 957.9,265.6 958.3,275.3 958.7,244.3 959.0,223.5 959.4,201.6 959.8,207.4 960.1,227.3 960.5,223.0 960.8,215.7 961.2,218.6 961.6,223.9 961.9,237.5 962.3,226.9 962.7,214.2 963.0,210.8 963.4,230.7 963.8,225.9 964.1,231.2 964.5,223.0 964.9,221.5 965.2,219.1 965.6,215.7 966.0,207.0 966.3,241.9 966.7,252.0 967.1,280.2 967.4,301.0 967.8,316.0 968.2,305.9 968.5,291.8 968.9,291.3 969.3,289.4 969.6,279.2 970.0,287.0 970.4,271.9 970.7,282.6 971.1,297.6 971.5,298.1 971.8,294.2 972.2,279.7 972.5,258.8 972.9,248.2 973.3,243.8 973.6,221.0 974.0,187.1 974.4,156.1 974.7,144.0 975.1,154.6 975.5,200.2 975.8,227.8 976.2,259.8 976.6,295.2 976.9,342.7 977.3,375.7 977.7,369.9 978.0,320.9 978.4,319.4 978.8,321.9 979.1,319.9 979.5,303.4 979.9,301.5 980.2,311.7 980.6,338.8 981.0,320.4 981.3,300.1 981.7,275.3 982.1,261.7 982.4,257.4 982.8,246.2 983.2,222.5 983.5,222.0 983.9,225.9 984.2,235.1 984.6,247.2 985.0,250.6 985.3,279.2 985.7,313.1 986.1,333.0 986.4,332.1 986.8,334.5 987.2,317.5 987.5,311.2 987.9,290.3 988.3,271.0 988.6,265.1 989.0,269.5 989.4,273.9 989.7,294.7 990.1,309.2 990.5,319.0 990.8,341.2 991.2,337.9 991.6,336.9 991.9,350.0 992.3,357.7 992.7,352.4 993.0,349.5 993.4,338.8 993.8,346.6 994.1,357.7 994.5,358.2 994.9,363.1 995.2,364.0 995.6,356.8 995.9,360.1 996.3,361.6 996.7,364.0 997.0,365.0 997.4,352.4 997.8,356.3 998.1,355.3 998.5,341.2 998.9,341.2 999.2,335.9 999.6,337.9 1000.0,351.0 1000.3,350.4 1000.7,360.1 1001.1,376.2 1001.4,382.4 1001.8,380.0 1002.2,385.4 1002.5,383.4 1002.9,380.5 1003.3,384.9 1003.6,399.9 1004.0,386.8 1004.4,389.7 1004.7,379.1 1005.1,369.9 1005.5,377.6 1005.8,370.8 1006.2,348.0 1006.6,342.2 1006.9,334.5 1007.3,336.4 1007.6,348.0 1008.0,341.7 1008.4,339.3 1008.7,344.2 1009.1,342.7 1009.5,344.2 1009.8,329.1 1010.2,314.1 1010.6,303.4 1010.9,302.9 1011.3,302.0 1011.7,309.2 1012.0,307.8 1012.4,318.5 1012.8,335.4 1013.1,345.6 1013.5,345.1 1013.9,345.6 1014.2,347.6 1014.6,350.0 1015.0,349.5 1015.3,345.6 1015.7,337.9 1016.1,343.2 1016.4,342.7 1016.8,338.3 1017.2,331.1 1017.5,323.3 1017.9,306.8 1018.3,311.7 1018.6,302.0 1019.0,296.7 1019.3,309.7 1019.7,315.6 1020.1,320.4 1020.4,329.6 1020.8,328.1 1021.2,335.4 1021.5,336.9 1021.9,317.0 1022.3,315.6 1022.6,292.8 1023.0,267.6 1023.4,259.8 1023.7,259.8 1024.1,257.9 1024.5,255.0 1024.8,227.8 1025.2,232.7 1025.6,239.9 1025.9,208.4 1026.3,182.7 1026.7,192.4 1027.0,177.4 1027.4,191.0 1027.8,213.3 1028.1,238.0 1028.5,300.1 1028.9,352.9 1029.2,381.5 1029.6,443.1 1030.0,493.0 1030.3,523.5 1030.7,549.2 1031.0,559.9 1031.4,562.3 1031.8,563.8 1032.1,563.3 1032.5,564.7 1032.9,565.7 1033.2,567.6 1033.6,565.2 1034.0,563.3 1034.3,562.3 1034.7,563.3 1035.1,562.8 1035.4,560.4 1035.8,559.4 1036.2,560.8 1036.5,560.4 1036.9,560.4 1037.3,558.9 1037.6,556.5 1038.0,556.5 1038.4,553.1 1038.7,551.6 1039.1,549.7 1039.5,546.3 1039.8,542.9 1040.2,543.4 1040.6,541.5 1040.9,539.5 1041.3,537.6 1041.7,538.1 1042.0,540.0 1042.4,542.4 1042.7,541.5 1043.1,543.4 1043.5,545.3 1043.8,543.4 1044.2,543.4 1044.6,542.4 1044.9,539.0 1045.3,537.6 1045.7,531.3 1046.0,525.0 1046.4,528.9 1046.8,529.3 1047.1,531.8 1047.5,534.7 1047.9,538.5 1048.2,543.4 1048.6,551.2 1049.0,553.1 1049.3,557.0 1049.7,556.5 1050.1,557.4 1050.4,555.5 1050.8,554.6 1051.2,552.6 1051.5,551.2 1051.9,549.2 1052.3,551.2 1052.6,552.6 1053.0,554.0 1053.4,557.0 1053.7,559.4 1054.1,558.0 1054.4,555.5 1054.8,553.1 1055.2,550.2 1055.5,547.8 1055.9,547.3 1056.3,544.9 1056.6,546.8 1057.0,548.2 1057.4,547.8 1057.7,545.3 1058.1,545.8 1058.5,545.3 1058.8,546.3 1059.2,544.4 1059.6,543.9 1059.9,543.9 1060.3,547.3 1060.7,549.2 1061.0,550.2 1061.4,551.6 1061.8,554.6 1062.1,556.5 1062.5,557.0 1062.9,554.6 1063.2,553.6 1063.6,554.0 1064.0,555.0 1064.3,555.0 1064.7,552.6 1065.1,552.6 1065.4,555.0 1065.8,554.6 1066.1,552.6 1066.5,552.1 1066.9,550.7 1067.2,549.2 1067.6,546.3 1068.0,541.9 1068.3,534.7 1068.7,531.8 1069.1,521.1 1069.4,520.1 1069.8,518.7 1070.2,517.2 1070.5,499.3 1070.9,485.2 1071.3,472.6 1071.6,470.7 1072.0,461.5" fill="none" stroke="#0f766e" stroke-width="3.5"/>
    <polyline points="72.0,429.5 72.4,424.4 72.7,412.5 73.1,416.8 73.5,420.0 73.8,422.7 74.2,414.9 74.6,414.9 74.9,424.1 75.3,429.5 75.7,426.1 76.0,425.6 76.4,431.4 76.8,439.7 77.1,444.5 77.5,439.2 77.9,442.1 78.2,447.4 78.6,447.9 78.9,437.2 79.3,438.2 79.7,432.9 80.0,432.4 80.4,433.3 80.8,437.2 81.1,434.3 81.5,437.2 81.9,440.1 82.2,442.6 82.6,439.7 83.0,441.1 83.3,436.7 83.7,440.1 84.1,441.1 84.4,439.7 84.8,441.1 85.2,445.0 85.5,441.6 85.9,438.7 86.3,433.9 86.6,432.4 87.0,436.3 87.4,435.8 87.7,433.9 88.1,431.4 88.5,433.9 88.8,435.3 89.2,440.6 89.6,432.4 89.9,431.4 90.3,428.5 90.6,424.1 91.0,418.8 91.4,414.4 91.7,409.1 92.1,415.4 92.5,417.8 92.8,425.6 93.2,432.9 93.6,430.9 93.9,438.7 94.3,437.2 94.7,436.3 95.0,429.5 95.4,416.4 95.8,417.8 96.1,419.8 96.5,409.6 96.9,414.0 97.2,418.8 97.6,422.7 98.0,427.5 98.3,426.1 98.7,431.9 99.1,443.5 99.4,438.2 99.8,434.3 100.2,434.3 100.5,435.3 100.9,434.8 101.3,435.8 101.6,435.3 102.0,442.1 102.3,445.5 102.7,446.0 103.1,447.4 103.4,450.3 103.8,448.9 104.2,440.6 104.5,439.7 104.9,429.0 105.3,432.4 105.6,435.8 106.0,440.6 106.4,437.2 106.7,439.7 107.1,435.3 107.5,436.3 107.8,423.2 108.2,421.2 108.6,409.6 108.9,413.0 109.3,415.9 109.7,425.6 110.0,424.6 110.4,431.9 110.8,427.5 111.1,429.0 111.5,415.9 111.9,409.6 112.2,398.9 112.6,398.9 113.0,403.3 113.3,405.7 113.7,404.7 114.0,415.4 114.4,411.5 114.8,410.1 115.1,405.7 115.5,401.9 115.9,404.7 116.2,397.0 116.6,393.6 117.0,401.3 117.3,408.6 117.7,414.0 118.1,408.1 118.4,396.0 118.8,408.6 119.2,411.1 119.5,410.6 119.9,404.7 120.3,404.3 120.6,417.4 121.0,420.8 121.4,415.4 121.7,410.6 122.1,412.0 122.5,410.1 122.8,413.0 123.2,410.6 123.6,418.3 123.9,415.4 124.3,419.3 124.7,417.8 125.0,417.4 125.4,407.7 125.7,406.2 126.1,399.9 126.5,393.6 126.8,392.1 127.2,402.8 127.6,400.9 127.9,398.5 128.3,381.5 128.7,389.2 129.0,400.4 129.4,398.0 129.8,386.8 130.1,394.1 130.5,404.3 130.9,412.0 131.2,404.7 131.6,406.7 132.0,416.9 132.3,424.6 132.7,408.1 133.1,401.9 133.4,402.8 133.8,404.3 134.2,398.0 134.5,389.7 134.9,381.5 135.3,399.9 135.6,390.2 136.0,380.5 136.4,371.8 136.7,366.9 137.1,367.9 137.4,368.4 137.8,358.2 138.2,363.5 138.5,374.7 138.9,371.8 139.3,369.9 139.6,366.9 140.0,360.1 140.4,363.5 140.7,368.4 141.1,371.3 141.5,386.3 141.8,392.6 142.2,387.8 142.6,399.9 142.9,403.3 143.3,405.2 143.7,399.9 144.0,396.0 144.4,397.5 144.8,407.2 145.1,408.1 145.5,401.3 145.9,400.4 146.2,400.9 146.6,400.4 147.0,403.3 147.3,401.9 147.7,397.0 148.1,402.3 148.4,405.2 148.8,414.9 149.1,414.9 149.5,407.2 149.9,405.7 150.2,411.1 150.6,413.0 151.0,410.6 151.3,396.5 151.7,389.7 152.1,388.8 152.4,394.1 152.8,380.5 153.2,377.1 153.5,378.6 153.9,381.5 154.3,394.1 154.6,402.3 155.0,398.5 155.4,398.5 155.7,398.5 156.1,403.8 156.5,408.6 156.8,396.5 157.2,393.1 157.6,394.1 157.9,400.4 158.3,398.9 158.7,388.8 159.0,386.8 159.4,393.6 159.8,388.3 160.1,382.4 160.5,385.4 160.8,388.3 161.2,397.5 161.6,400.9 161.9,398.9 162.3,401.9 162.7,402.3 163.0,395.1 163.4,396.0 163.8,389.7 164.1,389.2 164.5,390.7 164.9,399.4 165.2,409.1 165.6,408.6 166.0,409.6 166.3,408.6 166.7,404.7 167.1,411.1 167.4,409.1 167.8,402.3 168.2,409.6 168.5,408.1 168.9,418.3 169.3,423.2 169.6,421.7 170.0,427.1 170.4,434.8 170.7,431.4 171.1,421.7 171.5,413.0 171.8,409.6 172.2,405.2 172.5,404.7 172.9,407.2 173.3,410.1 173.6,425.1 174.0,432.4 174.4,437.2 174.7,439.2 175.1,431.9 175.5,423.2 175.8,429.5 176.2,424.6 176.6,420.8 176.9,413.5 177.3,402.8 177.7,393.6 178.0,398.0 178.4,400.9 178.8,396.5 179.1,399.9 179.5,402.8 179.9,411.5 180.2,424.1 180.6,421.7 181.0,412.5 181.3,420.3 181.7,427.1 182.1,428.0 182.4,419.8 182.8,419.8 183.2,419.8 183.5,426.1 183.9,430.5 184.2,421.7 184.6,430.0 185.0,440.6 185.3,443.1 185.7,443.1 186.1,439.7 186.4,436.7 186.8,440.6 187.2,435.3 187.5,441.1 187.9,446.0 188.3,454.7 188.6,458.6 189.0,466.8 189.4,473.1 189.7,476.5 190.1,474.6 190.5,471.7 190.8,469.7 191.2,471.7 191.6,466.8 191.9,461.5 192.3,459.0 192.7,457.1 193.0,451.8 193.4,446.9 193.8,445.0 194.1,447.4 194.5,445.0 194.9,443.1 195.2,446.9 195.6,451.3 195.9,461.0 196.3,462.9 196.7,455.6 197.0,462.0 197.4,466.3 197.8,471.2 198.1,466.3 198.5,455.2 198.9,446.4 199.2,443.1 199.6,442.1 200.0,438.2 200.3,429.0 200.7,429.5 201.1,427.5 201.4,432.9 201.8,444.0 202.2,437.7 202.5,442.6 202.9,442.6 203.3,441.6 203.6,451.8 204.0,462.0 204.4,456.6 204.7,456.6 205.1,447.9 205.5,438.7 205.8,439.7 206.2,431.9 206.6,416.4 206.9,411.1 207.3,413.0 207.6,411.5 208.0,429.5 208.4,433.3 208.7,433.9 209.1,433.3 209.5,437.7 209.8,442.6 210.2,452.2 210.6,445.0 210.9,451.8 211.3,450.8 211.7,454.2 212.0,453.2 212.4,447.4 212.8,447.9 213.1,447.9 213.5,441.1 213.9,436.7 214.2,436.3 214.6,430.5 215.0,432.4 215.3,430.5 215.7,430.5 216.1,425.1 216.4,426.6 216.8,425.6 217.2,430.9 217.5,423.7 217.9,422.7 218.3,421.2 218.6,422.7 219.0,425.1 219.3,423.2 219.7,430.9 220.1,440.1 220.4,437.2 220.8,438.7 221.2,450.3 221.5,460.0 221.9,466.3 222.3,459.5 222.6,446.4 223.0,449.8 223.4,453.7 223.7,432.9 224.1,427.1 224.5,428.5 224.8,423.7 225.2,433.3 225.6,430.5 225.9,422.2 226.3,440.1 226.7,434.8 227.0,426.6 227.4,430.9 227.8,424.1 228.1,427.1 228.5,439.2 228.9,435.3 229.2,439.2 229.6,440.1 230.0,430.0 230.3,442.1 230.7,439.7 231.0,433.9 231.4,427.5 231.8,434.8 232.1,441.6 232.5,455.2 232.9,457.6 233.2,457.6 233.6,454.7 234.0,459.0 234.3,449.4 234.7,444.0 235.1,441.1 235.4,434.3 235.8,435.8 236.2,442.6 236.5,437.7 236.9,445.5 237.3,445.0 237.6,453.7 238.0,453.7 238.4,451.3 238.7,446.9 239.1,442.1 239.5,427.1 239.8,426.1 240.2,404.7 240.6,394.1 240.9,392.1 241.3,383.9 241.7,392.1 242.0,399.9 242.4,405.2 242.7,416.4 243.1,420.3 243.5,431.9 243.8,438.2 244.2,428.5 244.6,426.6 244.9,423.2 245.3,419.8 245.7,424.1 246.0,408.6 246.4,407.7 246.8,410.1 247.1,406.7 247.5,399.9 247.9,397.5 248.2,394.6 248.6,399.9 249.0,401.9 249.3,414.0 249.7,425.1 250.1,429.5 250.4,432.9 250.8,426.1 251.2,422.7 251.5,415.9 251.9,404.7 252.3,390.2 252.6,384.4 253.0,384.9 253.4,382.4 253.7,374.7 254.1,369.4 254.4,363.5 254.8,366.5 255.2,366.0 255.5,360.6 255.9,370.3 256.3,373.7 256.6,378.1 257.0,381.0 257.4,391.2 257.7,403.8 258.1,405.7 258.5,406.2 258.8,416.4 259.2,423.7 259.6,423.2 259.9,410.6 260.3,407.7 260.7,411.5 261.0,409.1 261.4,398.0 261.8,389.2 262.1,392.6 262.5,397.5 262.9,392.1 263.2,387.8 263.6,384.9 264.0,386.3 264.3,383.4 264.7,381.0 265.1,377.6 265.4,373.7 265.8,369.4 266.1,370.8 266.5,370.3 266.9,369.4 267.2,369.4 267.6,367.9 268.0,364.5 268.3,361.6 268.7,354.8 269.1,349.0 269.4,352.9 269.8,352.9 270.2,353.4 270.5,360.1 270.9,367.4 271.3,366.0 271.6,372.8 272.0,385.8 272.4,389.7 272.7,391.2 273.1,392.1 273.5,386.3 273.8,393.6 274.2,384.9 274.6,370.8 274.9,366.9 275.3,368.4 275.7,360.6 276.0,362.6 276.4,363.5 276.8,368.9 277.1,369.4 277.5,369.4 277.9,370.3 278.2,371.8 278.6,377.1 278.9,371.8 279.3,375.2 279.7,380.0 280.0,383.4 280.4,374.7 280.8,375.2 281.1,366.5 281.5,371.3 281.9,366.9 282.2,363.5 282.6,354.8 283.0,364.5 283.3,366.9 283.7,371.3 284.1,363.5 284.4,367.4 284.8,366.0 285.2,378.1 285.5,372.3 285.9,368.4 286.3,377.1 286.6,383.9 287.0,383.9 287.4,379.1 287.7,373.2 288.1,372.8 288.5,373.2 288.8,359.7 289.2,359.7 289.6,356.3 289.9,362.1 290.3,364.5 290.6,367.9 291.0,376.2 291.4,379.6 291.7,382.0 292.1,384.4 292.5,384.4 292.8,383.9 293.2,389.7 293.6,389.2 293.9,393.6 294.3,393.1 294.7,392.6 295.0,393.1 295.4,392.6 295.8,382.4 296.1,378.1 296.5,381.0 296.9,371.8 297.2,371.8 297.6,371.8 298.0,374.7 298.3,373.2 298.7,369.9 299.1,359.7 299.4,371.8 299.8,378.6 300.2,379.1 300.5,370.3 300.9,377.1 301.3,384.9 301.6,384.9 302.0,376.2 302.3,373.7 302.7,371.8 303.1,370.8 303.4,374.2 303.8,373.7 304.2,370.8 304.5,378.6 304.9,379.6 305.3,379.6 305.6,388.3 306.0,379.6 306.4,366.9 306.7,375.2 307.1,378.1 307.5,363.1 307.8,357.2 308.2,347.1 308.6,355.8 308.9,364.5 309.3,374.7 309.7,372.3 310.0,389.7 310.4,399.9 310.8,399.4 311.1,397.0 311.5,399.4 311.9,384.9 312.2,387.8 312.6,389.2 313.0,390.2 313.3,407.2 313.7,405.7 314.0,408.1 314.4,414.0 314.8,409.1 315.1,400.4 315.5,403.3 315.9,396.0 316.2,393.6 316.6,391.7 317.0,396.0 317.3,392.1 317.7,392.6 318.1,386.3 318.4,382.0 318.8,397.5 319.2,398.9 319.5,405.2 319.9,411.5 320.3,410.6 320.6,404.7 321.0,408.1 321.4,402.8 321.7,409.1 322.1,408.6 322.5,417.8 322.8,425.6 323.2,439.7 323.6,450.8 323.9,452.2 324.3,455.6 324.7,463.4 325.0,467.3 325.4,476.5 325.7,471.7 326.1,467.8 326.5,462.9 326.8,451.8 327.2,440.1 327.6,429.0 327.9,421.2 328.3,414.0 328.7,406.7 329.0,400.9 329.4,402.3 329.8,406.2 330.1,411.1 330.5,417.4 330.9,430.0 331.2,438.2 331.6,445.0 332.0,457.1 332.3,456.1 332.7,449.4 333.1,448.4 333.4,457.6 333.8,466.8 334.2,472.6 334.5,468.3 334.9,470.7 335.3,476.5 335.6,471.7 336.0,460.5 336.4,449.8 336.7,450.8 337.1,438.2 337.4,436.3 337.8,434.3 338.2,432.9 338.5,432.9 338.9,433.9 339.3,426.6 339.6,434.8 340.0,425.6 340.4,427.1 340.7,424.1 341.1,420.3 341.5,413.0 341.8,416.4 342.2,416.9 342.6,425.1 342.9,421.2 343.3,428.0 343.7,431.4 344.0,435.3 344.4,429.5 344.8,423.7 345.1,417.8 345.5,414.0 345.9,401.9 346.2,388.8 346.6,382.4 347.0,389.7 347.3,397.5 347.7,406.2 348.1,407.2 348.4,413.5 348.8,415.9 349.1,414.0 349.5,403.3 349.9,399.4 350.2,392.1 350.6,392.6 351.0,396.5 351.3,399.4 351.7,398.0 352.1,400.4 352.4,396.5 352.8,394.6 353.2,395.5 353.5,391.2 353.9,394.6 354.3,401.3 354.6,393.1 355.0,392.1 355.4,383.4 355.7,370.3 356.1,371.3 356.5,367.9 356.8,366.5 357.2,373.7 357.6,378.6 357.9,394.1 358.3,411.5 358.7,411.5 359.0,420.3 359.4,419.8 359.8,425.6 360.1,426.6 360.5,432.4 360.8,426.6 361.2,423.2 361.6,415.9 361.9,413.0 362.3,410.6 362.7,412.0 363.0,408.6 363.4,418.3 363.8,416.9 364.1,425.1 364.5,424.1 364.9,422.2 365.2,422.7 365.6,414.9 366.0,403.8 366.3,402.8 366.7,414.9 367.1,429.0 367.4,426.1 367.8,425.1 368.2,433.9 368.5,436.3 368.9,446.4 369.3,420.8 369.6,417.8 370.0,424.6 370.4,417.4 370.7,407.2 371.1,399.9 371.5,387.3 371.8,384.4 372.2,369.9 372.5,361.6 372.9,352.4 373.3,341.2 373.6,340.8 374.0,353.8 374.4,351.0 374.7,356.8 375.1,347.1 375.5,354.3 375.8,362.6 376.2,371.3 376.6,366.5 376.9,382.0 377.3,389.7 377.7,396.0 378.0,394.1 378.4,393.6 378.8,390.7 379.1,390.2 379.5,380.5 379.9,367.9 380.2,366.5 380.6,364.5 381.0,362.1 381.3,364.5 381.7,363.1 382.1,367.4 382.4,377.6 382.8,394.6 383.2,410.1 383.5,408.6 383.9,394.6 384.2,392.6 384.6,398.5 385.0,390.2 385.3,376.6 385.7,359.7 386.1,363.5 386.4,378.6 386.8,373.2 387.2,364.5 387.5,357.2 387.9,353.4 388.3,361.6 388.6,372.8 389.0,368.4 389.4,372.3 389.7,372.8 390.1,383.4 390.5,387.3 390.8,379.1 391.2,361.1 391.6,357.2 391.9,360.6 392.3,369.4 392.7,365.5 393.0,369.9 393.4,379.1 393.8,386.8 394.1,385.4 394.5,378.1 394.9,362.1 395.2,354.3 395.6,356.8 395.9,351.0 396.3,351.4 396.7,350.4 397.0,353.4 397.4,362.1 397.8,375.2 398.1,367.9 398.5,372.8 398.9,374.7 399.2,385.4 399.6,388.8 400.0,383.9 400.3,375.2 400.7,363.5 401.1,359.7 401.4,352.4 401.8,337.4 402.2,327.7 402.5,328.7 402.9,329.1 403.3,334.0 403.6,335.4 404.0,338.8 404.4,346.6 404.7,350.0 405.1,350.4 405.5,351.4 405.8,351.9 406.2,350.0 406.6,349.5 406.9,348.5 407.3,352.9 407.6,359.7 408.0,363.5 408.4,369.4 408.7,371.3 409.1,366.9 409.5,365.5 409.8,367.9 410.2,364.0 410.6,374.7 410.9,379.1 411.3,377.6 411.7,381.0 412.0,378.1 412.4,374.2 412.8,377.6 413.1,365.5 413.5,357.7 413.9,363.5 414.2,364.0 414.6,368.9 415.0,368.4 415.3,355.8 415.7,359.2 416.1,365.0 416.4,355.8 416.8,352.9 417.2,351.0 417.5,351.0 417.9,352.4 418.3,347.1 418.6,343.2 419.0,346.6 419.3,354.3 419.7,361.6 420.1,363.1 420.4,375.7 420.8,383.0 421.2,392.1 421.5,391.7 421.9,385.4 422.3,385.8 422.6,391.2 423.0,394.1 423.4,394.6 423.7,388.8 424.1,384.9 424.5,388.3 424.8,389.7 425.2,391.2 425.6,385.8 425.9,378.1 426.3,374.7 426.7,380.5 427.0,376.2 427.4,366.5 427.8,355.8 428.1,353.8 428.5,360.6 428.9,367.4 429.2,367.9 429.6,375.2 430.0,382.0 430.3,388.3 430.7,383.0 431.0,374.7 431.4,374.2 431.8,379.1 432.1,374.7 432.5,371.3 432.9,367.4 433.2,368.9 433.6,373.7 434.0,370.3 434.3,365.0 434.7,362.6 435.1,360.6 435.4,365.5 435.8,368.4 436.2,368.9 436.5,367.4 436.9,371.8 437.3,369.4 437.6,375.7 438.0,370.8 438.4,367.9 438.7,364.0 439.1,379.1 439.5,380.0 439.8,386.8 440.2,381.5 440.6,383.0 440.9,381.0 441.3,385.4 441.7,360.1 442.0,345.6 442.4,343.2 442.7,361.1 443.1,370.8 443.5,379.6 443.8,371.8 444.2,374.2 444.6,386.3 444.9,389.2 445.3,365.5 445.7,357.7 446.0,352.9 446.4,361.6 446.8,377.1 447.1,379.1 447.5,374.7 447.9,383.0 448.2,393.6 448.6,398.9 449.0,405.2 449.3,414.0 449.7,414.0 450.1,414.9 450.4,405.7 450.8,390.7 451.2,390.2 451.5,383.4 451.9,371.8 452.3,377.1 452.6,394.1 453.0,419.3 453.4,428.0 453.7,422.2 454.1,413.5 454.4,418.8 454.8,410.6 455.2,391.7 455.5,375.2 455.9,362.6 456.3,360.6 456.6,376.6 457.0,369.9 457.4,364.5 457.7,361.6 458.1,361.1 458.5,365.5 458.8,369.4 459.2,367.9 459.6,371.3 459.9,376.2 460.3,398.0 460.7,400.4 461.0,407.2 461.4,402.8 461.8,397.5 462.1,385.8 462.5,386.3 462.9,372.3 463.2,373.7 463.6,364.5 464.0,377.6 464.3,376.2 464.7,380.0 465.1,383.9 465.4,386.3 465.8,388.8 466.1,395.5 466.5,383.9 466.9,394.6 467.2,406.2 467.6,395.5 468.0,386.3 468.3,379.1 468.7,383.4 469.1,389.7 469.4,385.4 469.8,380.0 470.2,382.0 470.5,388.8 470.9,391.7 471.3,387.8 471.6,393.1 472.0,388.3 472.4,385.4 472.7,395.1 473.1,390.7 473.5,387.3 473.8,384.9 474.2,379.6 474.6,382.0 474.9,387.3 475.3,383.9 475.7,379.1 476.0,376.6 476.4,377.6 476.8,376.6 477.1,367.4 477.5,360.6 477.9,360.6 478.2,367.9 478.6,372.3 478.9,366.0 479.3,363.1 479.7,367.9 480.0,370.8 480.4,375.7 480.8,380.0 481.1,380.0 481.5,381.0 481.9,377.1 482.2,369.4 482.6,374.7 483.0,364.5 483.3,356.8 483.7,356.3 484.1,357.2 484.4,358.2 484.8,356.3 485.2,343.7 485.5,339.3 485.9,341.2 486.3,341.2 486.6,341.7 487.0,339.8 487.4,346.6 487.7,343.7 488.1,342.7 488.5,342.7 488.8,339.3 489.2,334.5 489.6,336.4 489.9,336.9 490.3,344.2 490.6,349.5 491.0,340.8 491.4,334.9 491.7,345.1 492.1,341.2 492.5,343.7 492.8,334.5 493.2,329.6 493.6,333.5 493.9,347.1 494.3,345.6 494.7,348.5 495.0,342.7 495.4,348.5 495.8,353.8 496.1,354.3 496.5,348.0 496.9,349.5 497.2,354.8 497.6,365.0 498.0,372.8 498.3,371.8 498.7,363.5 499.1,356.3 499.4,347.6 499.8,336.4 500.2,333.5 500.5,337.4 500.9,338.8 501.3,347.6 501.6,347.6 502.0,344.2 502.3,343.2 502.7,349.0 503.1,341.2 503.4,331.5 503.8,329.1 504.2,340.8 504.5,353.4 504.9,370.3 505.3,352.4 505.6,340.3 506.0,355.3 506.4,351.0 506.7,336.9 507.1,327.2 507.5,305.9 507.8,303.9 508.2,313.1 508.6,308.8 508.9,325.3 509.3,333.0 509.7,332.1 510.0,344.2 510.4,348.5 510.8,343.2 511.1,340.3 511.5,326.7 511.9,325.7 512.2,327.7 512.6,323.3 513.0,330.1 513.3,330.6 513.7,320.9 514.0,328.1 514.4,327.2 514.8,315.1 515.1,312.2 515.5,309.2 515.9,311.7 516.2,319.4 516.6,317.0 517.0,316.0 517.3,323.8 517.7,332.5 518.1,325.7 518.4,319.9 518.8,315.6 519.2,313.6 519.5,314.6 519.9,326.7 520.3,343.2 520.6,366.9 521.0,390.2 521.4,396.0 521.7,402.8 522.1,410.1 522.5,404.3 522.8,381.5 523.2,363.5 523.6,357.7 523.9,358.2 524.3,354.8 524.7,344.2 525.0,349.5 525.4,354.8 525.7,354.8 526.1,340.3 526.5,335.9 526.8,328.7 527.2,327.2 527.6,317.5 527.9,312.6 528.3,305.4 528.7,308.8 529.0,318.0 529.4,321.4 529.8,321.4 530.1,328.1 530.5,342.7 530.9,352.4 531.2,363.5 531.6,355.8 532.0,356.3 532.3,371.8 532.7,368.9 533.1,367.9 533.4,366.9 533.8,365.5 534.2,370.3 534.5,368.9 534.9,359.7 535.3,364.5 535.6,360.6 536.0,365.5 536.4,367.9 536.7,366.9 537.1,365.5 537.4,355.3 537.8,349.0 538.2,345.1 538.5,332.5 538.9,326.7 539.3,334.0 539.6,334.9 540.0,337.4 540.4,335.9 540.7,334.9 541.1,343.2 541.5,349.5 541.8,343.7 542.2,357.2 542.6,363.1 542.9,371.3 543.3,371.3 543.7,357.2 544.0,334.9 544.4,332.5 544.8,320.9 545.1,332.5 545.5,331.1 545.9,335.4 546.2,354.8 546.6,365.5 547.0,366.9 547.3,387.3 547.7,386.8 548.1,378.6 548.4,370.3 548.8,369.4 549.1,376.2 549.5,370.3 549.9,351.9 550.2,343.2 550.6,347.6 551.0,347.6 551.3,340.3 551.7,333.5 552.1,341.7 552.4,337.9 552.8,338.3 553.2,347.1 553.5,342.7 553.9,348.0 554.3,343.2 554.6,335.4 555.0,338.3 555.4,334.9 555.7,320.4 556.1,334.5 556.5,333.0 556.8,332.1 557.2,328.7 557.6,329.6 557.9,332.1 558.3,335.4 558.7,333.0 559.0,332.5 559.4,340.3 559.8,351.0 560.1,353.8 560.5,365.0 560.8,369.4 561.2,360.1 561.6,353.8 561.9,344.6 562.3,334.5 562.7,325.3 563.0,306.8 563.4,308.3 563.8,320.9 564.1,335.4 564.5,358.7 564.9,376.6 565.2,378.1 565.6,387.8 566.0,378.1 566.3,370.8 566.7,368.9 567.1,345.6 567.4,334.5 567.8,345.1 568.2,353.8 568.5,361.6 568.9,373.2 569.3,363.5 569.6,376.2 570.0,386.3 570.4,376.2 570.7,363.1 571.1,364.0 571.5,357.7 571.8,358.2 572.2,361.6 572.5,350.4 572.9,353.8 573.3,355.8 573.6,351.0 574.0,340.8 574.4,342.7 574.7,339.3 575.1,338.8 575.5,339.3 575.8,341.7 576.2,345.6 576.6,352.9 576.9,353.8 577.3,349.0 577.7,344.6 578.0,340.3 578.4,336.4 578.8,346.1 579.1,343.2 579.5,346.6 579.9,344.2 580.2,344.6 580.6,342.7 581.0,342.7 581.3,336.4 581.7,340.8 582.1,330.1 582.4,323.8 582.8,323.3 583.2,339.8 583.5,344.6 583.9,338.8 584.2,331.1 584.6,341.7 585.0,358.2 585.3,371.8 585.7,367.4 586.1,366.0 586.4,374.7 586.8,393.6 587.2,400.4 587.5,394.6 587.9,391.2 588.3,396.0 588.6,404.3 589.0,402.8 589.4,396.0 589.7,377.6 590.1,377.1 590.5,393.1 590.8,383.4 591.2,383.4 591.6,388.8 591.9,394.6 592.3,410.1 592.7,420.8 593.0,415.4 593.4,415.4 593.8,405.7 594.1,397.0 594.5,383.9 594.9,386.3 595.2,381.5 595.6,370.3 595.9,374.2 596.3,380.0 596.7,391.7 597.0,394.6 597.4,396.0 597.8,405.7 598.1,409.1 598.5,412.0 598.9,413.5 599.2,403.8 599.6,409.1 600.0,399.4 600.3,391.2 600.7,385.8 601.1,377.6 601.4,383.0 601.8,389.7 602.2,384.9 602.5,379.1 602.9,375.7 603.3,386.8 603.6,398.5 604.0,394.1 604.4,396.0 604.7,395.1 605.1,409.1 605.5,420.3 605.8,421.2 606.2,418.8 606.6,413.5 606.9,406.7 607.3,407.2 607.6,404.7 608.0,399.9 608.4,387.8 608.7,387.3 609.1,389.7 609.5,391.7 609.8,401.9 610.2,404.3 610.6,407.2 610.9,410.6 611.3,420.3 611.7,423.2 612.0,421.2 612.4,411.1 612.8,406.7 613.1,398.5 613.5,398.9 613.9,383.0 614.2,380.0 614.6,381.5 615.0,374.7 615.3,372.3 615.7,372.3 616.1,368.9 616.4,373.7 616.8,375.2 617.2,371.8 617.5,377.1 617.9,383.0 618.3,380.0 618.6,379.1 619.0,383.0 619.3,381.0 619.7,375.7 620.1,378.1 620.4,376.2 620.8,386.8 621.2,398.5 621.5,386.3 621.9,377.1 622.3,388.3 622.6,399.4 623.0,382.4 623.4,369.4 623.7,364.0 624.1,375.7 624.5,382.4 624.8,380.5 625.2,357.2 625.6,373.2 625.9,364.5 626.3,358.7 626.7,343.7 627.0,342.2 627.4,338.8 627.8,349.5 628.1,349.5 628.5,365.5 628.9,374.7 629.2,376.6 629.6,375.2 630.0,364.5 630.3,358.7 630.7,353.4 631.0,347.6 631.4,327.2 631.8,328.7 632.1,331.5 632.5,335.9 632.9,345.6 633.2,350.4 633.6,354.8 634.0,364.5 634.3,366.0 634.7,368.9 635.1,381.0 635.4,387.8 635.8,394.1 636.2,406.2 636.5,414.0 636.9,418.8 637.3,424.6 637.6,426.1 638.0,423.2 638.4,412.5 638.7,390.7 639.1,382.4 639.5,383.9 639.8,382.4 640.2,381.0 640.6,374.2 640.9,368.9 641.3,379.6 641.7,379.1 642.0,366.0 642.4,357.7 642.7,348.5 643.1,343.7 643.5,346.1 643.8,340.8 644.2,346.1 644.6,358.2 644.9,361.6 645.3,362.1 645.7,360.6 646.0,345.1 646.4,344.2 646.8,331.1 647.1,328.1 647.5,323.3 647.9,321.4 648.2,330.1 648.6,351.4 649.0,354.8 649.3,360.6 649.7,364.5 650.1,366.5 650.4,370.3 650.8,367.4 651.2,371.3 651.5,373.7 651.9,374.2 652.3,367.4 652.6,363.5 653.0,361.6 653.4,356.3 653.7,340.3 654.1,332.1 654.4,329.1 654.8,328.7 655.2,334.5 655.5,347.1 655.9,351.0 656.3,355.3 656.6,348.5 657.0,341.2 657.4,352.4 657.7,348.5 658.1,337.4 658.5,336.4 658.8,341.2 659.2,349.5 659.6,362.1 659.9,360.6 660.3,359.7 660.7,357.2 661.0,351.9 661.4,351.0 661.8,358.7 662.1,377.1 662.5,367.4 662.9,362.6 663.2,363.5 663.6,369.4 664.0,370.3 664.3,357.2 664.7,338.8 665.1,339.8 665.4,359.7 665.8,373.7 666.1,383.0 666.5,384.4 666.9,391.7 667.2,390.2 667.6,389.7 668.0,378.1 668.3,366.5 668.7,353.4 669.1,351.4 669.4,356.8 669.8,348.0 670.2,354.8 670.5,355.3 670.9,353.8 671.3,352.4 671.6,347.6 672.0,345.1 672.4,352.9 672.7,344.2 673.1,344.6 673.5,346.6 673.8,334.9 674.2,343.7 674.6,337.9 674.9,349.0 675.3,354.3 675.7,344.6 676.0,335.9 676.4,362.6 676.8,351.0 677.1,346.6 677.5,333.5 677.9,333.0 678.2,338.8 678.6,347.1 678.9,349.5 679.3,346.1 679.7,347.6 680.0,354.3 680.4,355.8 680.8,353.8 681.1,357.2 681.5,354.3 681.9,374.7 682.2,387.3 682.6,401.9 683.0,399.4 683.3,388.8 683.7,378.1 684.1,366.9 684.4,355.8 684.8,345.1 685.2,336.4 685.5,339.3 685.9,357.2 686.3,360.6 686.6,367.4 687.0,365.5 687.4,360.6 687.7,340.8 688.1,331.1 688.5,321.4 688.8,328.7 689.2,320.9 689.6,324.3 689.9,328.7 690.3,334.5 690.6,336.9 691.0,346.1 691.4,334.5 691.7,342.2 692.1,360.1 692.5,367.9 692.8,373.7 693.2,381.0 693.6,372.8 693.9,370.3 694.3,369.9 694.7,362.6 695.0,373.7 695.4,390.7 695.8,386.8 696.1,392.6 696.5,395.5 696.9,381.5 697.2,365.5 697.6,343.7 698.0,328.1 698.3,333.5 698.7,337.9 699.1,351.0 699.4,352.4 699.8,344.2 700.2,354.3 700.5,359.2 700.9,360.6 701.3,349.0 701.6,335.9 702.0,338.8 702.3,354.3 702.7,359.2 703.1,359.7 703.4,358.7 703.8,367.9 704.2,375.7 704.5,374.2 704.9,375.2 705.3,358.2 705.6,353.4 706.0,343.7 706.4,348.5 706.7,345.6 707.1,354.8 707.5,344.2 707.8,340.8 708.2,342.2 708.6,337.9 708.9,325.3 709.3,334.0 709.7,334.5 710.0,351.0 710.4,366.0 710.8,363.5 711.1,370.8 711.5,380.0 711.9,378.1 712.2,386.8 712.6,381.5 713.0,374.7 713.3,375.7 713.7,389.2 714.0,388.3 714.4,384.4 714.8,376.2 715.1,384.9 715.5,398.0 715.9,408.6 716.2,412.0 716.6,398.9 717.0,393.6 717.3,385.4 717.7,380.0 718.1,375.7 718.4,383.9 718.8,378.1 719.2,404.7 719.5,422.2 719.9,434.8 720.3,440.1 720.6,438.7 721.0,410.1 721.4,395.1 721.7,371.8 722.1,351.4 722.5,350.4 722.8,351.9 723.2,357.2 723.6,369.4 723.9,390.2 724.3,403.8 724.7,415.9 725.0,418.3 725.4,423.2 725.7,421.2 726.1,427.1 726.5,418.3 726.8,423.2 727.2,424.1 727.6,421.7 727.9,412.5 728.3,421.2 728.7,427.1 729.0,419.3 729.4,408.6 729.8,400.9 730.1,394.6 730.5,389.7 730.9,391.7 731.2,388.3 731.6,394.1 732.0,398.5 732.3,400.9 732.7,410.6 733.1,418.3 733.4,407.2 733.8,413.5 734.2,423.2 734.5,428.0 734.9,437.2 735.3,430.0 735.6,431.4 736.0,440.1 736.4,421.7 736.7,416.4 737.1,408.6 737.4,405.7 737.8,404.7 738.2,392.1 738.5,391.7 738.9,405.2 739.3,403.8 739.6,406.7 740.0,400.9 740.4,407.7 740.7,413.5 741.1,400.4 741.5,390.2 741.8,390.7 742.2,392.1 742.6,400.4 742.9,400.4 743.3,395.5 743.7,398.0 744.0,400.4 744.4,394.6 744.8,379.6 745.1,367.9 745.5,362.6 745.9,368.9 746.2,375.7 746.6,372.3 747.0,374.7 747.3,388.3 747.7,391.7 748.1,387.3 748.4,392.1 748.8,383.9 749.1,389.7 749.5,395.5 749.9,401.3 750.2,408.1 750.6,411.1 751.0,403.3 751.3,411.5 751.7,415.9 752.1,417.8 752.4,412.5 752.8,418.3 753.2,420.3 753.5,418.8 753.9,418.8 754.3,410.1 754.6,401.9 755.0,399.4 755.4,392.1 755.7,392.1 756.1,390.2 756.5,380.0 756.8,388.8 757.2,395.1 757.6,400.9 757.9,402.8 758.3,405.7 758.7,417.4 759.0,431.4 759.4,421.7 759.8,421.7 760.1,417.4 760.5,414.0 760.8,412.0 761.2,408.6 761.6,402.8 761.9,410.6 762.3,398.5 762.7,389.2 763.0,387.3 763.4,395.5 763.8,393.1 764.1,383.9 764.5,383.4 764.9,395.1 765.2,396.5 765.6,383.9 766.0,375.7 766.3,378.1 766.7,376.6 767.1,354.3 767.4,336.4 767.8,336.4 768.2,349.0 768.5,345.1 768.9,336.9 769.3,336.9 769.6,349.0 770.0,355.3 770.4,357.2 770.7,355.3 771.1,352.9 771.5,351.4 771.8,346.6 772.2,346.1 772.5,338.3 772.9,336.4 773.3,337.9 773.6,340.8 774.0,344.2 774.4,357.2 774.7,351.4 775.1,365.0 775.5,361.1 775.8,353.4 776.2,345.1 776.6,337.9 776.9,341.7 777.3,342.7 777.7,333.5 778.0,339.3 778.4,346.6 778.8,359.2 779.1,364.5 779.5,362.6 779.9,362.1 780.2,361.6 780.6,358.7 781.0,344.6 781.3,338.8 781.7,346.6 782.1,340.8 782.4,339.3 782.8,351.0 783.2,359.2 783.5,359.7 783.9,362.1 784.2,361.1 784.6,363.1 785.0,365.5 785.3,354.3 785.7,344.6 786.1,347.1 786.4,350.0 786.8,338.3 787.2,340.8 787.5,348.5 787.9,352.4 788.3,343.7 788.6,349.5 789.0,335.9 789.4,332.5 789.7,322.3 790.1,330.6 790.5,328.7 790.8,349.5 791.2,344.6 791.6,350.0 791.9,349.5 792.3,356.3 792.7,347.6 793.0,341.2 793.4,325.7 793.8,322.3 794.1,319.4 794.5,334.0 794.9,331.5 795.2,334.0 795.6,329.6 795.9,331.1 796.3,333.0 796.7,342.2 797.0,342.7 797.4,348.5 797.8,347.1 798.1,369.4 798.5,371.8 798.9,383.9 799.2,388.3 799.6,388.8 800.0,381.0 800.3,371.8 800.7,359.7 801.1,358.7 801.4,361.1 801.8,344.2 802.2,341.7 802.5,344.6 802.9,347.6 803.3,350.4 803.6,350.0 804.0,341.2 804.4,345.1 804.7,327.2 805.1,320.4 805.5,330.6 805.8,333.5 806.2,348.5 806.6,358.2 806.9,356.3 807.3,356.8 807.6,361.6 808.0,350.0 808.4,338.3 808.7,321.9 809.1,300.5 809.5,301.5 809.8,305.9 810.2,302.0 810.6,302.5 810.9,303.9 811.3,302.9 811.7,306.3 812.0,304.9 812.4,324.3 812.8,330.1 813.1,333.0 813.5,337.4 813.9,350.4 814.2,365.0 814.6,378.1 815.0,363.1 815.3,365.0 815.7,364.5 816.1,368.9 816.4,357.2 816.8,350.4 817.2,338.3 817.5,343.2 817.9,342.7 818.3,351.0 818.6,349.0 819.0,358.7 819.3,367.4 819.7,385.4 820.1,383.0 820.4,380.0 820.8,379.6 821.2,378.6 821.5,368.9 821.9,370.3 822.3,369.9 822.6,387.3 823.0,399.9 823.4,401.3 823.7,413.5 824.1,430.9 824.5,434.8 824.8,431.4 825.2,422.2 825.6,418.8 825.9,410.1 826.3,398.5 826.7,380.0 827.0,366.5 827.4,365.0 827.8,357.7 828.1,352.4 828.5,353.4 828.9,361.1 829.2,367.4 829.6,367.4 830.0,357.7 830.3,357.2 830.7,351.0 831.0,355.3 831.4,363.5 831.8,366.5 832.1,362.1 832.5,361.6 832.9,362.1 833.2,367.9 833.6,364.5 834.0,366.0 834.3,366.0 834.7,380.5 835.1,387.8 835.4,386.8 835.8,385.8 836.2,386.3 836.5,376.6 836.9,380.0 837.3,375.2 837.6,383.0 838.0,390.7 838.4,398.9 838.7,407.2 839.1,407.7 839.5,414.4 839.8,419.8 840.2,410.6 840.6,401.9 840.9,394.6 841.3,392.6 841.7,401.3 842.0,390.2 842.4,380.5 842.7,387.8 843.1,398.0 843.5,400.9 843.8,399.9 844.2,396.5 844.6,402.8 844.9,411.1 845.3,407.2 845.7,402.8 846.0,402.8 846.4,394.6 846.8,383.9 847.1,381.5 847.5,382.4 847.9,386.8 848.2,394.6 848.6,386.8 849.0,397.0 849.3,398.0 849.7,401.3 850.1,403.3 850.4,402.3 850.8,407.7 851.2,414.0 851.5,411.5 851.9,412.5 852.3,410.1 852.6,409.1 853.0,401.3 853.4,390.2 853.7,399.4 854.1,400.4 854.4,404.7 854.8,400.9 855.2,393.6 855.5,406.7 855.9,410.1 856.3,408.6 856.6,416.9 857.0,423.7 857.4,427.1 857.7,437.7 858.1,435.3 858.5,441.6 858.8,439.7 859.2,431.9 859.6,433.3 859.9,441.1 860.3,443.5 860.7,446.0 861.0,441.6 861.4,438.2 861.8,446.0 862.1,443.1 862.5,438.7 862.9,444.0 863.2,441.1 863.6,446.4 864.0,458.6 864.3,458.1 864.7,464.4 865.1,471.7 865.4,464.4 865.8,464.9 866.1,454.7 866.5,450.3 866.9,449.8 867.2,442.6 867.6,434.3 868.0,433.3 868.3,442.1 868.7,446.4 869.1,436.7 869.4,434.8 869.8,436.3 870.2,443.5 870.5,446.9 870.9,442.1 871.3,445.5 871.6,453.2 872.0,449.8 872.4,446.4 872.7,449.8 873.1,447.9 873.5,438.2 873.8,442.6 874.2,439.2 874.6,437.7 874.9,437.7 875.3,435.3 875.7,432.9 876.0,440.1 876.4,430.9 876.8,428.5 877.1,424.1 877.5,414.9 877.9,408.6 878.2,409.6 878.6,409.1 878.9,406.2 879.3,404.7 879.7,407.7 880.0,418.8 880.4,416.9 880.8,412.5 881.1,408.6 881.5,409.6 881.9,414.9 882.2,411.1 882.6,398.0 883.0,398.9 883.3,400.4 883.7,396.0 884.1,394.1 884.4,390.2 884.8,399.9 885.2,408.6 885.5,405.7 885.9,400.4 886.3,403.8 886.6,410.1 887.0,418.3 887.4,416.9 887.7,413.5 888.1,411.5 888.5,408.6 888.8,398.5 889.2,383.0 889.6,371.8 889.9,368.4 890.3,375.2 890.6,382.0 891.0,395.1 891.4,399.9 891.7,407.2 892.1,411.5 892.5,409.6 892.8,414.4 893.2,414.4 893.6,409.6 893.9,424.1 894.3,430.9 894.7,431.4 895.0,436.7 895.4,432.4 895.8,423.7 896.1,420.3 896.5,407.7 896.9,387.3 897.2,377.6 897.6,369.4 898.0,368.4 898.3,373.2 898.7,382.0 899.1,383.0 899.4,399.9 899.8,412.0 900.2,412.5 900.5,399.4 900.9,400.9 901.3,389.2 901.6,390.2 902.0,383.9 902.3,373.7 902.7,380.5 903.1,390.7 903.4,390.2 903.8,396.5 904.2,405.7 904.5,416.4 904.9,411.1 905.3,388.8 905.6,372.3 906.0,368.4 906.4,354.3 906.7,343.7 907.1,335.4 907.5,334.0 907.8,351.0 908.2,358.7 908.6,353.8 908.9,352.4 909.3,342.2 909.7,337.9 910.0,341.2 910.4,338.3 910.8,336.9 911.1,340.8 911.5,362.1 911.9,363.5 912.2,379.1 912.6,402.3 913.0,414.4 913.3,420.8 913.7,413.5 914.0,392.1 914.4,397.0 914.8,386.3 915.1,375.2 915.5,349.0 915.9,344.2 916.2,354.3 916.6,367.9 917.0,373.2 917.3,364.5 917.7,351.0 918.1,370.3 918.4,375.2 918.8,364.5 919.2,354.8 919.5,357.7 919.9,381.0 920.3,385.8 920.6,385.8 921.0,382.4 921.4,379.1 921.7,377.6 922.1,364.0 922.5,351.9 922.8,353.4 923.2,345.1 923.6,342.7 923.9,356.3 924.3,356.3 924.7,361.6 925.0,353.4 925.4,352.9 925.7,355.8 926.1,362.1 926.5,361.1 926.8,368.4 927.2,367.4 927.6,359.7 927.9,347.1 928.3,343.7 928.7,337.9 929.0,337.4 929.4,335.4 929.8,326.2 930.1,335.9 930.5,349.0 930.9,356.3 931.2,356.3 931.6,355.8 932.0,359.7 932.3,374.2 932.7,376.6 933.1,383.4 933.4,382.0 933.8,379.6 934.2,393.6 934.5,395.1 934.9,389.7 935.3,389.7 935.6,385.4 936.0,388.8 936.4,399.9 936.7,392.6 937.1,396.0 937.4,406.2 937.8,414.0 938.2,415.4 938.5,417.8 938.9,407.7 939.3,399.9 939.6,397.0 940.0,394.1 940.4,395.5 940.7,388.3 941.1,384.9 941.5,397.0 941.8,408.1 942.2,408.6 942.6,397.5 942.9,389.2 943.3,397.0 943.7,389.2 944.0,385.8 944.4,373.2 944.8,363.1 945.1,361.6 945.5,361.6 945.9,358.2 946.2,359.7 946.6,347.1 947.0,351.9 947.3,366.5 947.7,369.4 948.1,369.4 948.4,369.4 948.8,371.8 949.1,377.6 949.5,369.9 949.9,356.3 950.2,360.6 950.6,355.3 951.0,359.7 951.3,356.3 951.7,363.5 952.1,383.0 952.4,393.1 952.8,403.8 953.2,416.4 953.5,414.9 953.9,425.6 954.3,435.8 954.6,425.1 955.0,409.6 955.4,402.8 955.7,396.5 956.1,400.4 956.5,400.4 956.8,394.1 957.2,393.6 957.6,401.9 957.9,402.8 958.3,406.2 958.7,386.8 959.0,376.2 959.4,363.1 959.8,367.4 960.1,377.1 960.5,378.1 960.8,372.8 961.2,380.5 961.6,381.5 961.9,389.2 962.3,378.6 962.7,371.8 963.0,371.8 963.4,385.4 963.8,376.2 964.1,381.0 964.5,376.6 964.9,378.6 965.2,380.0 965.6,377.1 966.0,374.2 966.3,395.1 966.7,401.9 967.1,416.4 967.4,428.0 967.8,429.5 968.2,420.8 968.5,409.6 968.9,413.0 969.3,405.7 969.6,396.5 970.0,399.9 970.4,392.6 970.7,398.0 971.1,413.0 971.5,415.9 971.8,418.8 972.2,411.5 972.5,398.9 972.9,394.6 973.3,390.2 973.6,368.9 974.0,346.6 974.4,326.7 974.7,322.8 975.1,333.5 975.5,359.2 975.8,378.6 976.2,398.9 976.6,421.7 976.9,453.2 977.3,475.1 977.7,470.7 978.0,443.5 978.4,438.7 978.8,441.6 979.1,442.1 979.5,429.5 979.9,425.1 980.2,428.5 980.6,443.1 981.0,433.9 981.3,419.8 981.7,398.9 982.1,390.7 982.4,390.7 982.8,383.4 983.2,370.8 983.5,370.8 983.9,377.1 984.2,384.4 984.6,390.7 985.0,389.7 985.3,407.2 985.7,423.2 986.1,433.9 986.4,430.5 986.8,433.3 987.2,425.1 987.5,418.8 987.9,404.7 988.3,394.1 988.6,392.1 989.0,395.5 989.4,395.5 989.7,408.6 990.1,424.1 990.5,429.5 990.8,443.5 991.2,439.7 991.6,433.3 991.9,438.7 992.3,443.1 992.7,438.7 993.0,440.1 993.4,435.3 993.8,442.1 994.1,451.8 994.5,456.1 994.9,459.5 995.2,456.6 995.6,451.8 995.9,455.2 996.3,456.6 996.7,456.6 997.0,453.7 997.4,445.5 997.8,447.9 998.1,448.4 998.5,438.2 998.9,436.3 999.2,435.8 999.6,439.2 1000.0,446.0 1000.3,442.1 1000.7,449.8 1001.1,458.1 1001.4,459.5 1001.8,457.1 1002.2,460.0 1002.5,463.4 1002.9,466.3 1003.3,464.4 1003.6,476.5 1004.0,475.5 1004.4,482.8 1004.7,476.0 1005.1,466.3 1005.5,472.6 1005.8,469.2 1006.2,455.2 1006.6,446.4 1006.9,440.1 1007.3,445.0 1007.6,453.2 1008.0,450.8 1008.4,450.8 1008.7,452.8 1009.1,452.2 1009.5,449.4 1009.8,438.2 1010.2,432.4 1010.6,427.1 1010.9,424.6 1011.3,426.6 1011.7,432.9 1012.0,434.3 1012.4,439.7 1012.8,446.0 1013.1,452.8 1013.5,455.6 1013.9,454.2 1014.2,457.1 1014.6,457.6 1015.0,459.5 1015.3,461.0 1015.7,449.8 1016.1,452.2 1016.4,453.2 1016.8,447.4 1017.2,442.6 1017.5,436.3 1017.9,424.1 1018.3,433.9 1018.6,424.1 1019.0,419.3 1019.3,431.4 1019.7,438.7 1020.1,440.1 1020.4,441.6 1020.8,436.3 1021.2,441.1 1021.5,439.2 1021.9,423.2 1022.3,423.7 1022.6,414.0 1023.0,402.8 1023.4,399.4 1023.7,398.9 1024.1,401.9 1024.5,403.8 1024.8,384.4 1025.2,383.9 1025.6,384.9 1025.9,366.9 1026.3,350.4 1026.7,355.8 1027.0,348.0 1027.4,357.7 1027.8,372.8 1028.1,388.3 1028.5,423.7 1028.9,458.1 1029.2,472.6 1029.6,504.6 1030.0,530.8 1030.3,547.8 1030.7,564.7 1031.0,569.6 1031.4,570.5 1031.8,571.0 1032.1,570.5 1032.5,571.0 1032.9,571.0 1033.2,571.0 1033.6,570.1 1034.0,570.1 1034.3,570.1 1034.7,570.5 1035.1,570.5 1035.4,569.6 1035.8,569.6 1036.2,570.5 1036.5,569.6 1036.9,569.6 1037.3,569.1 1037.6,569.1 1038.0,570.1 1038.4,569.6 1038.7,568.6 1039.1,567.1 1039.5,565.2 1039.8,564.2 1040.2,563.8 1040.6,561.3 1040.9,559.9 1041.3,558.4 1041.7,560.4 1042.0,561.3 1042.4,562.3 1042.7,560.4 1043.1,562.3 1043.5,562.3 1043.8,562.8 1044.2,561.3 1044.6,560.4 1044.9,557.4 1045.3,557.4 1045.7,553.1 1046.0,548.2 1046.4,547.8 1046.8,547.3 1047.1,548.2 1047.5,549.7 1047.9,551.2 1048.2,554.6 1048.6,560.4 1049.0,561.8 1049.3,564.2 1049.7,564.7 1050.1,565.2 1050.4,564.2 1050.8,563.8 1051.2,562.3 1051.5,562.8 1051.9,562.8 1052.3,563.8 1052.6,565.2 1053.0,566.7 1053.4,568.1 1053.7,569.6 1054.1,568.6 1054.4,566.7 1054.8,566.2 1055.2,565.2 1055.5,563.8 1055.9,563.3 1056.3,563.3 1056.6,563.8 1057.0,565.2 1057.4,564.2 1057.7,562.8 1058.1,563.8 1058.5,564.7 1058.8,565.2 1059.2,565.2 1059.6,565.7 1059.9,566.2 1060.3,567.6 1060.7,568.6 1061.0,568.6 1061.4,568.6 1061.8,569.6 1062.1,568.6 1062.5,567.6 1062.9,566.7 1063.2,565.7 1063.6,565.7 1064.0,566.2 1064.3,565.7 1064.7,565.7 1065.1,566.7 1065.4,568.1 1065.8,568.1 1066.1,567.6 1066.5,567.6 1066.9,568.1 1067.2,568.6 1067.6,568.6 1068.0,568.6 1068.3,564.2 1068.7,562.3 1069.1,556.5 1069.4,556.0 1069.8,552.1 1070.2,550.7 1070.5,541.0 1070.9,535.1 1071.3,527.9 1071.6,528.9 1072.0,523.5" fill="none" stroke="#b45309" stroke-width="3"/>
    <rect x="786" y="98" width="286" height="78" fill="#ffffff" stroke="#d1d5db"/>
    <line x1="806" y1="124" x2="850" y2="124" stroke="#0f766e" stroke-width="4"/>
    <text x="862" y="129" font-size="16" fill="#111827">Total transits, 7-day avg</text>
    <line x1="806" y1="154" x2="850" y2="154" stroke="#b45309" stroke-width="4"/>
    <text x="862" y="159" font-size="16" fill="#111827">Tanker transits, 7-day avg</text>
    <text x="72" y="636" font-size="16" font-weight="700" fill="#111827">Known</text>
    <text x="132" y="636" font-size="16" fill="#374151">Daily transit calls by broad vessel class through IMF PortWatch's Hormuz chokepoint boundary.</text>
    <text x="72" y="664" font-size="16" font-weight="700" fill="#111827">Unknown</text>
    <text x="152" y="664" font-size="16" fill="#374151">Vessel identity, direction, AIS-dark movements, and actual cargo onboard.</text>
    <text x="72" y="704" font-size="14" fill="#6b7280">Source: IMF PortWatch Daily_Chokepoints_Data, chokepoint6; calculations by project. Capacity fields are metric-ton estimates, not barrels.</text>
  </g>
</svg>
