<svg xmlns="http://www.w3.org/2000/svg" width="1400" height="760" viewBox="0 0 1400 760">
<rect width="100%" height="100%" fill="#ffffff"/>
<style>text{font-family:Arial,Helvetica,sans-serif;fill:#111827}.title{font-size:28px;font-weight:700}.sub{font-size:16px;fill:#4b5563}.label{font-size:14px;font-weight:700}.small{font-size:12px;fill:#4b5563}.note{font-size:12px;fill:#6b7280}</style>
<text x="72" y="42" class="title">2024 Hormuz Oil Flow Baseline</text>
<text x="72" y="68" class="sub">Crude oil and condensate moving through Hormuz, by origin and destination market</text>
<text x="72" y="96" class="small">Exporter totals</text>
<text x="699.0" y="96" class="small" text-anchor="middle">Strait of Hormuz</text>
<text x="1328" y="96" class="small" text-anchor="end">Destination totals</text>
<path d="M 228.0 203.0 C 482.1 203.0, 435.9 237.2, 690.0 237.2" stroke="#0f766e" stroke-width="46.0" fill="none" opacity="0.34" stroke-linecap="round"/>
<path d="M 228.0 325.7 C 482.1 325.7, 435.9 347.9, 690.0 347.9" stroke="#2563eb" stroke-width="15.9" fill="none" opacity="0.34" stroke-linecap="round"/>
<path d="M 228.0 414.2 C 482.1 414.2, 435.9 424.7, 690.0 424.7" stroke="#b45309" stroke-width="27.1" fill="none" opacity="0.34" stroke-linecap="round"/>
<path d="M 228.0 494.1 C 482.1 494.1, 435.9 493.0, 690.0 493.0" stroke="#7c3aed" stroke-width="11.1" fill="none" opacity="0.34" stroke-linecap="round"/>
<path d="M 228.0 535.0 C 482.1 535.0, 435.9 522.6, 690.0 522.6" stroke="#dc2626" stroke-width="5.5" fill="none" opacity="0.34" stroke-linecap="round"/>
<path d="M 228.0 577.1 C 482.1 577.1, 435.9 553.4, 690.0 553.4" stroke="#15803d" stroke-width="11.8" fill="none" opacity="0.34" stroke-linecap="round"/>
<path d="M 228.0 614.7 C 482.1 614.7, 435.9 579.7, 690.0 579.7" stroke="#6b7280" stroke-width="3.0" fill="none" opacity="0.34" stroke-linecap="round"/>
<path d="M 708.0 226.8 C 874.1 226.8, 843.9 192.8, 1010.0 192.8" stroke="#7c3aed" stroke-width="40.2" fill="none" opacity="0.34" stroke-linecap="round"/>
<path d="M 708.0 327.0 C 874.1 327.0, 843.9 302.4, 1010.0 302.4" stroke="#dc2626" stroke-width="15.8" fill="none" opacity="0.34" stroke-linecap="round"/>
<path d="M 708.0 381.2 C 874.1 381.2, 843.9 365.4, 1010.0 365.4" stroke="#15803d" stroke-width="14.5" fill="none" opacity="0.34" stroke-linecap="round"/>
<path d="M 708.0 429.9 C 874.1 429.9, 843.9 422.7, 1010.0 422.7" stroke="#6b7280" stroke-width="12.7" fill="none" opacity="0.34" stroke-linecap="round"/>
<path d="M 708.0 483.8 C 874.1 483.8, 843.9 485.4, 1010.0 485.4" stroke="#0891b2" stroke-width="17.4" fill="none" opacity="0.34" stroke-linecap="round"/>
<path d="M 708.0 525.7 C 874.1 525.7, 843.9 535.9, 1010.0 535.9" stroke="#9333ea" stroke-width="6.1" fill="none" opacity="0.34" stroke-linecap="round"/>
<path d="M 708.0 543.8 C 874.1 543.8, 843.9 562.2, 1010.0 562.2" stroke="#0f766e" stroke-width="4.1" fill="none" opacity="0.34" stroke-linecap="round"/>
<path d="M 708.0 554.5 C 874.1 554.5, 843.9 581.1, 1010.0 581.1" stroke="#2563eb" stroke-width="2.0" fill="none" opacity="0.34" stroke-linecap="round"/>
<path d="M 708.0 571.5 C 874.1 571.5, 843.9 606.3, 1010.0 606.3" stroke="#b45309" stroke-width="7.6" fill="none" opacity="0.34" stroke-linecap="round"/>
<rect x="210" y="120.0" width="18" height="166.0" rx="3" fill="#0f766e"/>
<text x="200" y="200.0" class="label" text-anchor="end">Saudi Arabia</text>
<text x="200" y="216.0" class="small" text-anchor="end">5.5 mb/d</text>
<rect x="210" y="297.0" width="18" height="57.3" rx="3" fill="#2563eb"/>
<text x="200" y="322.7" class="label" text-anchor="end">United Arab Emirates</text>
<text x="200" y="338.7" class="small" text-anchor="end">1.9 mb/d</text>
<rect x="210" y="365.3" width="18" height="97.7" rx="3" fill="#b45309"/>
<text x="200" y="411.2" class="label" text-anchor="end">Iraq</text>
<text x="200" y="427.2" class="small" text-anchor="end">3.2 mb/d</text>
<rect x="210" y="474.0" width="18" height="40.2" rx="3" fill="#7c3aed"/>
<text x="200" y="491.1" class="label" text-anchor="end">Kuwait</text>
<text x="200" y="507.1" class="small" text-anchor="end">1.3 mb/d</text>
<rect x="210" y="525.2" width="18" height="19.7" rx="3" fill="#dc2626"/>
<text x="200" y="532.0" class="label" text-anchor="end">Qatar</text>
<text x="200" y="548.0" class="small" text-anchor="end">0.65 mb/d</text>
<rect x="210" y="555.9" width="18" height="42.4" rx="3" fill="#15803d"/>
<text x="200" y="574.1" class="label" text-anchor="end">Iran</text>
<text x="200" y="590.1" class="small" text-anchor="end">1.4 mb/d</text>
<rect x="210" y="609.3" width="18" height="10.7" rx="3" fill="#6b7280"/>
<text x="200" y="611.7" class="label" text-anchor="end">Other</text>
<text x="200" y="627.7" class="small" text-anchor="end">0.35 mb/d</text>
<rect x="690" y="155.0" width="18" height="430.0" rx="4" fill="#374151"/>
<text x="699.0" y="611.0" class="label" text-anchor="middle">Total 14.3 mb/d</text>
<rect x="1010" y="120.0" width="18" height="145.7" rx="3" fill="#7c3aed"/>
<text x="1038" y="189.8" class="label">China</text>
<text x="1038" y="205.8" class="small">4.8 mb/d</text>
<rect x="1010" y="273.7" width="18" height="57.4" rx="3" fill="#dc2626"/>
<text x="1038" y="299.4" class="label">India</text>
<text x="1038" y="315.4" class="small">1.9 mb/d</text>
<rect x="1010" y="339.1" width="18" height="52.6" rx="3" fill="#15803d"/>
<text x="1038" y="362.4" class="label">South Korea</text>
<text x="1038" y="378.4" class="small">1.7 mb/d</text>
<rect x="1010" y="399.7" width="18" height="46.1" rx="3" fill="#6b7280"/>
<text x="1038" y="419.7" class="label">Japan</text>
<text x="1038" y="435.7" class="small">1.5 mb/d</text>
<rect x="1010" y="453.8" width="18" height="63.1" rx="3" fill="#0891b2"/>
<text x="1038" y="482.4" class="label">Other Asia</text>
<text x="1038" y="498.4" class="small">2.1 mb/d</text>
<rect x="1010" y="524.9" width="18" height="21.9" rx="3" fill="#9333ea"/>
<text x="1038" y="532.9" class="label">Europe</text>
<text x="1038" y="548.9" class="small">0.72 mb/d</text>
<rect x="1010" y="554.8" width="18" height="14.7" rx="3" fill="#0f766e"/>
<text x="1038" y="559.2" class="label">United States</text>
<text x="1038" y="575.2" class="small">0.48 mb/d</text>
<rect x="1010" y="577.6" width="18" height="6.9" rx="3" fill="#2563eb"/>
<text x="1038" y="578.1" class="label">Saudi Arabia</text>
<text x="1038" y="594.1" class="small">0.23 mb/d</text>
<rect x="1010" y="592.5" width="18" height="27.5" rx="3" fill="#b45309"/>
<text x="1038" y="603.3" class="label">Other</text>
<text x="1038" y="619.3" class="small">0.90 mb/d</text>
<rect x="72" y="654" width="1256" height="1" fill="#e5e7eb"/>
<text x="72" y="682" class="note">Source: EIA Today in Energy figure data based on Vortexa; 2024 annual average; calculations by project. Caveats: see figures/README.md.</text>
<text x="72" y="704" class="note">Origin and destination totals are separate aggregates, not country-pair cargo matching. Rounding gap: 0.000 mb/d.</text>
<metadata>Figure generated by scripts/build_hormuz_baseline_sankeys.py; commodity=crude oil and condensate; source=https://www.eia.gov/todayinenergy/images/2025.06.16/fig3.xlsx; unit=mb/d; year=2024.</metadata>
</svg>
