<svg xmlns="http://www.w3.org/2000/svg" width="1440" height="980" viewBox="0 0 1440 980">
<rect width="100%" height="100%" fill="#f6f7f9"/>
<rect x="24" y="24" width="1392" height="932" rx="8" fill="#ffffff" stroke="#dfe4ec"/>
<defs>
<pattern id="productHatch" patternUnits="userSpaceOnUse" width="8" height="8" patternTransform="rotate(45)">
<line x1="0" y1="0" x2="0" y2="8" stroke="#172033" stroke-opacity="0.48" stroke-width="2"/>
</pattern>
</defs>
<style>text{font-family:Inter,ui-sans-serif,system-ui,-apple-system,BlinkMacSystemFont,'Segoe UI',sans-serif;fill:#172033;letter-spacing:0}.title{font-size:30px;font-weight:760}.label{font-size:15px;font-weight:740}.small{font-size:13px;font-weight:560;fill:#5d687a}.total{font-size:14px;font-weight:720;fill:#172033}.note{font-size:13px;font-weight:560;fill:#5d687a}.subtitle{font-size:14px;font-weight:600;fill:#5d687a}</style>
<text x="72" y="64" class="title">Oil Flows through the Strait of Hormuz, 2024</text>
<text x="72" y="89" class="subtitle">Solid = crude/condensate; hatched = refined products/LPG</text>
<rect x="932" y="52" width="34" height="12" fill="#315c99" opacity="0.45"/>
<text x="976" y="63" class="small">crude/condensate</text>
<rect x="932" y="74" width="34" height="12" fill="#7c8798" opacity="0.24"/>
<rect x="932" y="74" width="34" height="12" fill="url(#productHatch)" opacity="0.58"/>
<text x="976" y="85" class="small">refined products/LPG</text>
<path d="M 272.0 122.0 C 511.8 122.0, 468.2 122.0, 708.0 122.0 L 708.0 323.7 C 468.2 323.7, 511.8 288.0, 272.0 288.0 Z" fill="#087f75" opacity="0.34"/>
<path d="M 272.0 288.0 C 511.8 288.0, 468.2 649.2, 708.0 649.2 L 708.0 697.0 C 468.2 697.0, 511.8 327.4, 272.0 327.4 Z" fill="#087f75" opacity="0.18"/>
<path d="M 272.0 288.0 C 511.8 288.0, 468.2 649.2, 708.0 649.2 L 708.0 697.0 C 468.2 697.0, 511.8 327.4, 272.0 327.4 Z" fill="url(#productHatch)" opacity="0.38"/>
<path d="M 272.0 349.4 C 511.8 349.4, 468.2 323.7, 708.0 323.7 L 708.0 393.3 C 468.2 393.3, 511.8 406.7, 272.0 406.7 Z" fill="#315c99" opacity="0.34"/>
<path d="M 272.0 406.7 C 511.8 406.7, 468.2 697.0, 708.0 697.0 L 708.0 752.3 C 468.2 752.3, 511.8 452.1, 272.0 452.1 Z" fill="#315c99" opacity="0.18"/>
<path d="M 272.0 406.7 C 511.8 406.7, 468.2 697.0, 708.0 697.0 L 708.0 752.3 C 468.2 752.3, 511.8 452.1, 272.0 452.1 Z" fill="url(#productHatch)" opacity="0.38"/>
<path d="M 272.0 474.1 C 511.8 474.1, 468.2 393.3, 708.0 393.3 L 708.0 512.0 C 468.2 512.0, 511.8 571.8, 272.0 571.8 Z" fill="#b56b12" opacity="0.34"/>
<path d="M 272.0 571.8 C 511.8 571.8, 468.2 752.3, 708.0 752.3 L 708.0 769.9 C 468.2 769.9, 511.8 586.3, 272.0 586.3 Z" fill="#b56b12" opacity="0.18"/>
<path d="M 272.0 571.8 C 511.8 571.8, 468.2 752.3, 708.0 752.3 L 708.0 769.9 C 468.2 769.9, 511.8 586.3, 272.0 586.3 Z" fill="url(#productHatch)" opacity="0.38"/>
<path d="M 272.0 608.3 C 511.8 608.3, 468.2 512.0, 708.0 512.0 L 708.0 560.8 C 468.2 560.8, 511.8 648.5, 272.0 648.5 Z" fill="#6d5bd0" opacity="0.34"/>
<path d="M 272.0 648.5 C 511.8 648.5, 468.2 769.9, 708.0 769.9 L 708.0 801.5 C 468.2 801.5, 511.8 674.5, 272.0 674.5 Z" fill="#6d5bd0" opacity="0.18"/>
<path d="M 272.0 648.5 C 511.8 648.5, 468.2 769.9, 708.0 769.9 L 708.0 801.5 C 468.2 801.5, 511.8 674.5, 272.0 674.5 Z" fill="url(#productHatch)" opacity="0.38"/>
<path d="M 272.0 696.5 C 511.8 696.5, 468.2 560.8, 708.0 560.8 L 708.0 584.7 C 468.2 584.7, 511.8 716.2, 272.0 716.2 Z" fill="#b42318" opacity="0.34"/>
<path d="M 272.0 716.2 C 511.8 716.2, 468.2 801.5, 708.0 801.5 L 708.0 831.2 C 468.2 831.2, 511.8 740.6, 272.0 740.6 Z" fill="#b42318" opacity="0.18"/>
<path d="M 272.0 716.2 C 511.8 716.2, 468.2 801.5, 708.0 801.5 L 708.0 831.2 C 468.2 831.2, 511.8 740.6, 272.0 740.6 Z" fill="url(#productHatch)" opacity="0.38"/>
<path d="M 272.0 762.6 C 511.8 762.6, 468.2 584.7, 708.0 584.7 L 708.0 636.2 C 468.2 636.2, 511.8 805.0, 272.0 805.0 Z" fill="#2f7d48" opacity="0.34"/>
<path d="M 272.0 805.0 C 511.8 805.0, 468.2 831.2, 708.0 831.2 L 708.0 868.0 C 468.2 868.0, 511.8 835.3, 272.0 835.3 Z" fill="#2f7d48" opacity="0.18"/>
<path d="M 272.0 805.0 C 511.8 805.0, 468.2 831.2, 708.0 831.2 L 708.0 868.0 C 468.2 868.0, 511.8 835.3, 272.0 835.3 Z" fill="url(#productHatch)" opacity="0.38"/>
<path d="M 272.0 857.3 C 511.8 857.3, 468.2 636.2, 708.0 636.2 L 708.0 649.2 C 468.2 649.2, 511.8 868.0, 272.0 868.0 Z" fill="#6b7280" opacity="0.34"/>
<path d="M 730.0 122.0 C 888.4 122.0, 859.6 122.0, 1018.0 122.0 L 1018.0 247.2 C 859.6 247.2, 888.4 298.2, 730.0 298.2 Z" fill="#6d5bd0" opacity="0.34"/>
<path d="M 730.0 298.2 C 888.4 298.2, 859.6 271.2, 1018.0 271.2 L 1018.0 320.5 C 859.6 320.5, 888.4 367.6, 730.0 367.6 Z" fill="#b42318" opacity="0.34"/>
<path d="M 730.0 367.6 C 888.4 367.6, 859.6 344.5, 1018.0 344.5 L 1018.0 389.6 C 859.6 389.6, 888.4 431.1, 730.0 431.1 Z" fill="#2f7d48" opacity="0.34"/>
<path d="M 730.0 431.1 C 888.4 431.1, 859.6 413.6, 1018.0 413.6 L 1018.0 453.3 C 859.6 453.3, 888.4 486.9, 730.0 486.9 Z" fill="#6b7280" opacity="0.34"/>
<path d="M 730.0 486.9 C 888.4 486.9, 859.6 477.3, 1018.0 477.3 L 1018.0 531.5 C 859.6 531.5, 888.4 563.2, 730.0 563.2 Z" fill="#2084a0" opacity="0.34"/>
<path d="M 730.0 563.2 C 888.4 563.2, 859.6 555.5, 1018.0 555.5 L 1018.0 574.3 C 859.6 574.3, 888.4 589.8, 730.0 589.8 Z" fill="#8c5a2b" opacity="0.34"/>
<path d="M 730.0 589.8 C 888.4 589.8, 859.6 598.3, 1018.0 598.3 L 1018.0 611.0 C 859.6 611.0, 888.4 607.6, 730.0 607.6 Z" fill="#087f75" opacity="0.34"/>
<path d="M 730.0 607.6 C 888.4 607.6, 859.6 635.0, 1018.0 635.0 L 1018.0 641.0 C 859.6 641.0, 888.4 616.0, 730.0 616.0 Z" fill="#315c99" opacity="0.34"/>
<path d="M 730.0 616.0 C 888.4 616.0, 859.6 665.0, 1018.0 665.0 L 1018.0 688.5 C 859.6 688.5, 888.4 649.2, 730.0 649.2 Z" fill="#b56b12" opacity="0.34"/>
<path d="M 730.0 649.2 C 888.4 649.2, 859.6 712.5, 1018.0 712.5 L 1018.0 868.0 C 859.6 868.0, 888.4 868.0, 730.0 868.0 Z" fill="#7c8798" opacity="0.18"/>
<path d="M 730.0 649.2 C 888.4 649.2, 859.6 712.5, 1018.0 712.5 L 1018.0 868.0 C 859.6 868.0, 888.4 868.0, 730.0 868.0 Z" fill="url(#productHatch)" opacity="0.40"/>
<rect x="250" y="122.0" width="22" height="166.0" fill="#087f75"/>
<rect x="250" y="288.0" width="22" height="39.4" fill="#087f75" opacity="0.45"/>
<rect x="250" y="288.0" width="22" height="39.4" fill="url(#productHatch)" opacity="0.70"/>
<text x="236" y="220.7" class="label" text-anchor="end">Saudi Arabia</text>
<text x="236" y="237.7" class="small" text-anchor="end">6.8 mb/d</text>
<rect x="250" y="349.4" width="22" height="57.3" fill="#315c99"/>
<rect x="250" y="406.7" width="22" height="45.5" fill="#315c99" opacity="0.45"/>
<rect x="250" y="406.7" width="22" height="45.5" fill="url(#productHatch)" opacity="0.70"/>
<text x="236" y="396.8" class="label" text-anchor="end">United Arab Emirates</text>
<text x="236" y="413.8" class="small" text-anchor="end">3.4 mb/d</text>
<rect x="250" y="474.1" width="22" height="97.7" fill="#b56b12"/>
<rect x="250" y="571.8" width="22" height="14.5" fill="#b56b12" opacity="0.45"/>
<rect x="250" y="571.8" width="22" height="14.5" fill="url(#productHatch)" opacity="0.70"/>
<text x="236" y="526.2" class="label" text-anchor="end">Iraq</text>
<text x="236" y="543.2" class="small" text-anchor="end">3.7 mb/d</text>
<rect x="250" y="608.3" width="22" height="40.2" fill="#6d5bd0"/>
<rect x="250" y="648.5" width="22" height="26.0" fill="#6d5bd0" opacity="0.45"/>
<rect x="250" y="648.5" width="22" height="26.0" fill="url(#productHatch)" opacity="0.70"/>
<text x="236" y="637.4" class="label" text-anchor="end">Kuwait</text>
<text x="236" y="654.4" class="small" text-anchor="end">2.2 mb/d</text>
<rect x="250" y="696.5" width="22" height="19.7" fill="#b42318"/>
<rect x="250" y="716.2" width="22" height="24.4" fill="#b42318" opacity="0.45"/>
<rect x="250" y="716.2" width="22" height="24.4" fill="url(#productHatch)" opacity="0.70"/>
<text x="236" y="714.6" class="label" text-anchor="end">Qatar</text>
<text x="236" y="731.6" class="small" text-anchor="end">1.5 mb/d</text>
<rect x="250" y="762.6" width="22" height="42.4" fill="#2f7d48"/>
<rect x="250" y="805.0" width="22" height="30.3" fill="#2f7d48" opacity="0.45"/>
<rect x="250" y="805.0" width="22" height="30.3" fill="url(#productHatch)" opacity="0.70"/>
<text x="236" y="795.0" class="label" text-anchor="end">Iran</text>
<text x="236" y="812.0" class="small" text-anchor="end">2.4 mb/d</text>
<rect x="250" y="857.3" width="22" height="10.7" fill="#6b7280"/>
<text x="236" y="858.7" class="label" text-anchor="end">Other</text>
<text x="236" y="875.7" class="small" text-anchor="end">0.35 mb/d</text>
<rect x="708" y="122.0" width="22" height="527.2" fill="#172033"/>
<rect x="708" y="649.2" width="22" height="218.8" fill="#7c8798"/>
<rect x="708" y="649.2" width="22" height="218.8" fill="url(#productHatch)" opacity="0.75"/>
<text x="719.0" y="896.0" class="total" text-anchor="middle">20.3 mb/d</text>
<rect x="1018" y="122.0" width="22" height="125.2" fill="#6d5bd0"/>
<text x="1054" y="180.6" class="label">China</text>
<text x="1054" y="197.6" class="small">4.8 mb/d</text>
<rect x="1018" y="271.2" width="22" height="49.3" fill="#b42318"/>
<text x="1054" y="291.8" class="label">India</text>
<text x="1054" y="308.8" class="small">1.9 mb/d</text>
<rect x="1018" y="344.5" width="22" height="45.2" fill="#2f7d48"/>
<text x="1054" y="363.1" class="label">South Korea</text>
<text x="1054" y="380.1" class="small">1.7 mb/d</text>
<rect x="1018" y="413.6" width="22" height="39.6" fill="#6b7280"/>
<text x="1054" y="429.5" class="label">Japan</text>
<text x="1054" y="446.5" class="small">1.5 mb/d</text>
<rect x="1018" y="477.3" width="22" height="54.2" fill="#2084a0"/>
<text x="1054" y="500.4" class="label">Other Asia</text>
<text x="1054" y="517.4" class="small">2.1 mb/d</text>
<rect x="1018" y="555.5" width="22" height="18.8" fill="#8c5a2b"/>
<text x="1054" y="560.9" class="label">Europe</text>
<text x="1054" y="577.9" class="small">0.72 mb/d</text>
<rect x="1018" y="598.3" width="22" height="12.7" fill="#087f75"/>
<text x="1054" y="600.7" class="label">United States</text>
<text x="1054" y="617.7" class="small">0.48 mb/d</text>
<rect x="1018" y="635.0" width="22" height="6.0" fill="#315c99"/>
<text x="1054" y="634.0" class="label">Saudi Arabia</text>
<text x="1054" y="651.0" class="small">0.23 mb/d</text>
<rect x="1018" y="665.0" width="22" height="23.6" fill="#b56b12"/>
<text x="1054" y="672.7" class="label">Other</text>
<text x="1054" y="689.7" class="small">0.90 mb/d</text>
<rect x="1018" y="712.5" width="22" height="155.5" fill="#7c8798" opacity="0.55"/>
<rect x="1018" y="712.5" width="22" height="155.5" fill="url(#productHatch)" opacity="0.70"/>
<text x="1054" y="786.3" class="label">Refined/LPG</text>
<text x="1054" y="803.3" class="small">destination split not public</text>
<text x="1054" y="820.3" class="small">5.9 mb/d</text>
<rect x="72" y="916" width="1296" height="1" fill="#d8dee8"/>
<text x="72" y="944" class="note">Sources: EIA/Vortexa fig1 and fig3; country product split uses project proxies from hormuz-kmz.1</text>
<metadata>Figure generated by scripts/build_hormuz_baseline_sankeys.py; commodity=oil and petroleum products; crude_source=https://www.eia.gov/todayinenergy/images/2025.06.16/fig3.xlsx; total_product_source=https://www.eia.gov/todayinenergy/images/2025.06.16/fig1.xlsx; unit=mb/d; year=2024. Product origin split is indicative and destination split is not public in EIA figure data.</metadata>
</svg>
