<svg xmlns="http://www.w3.org/2000/svg" width="1600" height="1080" viewBox="0 0 1600 1080">
<rect width="100%" height="100%" fill="#ffffff"/>
<style>text{font-family:Arial,Helvetica,sans-serif;fill:#202020}.title{font-size:30px;font-weight:700}.subtitle{font-size:16px;fill:#4a4a4a}.section{font-size:14px;font-weight:700;fill:#4a4a4a;text-transform:uppercase}.label{font-size:13px}.small{font-size:11px;fill:#555}.axis{font-size:11px;fill:#555}.note{font-size:11px;fill:#626262}.tiny{font-size:10px;fill:#666}</style>
<defs><pattern id="lowConfidenceHatch" patternUnits="userSpaceOnUse" width="6" height="6" patternTransform="rotate(45)"><line x1="0" y1="0" x2="0" y2="6" stroke="#ffffff" stroke-width="1.2"/></pattern></defs>
<text x="58.0" y="46.0" class="title">How Hormuz differs from earlier oil and shipping shocks</text>
<text x="58.0" y="76.0" class="subtitle">Rubric severity score from 4J7.4 ranking tables, 0-100. Scores combine exposure, persistence, buffers, route constraint, price response, and freight channels.</text>
<text x="58.0" y="101.0" class="subtitle">Route closures, sanctions rerouting, infrastructure outages, and current Hormuz exposure scenarios are separated below; the score is not a barrel-equivalent loss.</text>
<rect x="58.0" y="115.0" width="16" height="12" fill="#8b2f2f" opacity="0.78"/>
<text x="80.0" y="126.0" class="small">current exposure/scenario</text>
<rect x="263.0" y="115.0" width="16" height="12" fill="#2f6f73" opacity="0.78"/>
<text x="285.0" y="126.0" class="small">oil supply/allocation shock</text>
<rect x="468.0" y="115.0" width="16" height="12" fill="#7d5a1f" opacity="0.78"/>
<text x="490.0" y="126.0" class="small">route/logistics analogue</text>
<circle cx="681.0" cy="121.0" r="6" fill="#ffffff" stroke="#333" stroke-width="1.7"/>
<text x="695.0" y="126.0" class="small">hollow marker = low confidence/proxy</text>
<text x="58.0" y="138.0" class="section">Historical comparison rows</text>
<text x="378.0" y="138.0" class="section">Normalized severity score</text>
<text x="763.0" y="120.0" class="tiny" text-anchor="middle">Flow expo</text>
<text x="763.0" y="131.0" class="tiny" text-anchor="middle">sed/lost</text>
<text x="813.0" y="120.0" class="tiny" text-anchor="middle">Intensity</text>
<text x="863.0" y="120.0" class="tiny" text-anchor="middle">Route</text>
<text x="913.0" y="120.0" class="tiny" text-anchor="middle">Spare</text>
<text x="963.0" y="120.0" class="tiny" text-anchor="middle">Stocks</text>
<text x="1013.0" y="120.0" class="tiny" text-anchor="middle">Policy</text>
<text x="1063.0" y="120.0" class="tiny" text-anchor="middle">Price</text>
<text x="1113.0" y="120.0" class="tiny" text-anchor="middle">Freight</text>
<line x1="378.0" y1="154.0" x2="378.0" y2="782.0" stroke="#eeeeee"/>
<text x="378.0" y="149.0" class="axis" text-anchor="middle">0</text>
<line x1="458.0" y1="154.0" x2="458.0" y2="782.0" stroke="#eeeeee"/>
<text x="458.0" y="149.0" class="axis" text-anchor="middle">25</text>
<line x1="538.0" y1="154.0" x2="538.0" y2="782.0" stroke="#eeeeee"/>
<text x="538.0" y="149.0" class="axis" text-anchor="middle">50</text>
<line x1="618.0" y1="154.0" x2="618.0" y2="782.0" stroke="#eeeeee"/>
<text x="618.0" y="149.0" class="axis" text-anchor="middle">75</text>
<line x1="698.0" y1="154.0" x2="698.0" y2="782.0" stroke="#eeeeee"/>
<text x="698.0" y="149.0" class="axis" text-anchor="middle">100</text>
<text x="58.0" y="166.0" class="section">Current Hormuz exposure scenarios</text>
<line x1="378.0" y1="193.0" x2="698.0" y2="193.0" stroke="#e5e5e5" stroke-width="10" stroke-linecap="round"/>
<line x1="378.0" y1="193.0" x2="645.0" y2="193.0" stroke="#8b2f2f" stroke-width="10" stroke-linecap="round" opacity="0.82"/>
<circle cx="645.0" cy="193.0" r="7" fill="#ffffff" stroke="#8b2f2f" stroke-width="2"/>
<circle cx="645.0" cy="193.0" r="5" fill="url(#lowConfidenceHatch)" opacity="0.9"/>
<text x="58.0" y="196.0" class="label">Hormuz: shipping/insurance (low conf.)</text>
<text x="58.0" y="211.0" class="tiny">rank 3 | shipping/insurance | conf: low</text>
<text x="707.0" y="197.0" class="label">83.4</text>
<line x1="745.0" y1="191.5" x2="781.0" y2="191.5" stroke="#b7b7b7" stroke-width="1"/>
<text x="763.0" y="196.0" class="tiny" text-anchor="middle">n/a</text>
<line x1="795.0" y1="191.5" x2="831.0" y2="191.5" stroke="#b7b7b7" stroke-width="1"/>
<text x="813.0" y="196.0" class="tiny" text-anchor="middle">n/a</text>
<rect x="842.0" y="185.0" width="42.0" height="13.0" rx="2" fill="#eeeeee"/>
<rect x="842.0" y="185.0" width="36.8" height="13.0" rx="2" fill="#8b2f2f" opacity="0.55"/>
<text x="863.0" y="209.0" class="tiny" text-anchor="middle">3.5</text>
<rect x="892.0" y="185.0" width="42.0" height="13.0" rx="2" fill="#eeeeee"/>
<rect x="892.0" y="185.0" width="31.5" height="13.0" rx="2" fill="#8b2f2f" opacity="0.55"/>
<text x="913.0" y="209.0" class="tiny" text-anchor="middle">3</text>
<line x1="945.0" y1="191.5" x2="981.0" y2="191.5" stroke="#b7b7b7" stroke-width="1"/>
<text x="963.0" y="196.0" class="tiny" text-anchor="middle">n/a</text>
<rect x="992.0" y="185.0" width="42.0" height="13.0" rx="2" fill="#eeeeee"/>
<rect x="992.0" y="185.0" width="31.5" height="13.0" rx="2" fill="#8b2f2f" opacity="0.55"/>
<text x="1013.0" y="209.0" class="tiny" text-anchor="middle">3</text>
<line x1="1045.0" y1="191.5" x2="1081.0" y2="191.5" stroke="#b7b7b7" stroke-width="1"/>
<text x="1063.0" y="196.0" class="tiny" text-anchor="middle">n/a</text>
<rect x="1092.0" y="185.0" width="42.0" height="13.0" rx="2" fill="#eeeeee"/>
<rect x="1092.0" y="185.0" width="42.0" height="13.0" rx="2" fill="#8b2f2f" opacity="0.55"/>
<text x="1113.0" y="209.0" class="tiny" text-anchor="middle">4</text>
<line x1="378.0" y1="227.0" x2="698.0" y2="227.0" stroke="#e5e5e5" stroke-width="10" stroke-linecap="round"/>
<line x1="378.0" y1="227.0" x2="626.8" y2="227.0" stroke="#8b2f2f" stroke-width="10" stroke-linecap="round" opacity="0.82"/>
<circle cx="626.8" cy="227.0" r="7" fill="#8b2f2f" stroke="#8b2f2f" stroke-width="2"/>
<text x="58.0" y="230.0" class="label">Hormuz: oil/products aggregate</text>
<text x="58.0" y="245.0" class="tiny">rank 6 | oil/products aggregate | conf: medium_high</text>
<text x="707.0" y="231.0" class="label">77.8</text>
<rect x="742.0" y="219.0" width="42.0" height="13.0" rx="2" fill="#eeeeee"/>
<rect x="742.0" y="219.0" width="42.0" height="13.0" rx="2" fill="#8b2f2f" opacity="0.78"/>
<text x="763.0" y="243.0" class="tiny" text-anchor="middle">4</text>
<line x1="795.0" y1="225.5" x2="831.0" y2="225.5" stroke="#b7b7b7" stroke-width="1"/>
<text x="813.0" y="230.0" class="tiny" text-anchor="middle">n/a</text>
<rect x="842.0" y="219.0" width="42.0" height="13.0" rx="2" fill="#eeeeee"/>
<rect x="842.0" y="219.0" width="31.5" height="13.0" rx="2" fill="#8b2f2f" opacity="0.78"/>
<text x="863.0" y="243.0" class="tiny" text-anchor="middle">3</text>
<rect x="892.0" y="219.0" width="42.0" height="13.0" rx="2" fill="#eeeeee"/>
<rect x="892.0" y="219.0" width="31.5" height="13.0" rx="2" fill="#8b2f2f" opacity="0.78"/>
<text x="913.0" y="243.0" class="tiny" text-anchor="middle">3</text>
<rect x="942.0" y="219.0" width="42.0" height="13.0" rx="2" fill="#eeeeee"/>
<rect x="942.0" y="219.0" width="21.0" height="13.0" rx="2" fill="#8b2f2f" opacity="0.78"/>
<text x="963.0" y="243.0" class="tiny" text-anchor="middle">2</text>
<rect x="992.0" y="219.0" width="42.0" height="13.0" rx="2" fill="#eeeeee"/>
<rect x="992.0" y="219.0" width="21.0" height="13.0" rx="2" fill="#8b2f2f" opacity="0.78"/>
<text x="1013.0" y="243.0" class="tiny" text-anchor="middle">2</text>
<line x1="1045.0" y1="225.5" x2="1081.0" y2="225.5" stroke="#b7b7b7" stroke-width="1"/>
<text x="1063.0" y="230.0" class="tiny" text-anchor="middle">n/a</text>
<rect x="1092.0" y="219.0" width="42.0" height="13.0" rx="2" fill="#eeeeee"/>
<rect x="1092.0" y="219.0" width="42.0" height="13.0" rx="2" fill="#8b2f2f" opacity="0.78"/>
<text x="1113.0" y="243.0" class="tiny" text-anchor="middle">4</text>
<text x="58.0" y="270.0" class="section">Historical oil supply and allocation shocks</text>
<line x1="378.0" y1="297.0" x2="698.0" y2="297.0" stroke="#e5e5e5" stroke-width="10" stroke-linecap="round"/>
<line x1="378.0" y1="297.0" x2="640.4" y2="297.0" stroke="#2f6f73" stroke-width="10" stroke-linecap="round" opacity="0.82"/>
<circle cx="640.4" cy="297.0" r="7" fill="#2f6f73" stroke="#2f6f73" stroke-width="2"/>
<text x="58.0" y="300.0" class="label">1973-74 Arab oil embargo</text>
<text x="58.0" y="315.0" class="tiny">rank 4 | crude oil and petroleum products | conf: medium</text>
<text x="707.0" y="301.0" class="label">82</text>
<rect x="742.0" y="289.0" width="42.0" height="13.0" rx="2" fill="#eeeeee"/>
<rect x="742.0" y="289.0" width="31.5" height="13.0" rx="2" fill="#2f6f73" opacity="0.78"/>
<text x="763.0" y="313.0" class="tiny" text-anchor="middle">3</text>
<rect x="792.0" y="289.0" width="42.0" height="13.0" rx="2" fill="#eeeeee"/>
<rect x="792.0" y="289.0" width="42.0" height="13.0" rx="2" fill="#2f6f73" opacity="0.78"/>
<text x="813.0" y="313.0" class="tiny" text-anchor="middle">4</text>
<rect x="842.0" y="289.0" width="42.0" height="13.0" rx="2" fill="#eeeeee"/>
<rect x="842.0" y="289.0" width="21.0" height="13.0" rx="2" fill="#2f6f73" opacity="0.78"/>
<text x="863.0" y="313.0" class="tiny" text-anchor="middle">2</text>
<rect x="892.0" y="289.0" width="42.0" height="13.0" rx="2" fill="#eeeeee"/>
<rect x="892.0" y="289.0" width="42.0" height="13.0" rx="2" fill="#2f6f73" opacity="0.78"/>
<text x="913.0" y="313.0" class="tiny" text-anchor="middle">4</text>
<rect x="942.0" y="289.0" width="42.0" height="13.0" rx="2" fill="#eeeeee"/>
<rect x="942.0" y="289.0" width="42.0" height="13.0" rx="2" fill="#2f6f73" opacity="0.78"/>
<text x="963.0" y="313.0" class="tiny" text-anchor="middle">4</text>
<rect x="992.0" y="289.0" width="42.0" height="13.0" rx="2" fill="#eeeeee"/>
<rect x="992.0" y="289.0" width="36.8" height="13.0" rx="2" fill="#2f6f73" opacity="0.78"/>
<text x="1013.0" y="313.0" class="tiny" text-anchor="middle">3.5</text>
<rect x="1042.0" y="289.0" width="42.0" height="13.0" rx="2" fill="#eeeeee"/>
<rect x="1042.0" y="289.0" width="42.0" height="13.0" rx="2" fill="#2f6f73" opacity="0.78"/>
<text x="1063.0" y="313.0" class="tiny" text-anchor="middle">4</text>
<rect x="1092.0" y="289.0" width="42.0" height="13.0" rx="2" fill="#eeeeee"/>
<rect x="1092.0" y="289.0" width="10.5" height="13.0" rx="2" fill="#2f6f73" opacity="0.78"/>
<text x="1113.0" y="313.0" class="tiny" text-anchor="middle">1</text>
<line x1="378.0" y1="331.0" x2="698.0" y2="331.0" stroke="#e5e5e5" stroke-width="10" stroke-linecap="round"/>
<line x1="378.0" y1="331.0" x2="611.6" y2="331.0" stroke="#2f6f73" stroke-width="10" stroke-linecap="round" opacity="0.82"/>
<circle cx="611.6" cy="331.0" r="7" fill="#2f6f73" stroke="#2f6f73" stroke-width="2"/>
<text x="58.0" y="334.0" class="label">1978-79 Iranian Revolution</text>
<text x="58.0" y="349.0" class="tiny">rank 8 | crude oil | conf: medium</text>
<text x="707.0" y="335.0" class="label">73</text>
<rect x="742.0" y="323.0" width="42.0" height="13.0" rx="2" fill="#eeeeee"/>
<rect x="742.0" y="323.0" width="31.5" height="13.0" rx="2" fill="#2f6f73" opacity="0.78"/>
<text x="763.0" y="347.0" class="tiny" text-anchor="middle">3</text>
<rect x="792.0" y="323.0" width="42.0" height="13.0" rx="2" fill="#eeeeee"/>
<rect x="792.0" y="323.0" width="42.0" height="13.0" rx="2" fill="#2f6f73" opacity="0.78"/>
<text x="813.0" y="347.0" class="tiny" text-anchor="middle">4</text>
<rect x="842.0" y="323.0" width="42.0" height="13.0" rx="2" fill="#eeeeee"/>
<rect x="842.0" y="323.0" width="21.0" height="13.0" rx="2" fill="#2f6f73" opacity="0.78"/>
<text x="863.0" y="347.0" class="tiny" text-anchor="middle">2</text>
<rect x="892.0" y="323.0" width="42.0" height="13.0" rx="2" fill="#eeeeee"/>
<rect x="892.0" y="323.0" width="31.5" height="13.0" rx="2" fill="#2f6f73" opacity="0.78"/>
<text x="913.0" y="347.0" class="tiny" text-anchor="middle">3</text>
<rect x="942.0" y="323.0" width="42.0" height="13.0" rx="2" fill="#eeeeee"/>
<rect x="942.0" y="323.0" width="31.5" height="13.0" rx="2" fill="#2f6f73" opacity="0.78"/>
<text x="963.0" y="347.0" class="tiny" text-anchor="middle">3</text>
<rect x="992.0" y="323.0" width="42.0" height="13.0" rx="2" fill="#eeeeee"/>
<rect x="992.0" y="323.0" width="31.5" height="13.0" rx="2" fill="#2f6f73" opacity="0.78"/>
<text x="1013.0" y="347.0" class="tiny" text-anchor="middle">3</text>
<rect x="1042.0" y="323.0" width="42.0" height="13.0" rx="2" fill="#eeeeee"/>
<rect x="1042.0" y="323.0" width="31.5" height="13.0" rx="2" fill="#2f6f73" opacity="0.78"/>
<text x="1063.0" y="347.0" class="tiny" text-anchor="middle">3</text>
<rect x="1092.0" y="323.0" width="42.0" height="13.0" rx="2" fill="#eeeeee"/>
<rect x="1092.0" y="323.0" width="10.5" height="13.0" rx="2" fill="#2f6f73" opacity="0.78"/>
<text x="1113.0" y="347.0" class="tiny" text-anchor="middle">1</text>
<line x1="378.0" y1="365.0" x2="698.0" y2="365.0" stroke="#e5e5e5" stroke-width="10" stroke-linecap="round"/>
<line x1="378.0" y1="365.0" x2="598.4" y2="365.0" stroke="#2f6f73" stroke-width="10" stroke-linecap="round" opacity="0.82"/>
<circle cx="598.4" cy="365.0" r="7" fill="#2f6f73" stroke="#2f6f73" stroke-width="2"/>
<text x="58.0" y="368.0" class="label">1980 Iran-Iraq War outbreak</text>
<text x="58.0" y="383.0" class="tiny">rank 10 | crude oil | conf: medium</text>
<text x="707.0" y="369.0" class="label">68.9</text>
<rect x="742.0" y="357.0" width="42.0" height="13.0" rx="2" fill="#eeeeee"/>
<rect x="742.0" y="357.0" width="31.5" height="13.0" rx="2" fill="#2f6f73" opacity="0.78"/>
<text x="763.0" y="381.0" class="tiny" text-anchor="middle">3</text>
<rect x="792.0" y="357.0" width="42.0" height="13.0" rx="2" fill="#eeeeee"/>
<rect x="792.0" y="357.0" width="31.5" height="13.0" rx="2" fill="#2f6f73" opacity="0.78"/>
<text x="813.0" y="381.0" class="tiny" text-anchor="middle">3</text>
<rect x="842.0" y="357.0" width="42.0" height="13.0" rx="2" fill="#eeeeee"/>
<rect x="842.0" y="357.0" width="26.2" height="13.0" rx="2" fill="#2f6f73" opacity="0.78"/>
<text x="863.0" y="381.0" class="tiny" text-anchor="middle">2.5</text>
<rect x="892.0" y="357.0" width="42.0" height="13.0" rx="2" fill="#eeeeee"/>
<rect x="892.0" y="357.0" width="31.5" height="13.0" rx="2" fill="#2f6f73" opacity="0.78"/>
<text x="913.0" y="381.0" class="tiny" text-anchor="middle">3</text>
<rect x="942.0" y="357.0" width="42.0" height="13.0" rx="2" fill="#eeeeee"/>
<rect x="942.0" y="357.0" width="31.5" height="13.0" rx="2" fill="#2f6f73" opacity="0.78"/>
<text x="963.0" y="381.0" class="tiny" text-anchor="middle">3</text>
<rect x="992.0" y="357.0" width="42.0" height="13.0" rx="2" fill="#eeeeee"/>
<rect x="992.0" y="357.0" width="26.2" height="13.0" rx="2" fill="#2f6f73" opacity="0.78"/>
<text x="1013.0" y="381.0" class="tiny" text-anchor="middle">2.5</text>
<rect x="1042.0" y="357.0" width="42.0" height="13.0" rx="2" fill="#eeeeee"/>
<rect x="1042.0" y="357.0" width="21.0" height="13.0" rx="2" fill="#2f6f73" opacity="0.78"/>
<text x="1063.0" y="381.0" class="tiny" text-anchor="middle">2</text>
<rect x="1092.0" y="357.0" width="42.0" height="13.0" rx="2" fill="#eeeeee"/>
<rect x="1092.0" y="357.0" width="26.2" height="13.0" rx="2" fill="#2f6f73" opacity="0.78"/>
<text x="1113.0" y="381.0" class="tiny" text-anchor="middle">2.5</text>
<line x1="378.0" y1="399.0" x2="698.0" y2="399.0" stroke="#e5e5e5" stroke-width="10" stroke-linecap="round"/>
<line x1="378.0" y1="399.0" x2="592.4" y2="399.0" stroke="#2f6f73" stroke-width="10" stroke-linecap="round" opacity="0.82"/>
<circle cx="592.4" cy="399.0" r="7" fill="#2f6f73" stroke="#2f6f73" stroke-width="2"/>
<text x="58.0" y="402.0" class="label">1990 Iraq/Kuwait crisis and Gulf War</text>
<text x="58.0" y="417.0" class="tiny">rank 12 | crude oil | conf: high</text>
<text x="707.0" y="403.0" class="label">67</text>
<rect x="742.0" y="391.0" width="42.0" height="13.0" rx="2" fill="#eeeeee"/>
<rect x="742.0" y="391.0" width="31.5" height="13.0" rx="2" fill="#2f6f73" opacity="0.78"/>
<text x="763.0" y="415.0" class="tiny" text-anchor="middle">3</text>
<rect x="792.0" y="391.0" width="42.0" height="13.0" rx="2" fill="#eeeeee"/>
<rect x="792.0" y="391.0" width="42.0" height="13.0" rx="2" fill="#2f6f73" opacity="0.78"/>
<text x="813.0" y="415.0" class="tiny" text-anchor="middle">4</text>
<rect x="842.0" y="391.0" width="42.0" height="13.0" rx="2" fill="#eeeeee"/>
<rect x="842.0" y="391.0" width="21.0" height="13.0" rx="2" fill="#2f6f73" opacity="0.78"/>
<text x="863.0" y="415.0" class="tiny" text-anchor="middle">2</text>
<rect x="892.0" y="391.0" width="42.0" height="13.0" rx="2" fill="#eeeeee"/>
<rect x="892.0" y="391.0" width="21.0" height="13.0" rx="2" fill="#2f6f73" opacity="0.78"/>
<text x="913.0" y="415.0" class="tiny" text-anchor="middle">2</text>
<rect x="942.0" y="391.0" width="42.0" height="13.0" rx="2" fill="#eeeeee"/>
<rect x="942.0" y="391.0" width="15.8" height="13.0" rx="2" fill="#2f6f73" opacity="0.78"/>
<text x="963.0" y="415.0" class="tiny" text-anchor="middle">1.5</text>
<rect x="992.0" y="391.0" width="42.0" height="13.0" rx="2" fill="#eeeeee"/>
<rect x="992.0" y="391.0" width="10.5" height="13.0" rx="2" fill="#2f6f73" opacity="0.78"/>
<text x="1013.0" y="415.0" class="tiny" text-anchor="middle">1</text>
<rect x="1042.0" y="391.0" width="42.0" height="13.0" rx="2" fill="#eeeeee"/>
<rect x="1042.0" y="391.0" width="42.0" height="13.0" rx="2" fill="#2f6f73" opacity="0.78"/>
<text x="1063.0" y="415.0" class="tiny" text-anchor="middle">4</text>
<rect x="1092.0" y="391.0" width="42.0" height="13.0" rx="2" fill="#eeeeee"/>
<rect x="1092.0" y="391.0" width="21.0" height="13.0" rx="2" fill="#2f6f73" opacity="0.78"/>
<text x="1113.0" y="415.0" class="tiny" text-anchor="middle">2</text>
<line x1="378.0" y1="433.0" x2="698.0" y2="433.0" stroke="#e5e5e5" stroke-width="10" stroke-linecap="round"/>
<line x1="378.0" y1="433.0" x2="590.4" y2="433.0" stroke="#2f6f73" stroke-width="10" stroke-linecap="round" opacity="0.82"/>
<circle cx="590.4" cy="433.0" r="7" fill="#2f6f73" stroke="#2f6f73" stroke-width="2"/>
<text x="58.0" y="436.0" class="label">2022 Russia invasion, sanctions, and buy...</text>
<text x="58.0" y="451.0" class="tiny">rank 13 | crude oil and refined products | conf: medium</text>
<text x="707.0" y="437.0" class="label">66.4</text>
<rect x="742.0" y="425.0" width="42.0" height="13.0" rx="2" fill="#eeeeee"/>
<rect x="742.0" y="425.0" width="21.0" height="13.0" rx="2" fill="#2f6f73" opacity="0.78"/>
<text x="763.0" y="449.0" class="tiny" text-anchor="middle">2</text>
<rect x="792.0" y="425.0" width="42.0" height="13.0" rx="2" fill="#eeeeee"/>
<rect x="792.0" y="425.0" width="31.5" height="13.0" rx="2" fill="#2f6f73" opacity="0.78"/>
<text x="813.0" y="449.0" class="tiny" text-anchor="middle">3</text>
<rect x="842.0" y="425.0" width="42.0" height="13.0" rx="2" fill="#eeeeee"/>
<rect x="842.0" y="425.0" width="36.8" height="13.0" rx="2" fill="#2f6f73" opacity="0.78"/>
<text x="863.0" y="449.0" class="tiny" text-anchor="middle">3.5</text>
<rect x="892.0" y="425.0" width="42.0" height="13.0" rx="2" fill="#eeeeee"/>
<rect x="892.0" y="425.0" width="31.5" height="13.0" rx="2" fill="#2f6f73" opacity="0.78"/>
<text x="913.0" y="449.0" class="tiny" text-anchor="middle">3</text>
<rect x="942.0" y="425.0" width="42.0" height="13.0" rx="2" fill="#eeeeee"/>
<rect x="942.0" y="425.0" width="15.8" height="13.0" rx="2" fill="#2f6f73" opacity="0.78"/>
<text x="963.0" y="449.0" class="tiny" text-anchor="middle">1.5</text>
<rect x="992.0" y="425.0" width="42.0" height="13.0" rx="2" fill="#eeeeee"/>
<rect x="992.0" y="425.0" width="10.5" height="13.0" rx="2" fill="#2f6f73" opacity="0.78"/>
<text x="1013.0" y="449.0" class="tiny" text-anchor="middle">1</text>
<rect x="1042.0" y="425.0" width="42.0" height="13.0" rx="2" fill="#eeeeee"/>
<rect x="1042.0" y="425.0" width="31.5" height="13.0" rx="2" fill="#2f6f73" opacity="0.78"/>
<text x="1063.0" y="449.0" class="tiny" text-anchor="middle">3</text>
<rect x="1092.0" y="425.0" width="42.0" height="13.0" rx="2" fill="#eeeeee"/>
<rect x="1092.0" y="425.0" width="36.8" height="13.0" rx="2" fill="#2f6f73" opacity="0.78"/>
<text x="1113.0" y="449.0" class="tiny" text-anchor="middle">3.5</text>
<line x1="378.0" y1="467.0" x2="698.0" y2="467.0" stroke="#e5e5e5" stroke-width="10" stroke-linecap="round"/>
<line x1="378.0" y1="467.0" x2="558.4" y2="467.0" stroke="#2f6f73" stroke-width="10" stroke-linecap="round" opacity="0.82"/>
<circle cx="558.4" cy="467.0" r="7" fill="#2f6f73" stroke="#2f6f73" stroke-width="2"/>
<text x="58.0" y="470.0" class="label">2002-03 Venezuela oil strike</text>
<text x="58.0" y="485.0" class="tiny">rank 14 | crude oil and refined products | conf: medium</text>
<text x="707.0" y="471.0" class="label">56.4</text>
<rect x="742.0" y="459.0" width="42.0" height="13.0" rx="2" fill="#eeeeee"/>
<rect x="742.0" y="459.0" width="21.0" height="13.0" rx="2" fill="#2f6f73" opacity="0.78"/>
<text x="763.0" y="483.0" class="tiny" text-anchor="middle">2</text>
<rect x="792.0" y="459.0" width="42.0" height="13.0" rx="2" fill="#eeeeee"/>
<rect x="792.0" y="459.0" width="31.5" height="13.0" rx="2" fill="#2f6f73" opacity="0.78"/>
<text x="813.0" y="483.0" class="tiny" text-anchor="middle">3</text>
<rect x="842.0" y="459.0" width="42.0" height="13.0" rx="2" fill="#eeeeee"/>
<rect x="842.0" y="459.0" width="15.8" height="13.0" rx="2" fill="#2f6f73" opacity="0.78"/>
<text x="863.0" y="483.0" class="tiny" text-anchor="middle">1.5</text>
<rect x="892.0" y="459.0" width="42.0" height="13.0" rx="2" fill="#eeeeee"/>
<rect x="892.0" y="459.0" width="26.2" height="13.0" rx="2" fill="#2f6f73" opacity="0.78"/>
<text x="913.0" y="483.0" class="tiny" text-anchor="middle">2.5</text>
<rect x="942.0" y="459.0" width="42.0" height="13.0" rx="2" fill="#eeeeee"/>
<rect x="942.0" y="459.0" width="26.2" height="13.0" rx="2" fill="#2f6f73" opacity="0.78"/>
<text x="963.0" y="483.0" class="tiny" text-anchor="middle">2.5</text>
<rect x="992.0" y="459.0" width="42.0" height="13.0" rx="2" fill="#eeeeee"/>
<rect x="992.0" y="459.0" width="26.2" height="13.0" rx="2" fill="#2f6f73" opacity="0.78"/>
<text x="1013.0" y="483.0" class="tiny" text-anchor="middle">2.5</text>
<rect x="1042.0" y="459.0" width="42.0" height="13.0" rx="2" fill="#eeeeee"/>
<rect x="1042.0" y="459.0" width="21.0" height="13.0" rx="2" fill="#2f6f73" opacity="0.78"/>
<text x="1063.0" y="483.0" class="tiny" text-anchor="middle">2</text>
<rect x="1092.0" y="459.0" width="42.0" height="13.0" rx="2" fill="#eeeeee"/>
<rect x="1092.0" y="459.0" width="10.5" height="13.0" rx="2" fill="#2f6f73" opacity="0.78"/>
<text x="1113.0" y="483.0" class="tiny" text-anchor="middle">1</text>
<line x1="378.0" y1="501.0" x2="698.0" y2="501.0" stroke="#e5e5e5" stroke-width="10" stroke-linecap="round"/>
<line x1="378.0" y1="501.0" x2="551.2" y2="501.0" stroke="#2f6f73" stroke-width="10" stroke-linecap="round" opacity="0.82"/>
<circle cx="551.2" cy="501.0" r="7" fill="#2f6f73" stroke="#2f6f73" stroke-width="2"/>
<text x="58.0" y="504.0" class="label">2011 Libya civil war</text>
<text x="58.0" y="519.0" class="tiny">rank 15 | light sweet crude oil | conf: high</text>
<text x="707.0" y="505.0" class="label">54.1</text>
<rect x="742.0" y="493.0" width="42.0" height="13.0" rx="2" fill="#eeeeee"/>
<rect x="742.0" y="493.0" width="21.0" height="13.0" rx="2" fill="#2f6f73" opacity="0.78"/>
<text x="763.0" y="517.0" class="tiny" text-anchor="middle">2</text>
<rect x="792.0" y="493.0" width="42.0" height="13.0" rx="2" fill="#eeeeee"/>
<rect x="792.0" y="493.0" width="31.5" height="13.0" rx="2" fill="#2f6f73" opacity="0.78"/>
<text x="813.0" y="517.0" class="tiny" text-anchor="middle">3</text>
<rect x="842.0" y="493.0" width="42.0" height="13.0" rx="2" fill="#eeeeee"/>
<rect x="842.0" y="493.0" width="15.8" height="13.0" rx="2" fill="#2f6f73" opacity="0.78"/>
<text x="863.0" y="517.0" class="tiny" text-anchor="middle">1.5</text>
<rect x="892.0" y="493.0" width="42.0" height="13.0" rx="2" fill="#eeeeee"/>
<rect x="892.0" y="493.0" width="26.2" height="13.0" rx="2" fill="#2f6f73" opacity="0.78"/>
<text x="913.0" y="517.0" class="tiny" text-anchor="middle">2.5</text>
<rect x="942.0" y="493.0" width="42.0" height="13.0" rx="2" fill="#eeeeee"/>
<rect x="942.0" y="493.0" width="10.5" height="13.0" rx="2" fill="#2f6f73" opacity="0.78"/>
<text x="963.0" y="517.0" class="tiny" text-anchor="middle">1</text>
<rect x="992.0" y="493.0" width="42.0" height="13.0" rx="2" fill="#eeeeee"/>
<rect x="992.0" y="493.0" width="10.5" height="13.0" rx="2" fill="#2f6f73" opacity="0.78"/>
<text x="1013.0" y="517.0" class="tiny" text-anchor="middle">1</text>
<rect x="1042.0" y="493.0" width="42.0" height="13.0" rx="2" fill="#eeeeee"/>
<rect x="1042.0" y="493.0" width="31.5" height="13.0" rx="2" fill="#2f6f73" opacity="0.78"/>
<text x="1063.0" y="517.0" class="tiny" text-anchor="middle">3</text>
<rect x="1092.0" y="493.0" width="42.0" height="13.0" rx="2" fill="#eeeeee"/>
<rect x="1092.0" y="493.0" width="10.5" height="13.0" rx="2" fill="#2f6f73" opacity="0.78"/>
<text x="1113.0" y="517.0" class="tiny" text-anchor="middle">1</text>
<line x1="378.0" y1="535.0" x2="698.0" y2="535.0" stroke="#e5e5e5" stroke-width="10" stroke-linecap="round"/>
<line x1="378.0" y1="535.0" x2="536.4" y2="535.0" stroke="#2f6f73" stroke-width="10" stroke-linecap="round" opacity="0.82"/>
<circle cx="536.4" cy="535.0" r="7" fill="#2f6f73" stroke="#2f6f73" stroke-width="2"/>
<text x="58.0" y="538.0" class="label">2005 Hurricanes Katrina and Rita</text>
<text x="58.0" y="553.0" class="tiny">rank 16 | crude oil, refined products, and refining/logistics | conf: medium</text>
<text x="707.0" y="539.0" class="label">49.5</text>
<rect x="742.0" y="527.0" width="42.0" height="13.0" rx="2" fill="#eeeeee"/>
<rect x="742.0" y="527.0" width="21.0" height="13.0" rx="2" fill="#2f6f73" opacity="0.78"/>
<text x="763.0" y="551.0" class="tiny" text-anchor="middle">2</text>
<rect x="792.0" y="527.0" width="42.0" height="13.0" rx="2" fill="#eeeeee"/>
<rect x="792.0" y="527.0" width="21.0" height="13.0" rx="2" fill="#2f6f73" opacity="0.78"/>
<text x="813.0" y="551.0" class="tiny" text-anchor="middle">2</text>
<rect x="842.0" y="527.0" width="42.0" height="13.0" rx="2" fill="#eeeeee"/>
<rect x="842.0" y="527.0" width="21.0" height="13.0" rx="2" fill="#2f6f73" opacity="0.78"/>
<text x="863.0" y="551.0" class="tiny" text-anchor="middle">2</text>
<rect x="892.0" y="527.0" width="42.0" height="13.0" rx="2" fill="#eeeeee"/>
<rect x="892.0" y="527.0" width="26.2" height="13.0" rx="2" fill="#2f6f73" opacity="0.78"/>
<text x="913.0" y="551.0" class="tiny" text-anchor="middle">2.5</text>
<rect x="942.0" y="527.0" width="42.0" height="13.0" rx="2" fill="#eeeeee"/>
<rect x="942.0" y="527.0" width="15.8" height="13.0" rx="2" fill="#2f6f73" opacity="0.78"/>
<text x="963.0" y="551.0" class="tiny" text-anchor="middle">1.5</text>
<rect x="992.0" y="527.0" width="42.0" height="13.0" rx="2" fill="#eeeeee"/>
<rect x="992.0" y="527.0" width="10.5" height="13.0" rx="2" fill="#2f6f73" opacity="0.78"/>
<text x="1013.0" y="551.0" class="tiny" text-anchor="middle">1</text>
<rect x="1042.0" y="527.0" width="42.0" height="13.0" rx="2" fill="#eeeeee"/>
<rect x="1042.0" y="527.0" width="21.0" height="13.0" rx="2" fill="#2f6f73" opacity="0.78"/>
<text x="1063.0" y="551.0" class="tiny" text-anchor="middle">2</text>
<rect x="1092.0" y="527.0" width="42.0" height="13.0" rx="2" fill="#eeeeee"/>
<rect x="1092.0" y="527.0" width="15.8" height="13.0" rx="2" fill="#2f6f73" opacity="0.78"/>
<text x="1113.0" y="551.0" class="tiny" text-anchor="middle">1.5</text>
<line x1="378.0" y1="569.0" x2="698.0" y2="569.0" stroke="#e5e5e5" stroke-width="10" stroke-linecap="round"/>
<line x1="378.0" y1="569.0" x2="512.4" y2="569.0" stroke="#2f6f73" stroke-width="10" stroke-linecap="round" opacity="0.82"/>
<circle cx="512.4" cy="569.0" r="7" fill="#2f6f73" stroke="#2f6f73" stroke-width="2"/>
<text x="58.0" y="572.0" class="label">2019 Abqaiq-Khurais attack</text>
<text x="58.0" y="587.0" class="tiny">rank 17 | crude oil processing and production capacity | conf: high</text>
<text x="707.0" y="573.0" class="label">42</text>
<rect x="742.0" y="561.0" width="42.0" height="13.0" rx="2" fill="#eeeeee"/>
<rect x="742.0" y="561.0" width="31.5" height="13.0" rx="2" fill="#2f6f73" opacity="0.78"/>
<text x="763.0" y="585.0" class="tiny" text-anchor="middle">3</text>
<rect x="792.0" y="561.0" width="42.0" height="13.0" rx="2" fill="#eeeeee"/>
<rect x="792.0" y="561.0" width="21.0" height="13.0" rx="2" fill="#2f6f73" opacity="0.78"/>
<text x="813.0" y="585.0" class="tiny" text-anchor="middle">2</text>
<rect x="842.0" y="561.0" width="42.0" height="13.0" rx="2" fill="#eeeeee"/>
<rect x="842.0" y="561.0" width="10.5" height="13.0" rx="2" fill="#2f6f73" opacity="0.78"/>
<text x="863.0" y="585.0" class="tiny" text-anchor="middle">1</text>
<rect x="892.0" y="561.0" width="42.0" height="13.0" rx="2" fill="#eeeeee"/>
<rect x="892.0" y="561.0" width="10.5" height="13.0" rx="2" fill="#2f6f73" opacity="0.78"/>
<text x="913.0" y="585.0" class="tiny" text-anchor="middle">1</text>
<rect x="942.0" y="561.0" width="42.0" height="13.0" rx="2" fill="#eeeeee"/>
<rect x="942.0" y="561.0" width="10.5" height="13.0" rx="2" fill="#2f6f73" opacity="0.78"/>
<text x="963.0" y="585.0" class="tiny" text-anchor="middle">1</text>
<rect x="992.0" y="561.0" width="42.0" height="13.0" rx="2" fill="#eeeeee"/>
<rect x="992.0" y="561.0" width="21.0" height="13.0" rx="2" fill="#2f6f73" opacity="0.78"/>
<text x="1013.0" y="585.0" class="tiny" text-anchor="middle">2</text>
<rect x="1042.0" y="561.0" width="42.0" height="13.0" rx="2" fill="#eeeeee"/>
<rect x="1042.0" y="561.0" width="5.2" height="13.0" rx="2" fill="#2f6f73" opacity="0.78"/>
<text x="1063.0" y="585.0" class="tiny" text-anchor="middle">0.5</text>
<rect x="1092.0" y="561.0" width="42.0" height="13.0" rx="2" fill="#eeeeee"/>
<rect x="1092.0" y="561.0" width="10.5" height="13.0" rx="2" fill="#2f6f73" opacity="0.78"/>
<text x="1113.0" y="585.0" class="tiny" text-anchor="middle">1</text>
<text x="58.0" y="612.0" class="section">Route/logistics analogues</text>
<line x1="378.0" y1="639.0" x2="698.0" y2="639.0" stroke="#e5e5e5" stroke-width="10" stroke-linecap="round"/>
<line x1="378.0" y1="639.0" x2="664.2" y2="639.0" stroke="#7d5a1f" stroke-width="10" stroke-linecap="round" opacity="0.82"/>
<circle cx="664.2" cy="639.0" r="7" fill="#7d5a1f" stroke="#7d5a1f" stroke-width="2"/>
<text x="58.0" y="642.0" class="label">Red Sea and Bab el-Mandeb shipping disru...</text>
<text x="58.0" y="657.0" class="tiny">rank 1 | container shipping, tankers, Suez/Bab el-Mandeb trade | conf: high</text>
<text x="707.0" y="643.0" class="label">89.5</text>
<rect x="742.0" y="631.0" width="42.0" height="13.0" rx="2" fill="#eeeeee"/>
<rect x="742.0" y="631.0" width="42.0" height="13.0" rx="2" fill="#7d5a1f" opacity="0.78"/>
<text x="763.0" y="655.0" class="tiny" text-anchor="middle">4</text>
<rect x="792.0" y="631.0" width="42.0" height="13.0" rx="2" fill="#eeeeee"/>
<rect x="792.0" y="631.0" width="42.0" height="13.0" rx="2" fill="#7d5a1f" opacity="0.78"/>
<text x="813.0" y="655.0" class="tiny" text-anchor="middle">4</text>
<rect x="842.0" y="631.0" width="42.0" height="13.0" rx="2" fill="#eeeeee"/>
<rect x="842.0" y="631.0" width="31.5" height="13.0" rx="2" fill="#7d5a1f" opacity="0.78"/>
<text x="863.0" y="655.0" class="tiny" text-anchor="middle">3</text>
<rect x="892.0" y="631.0" width="42.0" height="13.0" rx="2" fill="#eeeeee"/>
<rect x="892.0" y="631.0" width="31.5" height="13.0" rx="2" fill="#7d5a1f" opacity="0.78"/>
<text x="913.0" y="655.0" class="tiny" text-anchor="middle">3</text>
<line x1="945.0" y1="637.5" x2="981.0" y2="637.5" stroke="#b7b7b7" stroke-width="1"/>
<text x="963.0" y="642.0" class="tiny" text-anchor="middle">n/a</text>
<line x1="995.0" y1="637.5" x2="1031.0" y2="637.5" stroke="#b7b7b7" stroke-width="1"/>
<text x="1013.0" y="642.0" class="tiny" text-anchor="middle">n/a</text>
<line x1="1045.0" y1="637.5" x2="1081.0" y2="637.5" stroke="#b7b7b7" stroke-width="1"/>
<text x="1063.0" y="642.0" class="tiny" text-anchor="middle">n/a</text>
<rect x="1092.0" y="631.0" width="42.0" height="13.0" rx="2" fill="#eeeeee"/>
<rect x="1092.0" y="631.0" width="42.0" height="13.0" rx="2" fill="#7d5a1f" opacity="0.78"/>
<text x="1113.0" y="655.0" class="tiny" text-anchor="middle">4</text>
<line x1="378.0" y1="673.0" x2="698.0" y2="673.0" stroke="#e5e5e5" stroke-width="10" stroke-linecap="round"/>
<line x1="378.0" y1="673.0" x2="651.2" y2="673.0" stroke="#7d5a1f" stroke-width="10" stroke-linecap="round" opacity="0.82"/>
<circle cx="651.2" cy="673.0" r="7" fill="#7d5a1f" stroke="#7d5a1f" stroke-width="2"/>
<text x="58.0" y="676.0" class="label">Tanker War Persian Gulf shipping attacks</text>
<text x="58.0" y="691.0" class="tiny">rank 2 | oil tanker traffic and war-risk logistics | conf: medium</text>
<text x="707.0" y="677.0" class="label">85.4</text>
<rect x="742.0" y="665.0" width="42.0" height="13.0" rx="2" fill="#eeeeee"/>
<rect x="742.0" y="665.0" width="21.0" height="13.0" rx="2" fill="#7d5a1f" opacity="0.78"/>
<text x="763.0" y="689.0" class="tiny" text-anchor="middle">2</text>
<rect x="792.0" y="665.0" width="42.0" height="13.0" rx="2" fill="#eeeeee"/>
<rect x="792.0" y="665.0" width="42.0" height="13.0" rx="2" fill="#7d5a1f" opacity="0.78"/>
<text x="813.0" y="689.0" class="tiny" text-anchor="middle">4</text>
<rect x="842.0" y="665.0" width="42.0" height="13.0" rx="2" fill="#eeeeee"/>
<rect x="842.0" y="665.0" width="42.0" height="13.0" rx="2" fill="#7d5a1f" opacity="0.78"/>
<text x="863.0" y="689.0" class="tiny" text-anchor="middle">4</text>
<rect x="892.0" y="665.0" width="42.0" height="13.0" rx="2" fill="#eeeeee"/>
<rect x="892.0" y="665.0" width="36.8" height="13.0" rx="2" fill="#7d5a1f" opacity="0.78"/>
<text x="913.0" y="689.0" class="tiny" text-anchor="middle">3.5</text>
<line x1="945.0" y1="671.5" x2="981.0" y2="671.5" stroke="#b7b7b7" stroke-width="1"/>
<text x="963.0" y="676.0" class="tiny" text-anchor="middle">n/a</text>
<line x1="995.0" y1="671.5" x2="1031.0" y2="671.5" stroke="#b7b7b7" stroke-width="1"/>
<text x="1013.0" y="676.0" class="tiny" text-anchor="middle">n/a</text>
<line x1="1045.0" y1="671.5" x2="1081.0" y2="671.5" stroke="#b7b7b7" stroke-width="1"/>
<text x="1063.0" y="676.0" class="tiny" text-anchor="middle">n/a</text>
<rect x="1092.0" y="665.0" width="42.0" height="13.0" rx="2" fill="#eeeeee"/>
<rect x="1092.0" y="665.0" width="42.0" height="13.0" rx="2" fill="#7d5a1f" opacity="0.78"/>
<text x="1113.0" y="689.0" class="tiny" text-anchor="middle">4</text>
<line x1="378.0" y1="707.0" x2="698.0" y2="707.0" stroke="#e5e5e5" stroke-width="10" stroke-linecap="round"/>
<line x1="378.0" y1="707.0" x2="632.8" y2="707.0" stroke="#7d5a1f" stroke-width="10" stroke-linecap="round" opacity="0.82"/>
<circle cx="632.8" cy="707.0" r="7" fill="#ffffff" stroke="#7d5a1f" stroke-width="2"/>
<circle cx="632.8" cy="707.0" r="5" fill="url(#lowConfidenceHatch)" opacity="0.9"/>
<text x="58.0" y="710.0" class="label">Six-Day War Suez closure (low conf.)</text>
<text x="58.0" y="725.0" class="tiny">rank 5 | oil and general maritime logistics | conf: low</text>
<text x="707.0" y="711.0" class="label">79.6</text>
<line x1="745.0" y1="705.5" x2="781.0" y2="705.5" stroke="#b7b7b7" stroke-width="1"/>
<text x="763.0" y="710.0" class="tiny" text-anchor="middle">n/a</text>
<line x1="795.0" y1="705.5" x2="831.0" y2="705.5" stroke="#b7b7b7" stroke-width="1"/>
<text x="813.0" y="710.0" class="tiny" text-anchor="middle">n/a</text>
<rect x="842.0" y="699.0" width="42.0" height="13.0" rx="2" fill="#eeeeee"/>
<rect x="842.0" y="699.0" width="36.8" height="13.0" rx="2" fill="#7d5a1f" opacity="0.55"/>
<text x="863.0" y="723.0" class="tiny" text-anchor="middle">3.5</text>
<rect x="892.0" y="699.0" width="42.0" height="13.0" rx="2" fill="#eeeeee"/>
<rect x="892.0" y="699.0" width="26.2" height="13.0" rx="2" fill="#7d5a1f" opacity="0.55"/>
<text x="913.0" y="723.0" class="tiny" text-anchor="middle">2.5</text>
<line x1="945.0" y1="705.5" x2="981.0" y2="705.5" stroke="#b7b7b7" stroke-width="1"/>
<text x="963.0" y="710.0" class="tiny" text-anchor="middle">n/a</text>
<line x1="995.0" y1="705.5" x2="1031.0" y2="705.5" stroke="#b7b7b7" stroke-width="1"/>
<text x="1013.0" y="710.0" class="tiny" text-anchor="middle">n/a</text>
<line x1="1045.0" y1="705.5" x2="1081.0" y2="705.5" stroke="#b7b7b7" stroke-width="1"/>
<text x="1063.0" y="710.0" class="tiny" text-anchor="middle">n/a</text>
<rect x="1092.0" y="699.0" width="42.0" height="13.0" rx="2" fill="#eeeeee"/>
<rect x="1092.0" y="699.0" width="31.5" height="13.0" rx="2" fill="#7d5a1f" opacity="0.55"/>
<text x="1113.0" y="723.0" class="tiny" text-anchor="middle">3</text>
<line x1="378.0" y1="741.0" x2="698.0" y2="741.0" stroke="#e5e5e5" stroke-width="10" stroke-linecap="round"/>
<line x1="378.0" y1="741.0" x2="618.0" y2="741.0" stroke="#7d5a1f" stroke-width="10" stroke-linecap="round" opacity="0.82"/>
<circle cx="618.0" cy="741.0" r="7" fill="#ffffff" stroke="#7d5a1f" stroke-width="2"/>
<circle cx="618.0" cy="741.0" r="5" fill="url(#lowConfidenceHatch)" opacity="0.9"/>
<text x="58.0" y="744.0" class="label">Suez Crisis canal closure (low conf.)</text>
<text x="58.0" y="759.0" class="tiny">rank 7 | oil and petroleum logistics | conf: low</text>
<text x="707.0" y="745.0" class="label">75</text>
<line x1="745.0" y1="739.5" x2="781.0" y2="739.5" stroke="#b7b7b7" stroke-width="1"/>
<text x="763.0" y="744.0" class="tiny" text-anchor="middle">n/a</text>
<line x1="795.0" y1="739.5" x2="831.0" y2="739.5" stroke="#b7b7b7" stroke-width="1"/>
<text x="813.0" y="744.0" class="tiny" text-anchor="middle">n/a</text>
<rect x="842.0" y="733.0" width="42.0" height="13.0" rx="2" fill="#eeeeee"/>
<rect x="842.0" y="733.0" width="31.5" height="13.0" rx="2" fill="#7d5a1f" opacity="0.55"/>
<text x="863.0" y="757.0" class="tiny" text-anchor="middle">3</text>
<rect x="892.0" y="733.0" width="42.0" height="13.0" rx="2" fill="#eeeeee"/>
<rect x="892.0" y="733.0" width="31.5" height="13.0" rx="2" fill="#7d5a1f" opacity="0.55"/>
<text x="913.0" y="757.0" class="tiny" text-anchor="middle">3</text>
<line x1="945.0" y1="739.5" x2="981.0" y2="739.5" stroke="#b7b7b7" stroke-width="1"/>
<text x="963.0" y="744.0" class="tiny" text-anchor="middle">n/a</text>
<line x1="995.0" y1="739.5" x2="1031.0" y2="739.5" stroke="#b7b7b7" stroke-width="1"/>
<text x="1013.0" y="744.0" class="tiny" text-anchor="middle">n/a</text>
<line x1="1045.0" y1="739.5" x2="1081.0" y2="739.5" stroke="#b7b7b7" stroke-width="1"/>
<text x="1063.0" y="744.0" class="tiny" text-anchor="middle">n/a</text>
<rect x="1092.0" y="733.0" width="42.0" height="13.0" rx="2" fill="#eeeeee"/>
<rect x="1092.0" y="733.0" width="31.5" height="13.0" rx="2" fill="#7d5a1f" opacity="0.55"/>
<text x="1113.0" y="757.0" class="tiny" text-anchor="middle">3</text>
<line x1="378.0" y1="775.0" x2="698.0" y2="775.0" stroke="#e5e5e5" stroke-width="10" stroke-linecap="round"/>
<line x1="378.0" y1="775.0" x2="607.5" y2="775.0" stroke="#7d5a1f" stroke-width="10" stroke-linecap="round" opacity="0.82"/>
<circle cx="607.5" cy="775.0" r="7" fill="#ffffff" stroke="#7d5a1f" stroke-width="2"/>
<circle cx="607.5" cy="775.0" r="5" fill="url(#lowConfidenceHatch)" opacity="0.9"/>
<text x="58.0" y="778.0" class="label">COVID maritime logistics disruption (low conf.)</text>
<text x="58.0" y="793.0" class="tiny">rank 9 | container shipping, port congestion, general maritime trade | conf: low</text>
<text x="707.0" y="779.0" class="label">71.7</text>
<line x1="745.0" y1="773.5" x2="781.0" y2="773.5" stroke="#b7b7b7" stroke-width="1"/>
<text x="763.0" y="778.0" class="tiny" text-anchor="middle">n/a</text>
<line x1="795.0" y1="773.5" x2="831.0" y2="773.5" stroke="#b7b7b7" stroke-width="1"/>
<text x="813.0" y="778.0" class="tiny" text-anchor="middle">n/a</text>
<rect x="842.0" y="767.0" width="42.0" height="13.0" rx="2" fill="#eeeeee"/>
<rect x="842.0" y="767.0" width="26.2" height="13.0" rx="2" fill="#7d5a1f" opacity="0.55"/>
<text x="863.0" y="791.0" class="tiny" text-anchor="middle">2.5</text>
<rect x="892.0" y="767.0" width="42.0" height="13.0" rx="2" fill="#eeeeee"/>
<rect x="892.0" y="767.0" width="31.5" height="13.0" rx="2" fill="#7d5a1f" opacity="0.55"/>
<text x="913.0" y="791.0" class="tiny" text-anchor="middle">3</text>
<line x1="945.0" y1="773.5" x2="981.0" y2="773.5" stroke="#b7b7b7" stroke-width="1"/>
<text x="963.0" y="778.0" class="tiny" text-anchor="middle">n/a</text>
<line x1="995.0" y1="773.5" x2="1031.0" y2="773.5" stroke="#b7b7b7" stroke-width="1"/>
<text x="1013.0" y="778.0" class="tiny" text-anchor="middle">n/a</text>
<line x1="1045.0" y1="773.5" x2="1081.0" y2="773.5" stroke="#b7b7b7" stroke-width="1"/>
<text x="1063.0" y="778.0" class="tiny" text-anchor="middle">n/a</text>
<rect x="1092.0" y="767.0" width="42.0" height="13.0" rx="2" fill="#eeeeee"/>
<rect x="1092.0" y="767.0" width="31.5" height="13.0" rx="2" fill="#7d5a1f" opacity="0.55"/>
<text x="1113.0" y="791.0" class="tiny" text-anchor="middle">3</text>
<line x1="378.0" y1="809.0" x2="698.0" y2="809.0" stroke="#e5e5e5" stroke-width="10" stroke-linecap="round"/>
<line x1="378.0" y1="809.0" x2="594.6" y2="809.0" stroke="#7d5a1f" stroke-width="10" stroke-linecap="round" opacity="0.82"/>
<circle cx="594.6" cy="809.0" r="7" fill="#7d5a1f" stroke="#7d5a1f" stroke-width="2"/>
<text x="58.0" y="812.0" class="label">Ever Given Suez obstruction</text>
<text x="58.0" y="827.0" class="tiny">rank 11 | containerized trade, oil, LNG, LPG, agricultural commodities | conf: high</text>
<text x="707.0" y="813.0" class="label">67.7</text>
<rect x="742.0" y="801.0" width="42.0" height="13.0" rx="2" fill="#eeeeee"/>
<rect x="742.0" y="801.0" width="42.0" height="13.0" rx="2" fill="#7d5a1f" opacity="0.78"/>
<text x="763.0" y="825.0" class="tiny" text-anchor="middle">4</text>
<rect x="792.0" y="801.0" width="42.0" height="13.0" rx="2" fill="#eeeeee"/>
<rect x="792.0" y="801.0" width="21.0" height="13.0" rx="2" fill="#7d5a1f" opacity="0.78"/>
<text x="813.0" y="825.0" class="tiny" text-anchor="middle">2</text>
<rect x="842.0" y="801.0" width="42.0" height="13.0" rx="2" fill="#eeeeee"/>
<rect x="842.0" y="801.0" width="31.5" height="13.0" rx="2" fill="#7d5a1f" opacity="0.78"/>
<text x="863.0" y="825.0" class="tiny" text-anchor="middle">3</text>
<rect x="892.0" y="801.0" width="42.0" height="13.0" rx="2" fill="#eeeeee"/>
<rect x="892.0" y="801.0" width="26.2" height="13.0" rx="2" fill="#7d5a1f" opacity="0.78"/>
<text x="913.0" y="825.0" class="tiny" text-anchor="middle">2.5</text>
<line x1="945.0" y1="807.5" x2="981.0" y2="807.5" stroke="#b7b7b7" stroke-width="1"/>
<text x="963.0" y="812.0" class="tiny" text-anchor="middle">n/a</text>
<line x1="995.0" y1="807.5" x2="1031.0" y2="807.5" stroke="#b7b7b7" stroke-width="1"/>
<text x="1013.0" y="812.0" class="tiny" text-anchor="middle">n/a</text>
<line x1="1045.0" y1="807.5" x2="1081.0" y2="807.5" stroke="#b7b7b7" stroke-width="1"/>
<text x="1063.0" y="812.0" class="tiny" text-anchor="middle">n/a</text>
<rect x="1092.0" y="801.0" width="42.0" height="13.0" rx="2" fill="#eeeeee"/>
<rect x="1092.0" y="801.0" width="21.0" height="13.0" rx="2" fill="#7d5a1f" opacity="0.78"/>
<text x="1113.0" y="825.0" class="tiny" text-anchor="middle">2</text>
<text x="1190.0" y="138.0" class="section">Current Hormuz product/channel rows</text>
<text x="1190.0" y="155.0" class="small">Same rubric, sorted by product exposure score</text>
<line x1="1190.0" y1="172.0" x2="1190.0" y2="666.0" stroke="#eeeeee"/>
<text x="1190.0" y="167.0" class="axis" text-anchor="middle">0</text>
<line x1="1320.0" y1="172.0" x2="1320.0" y2="666.0" stroke="#eeeeee"/>
<text x="1320.0" y="167.0" class="axis" text-anchor="middle">50</text>
<line x1="1450.0" y1="172.0" x2="1450.0" y2="666.0" stroke="#eeeeee"/>
<text x="1450.0" y="167.0" class="axis" text-anchor="middle">100</text>
<text x="1190.0" y="188.0" class="label">LPG/NGL</text>
<text x="1190.0" y="203.0" class="tiny">rank 1 | conf: medium_high</text>
<rect x="1190.0" y="210.0" width="260.0" height="10" rx="2" fill="#e9e9e9"/>
<rect x="1190.0" y="210.0" width="242.8" height="10" rx="2" fill="#8b2f2f" opacity="0.78"/>
<circle cx="1432.8" cy="215.0" r="6" fill="#8b2f2f" stroke="#8b2f2f" stroke-width="1.8"/>
<text x="1462.0" y="219.0" class="label">93.4</text>
<text x="1190.0" y="242.0" class="label">LNG</text>
<text x="1190.0" y="257.0" class="tiny">rank 2 | conf: high</text>
<rect x="1190.0" y="264.0" width="260.0" height="10" rx="2" fill="#e9e9e9"/>
<rect x="1190.0" y="264.0" width="241.8" height="10" rx="2" fill="#8b2f2f" opacity="0.78"/>
<circle cx="1431.8" cy="269.0" r="6" fill="#8b2f2f" stroke="#8b2f2f" stroke-width="1.8"/>
<text x="1462.0" y="273.0" class="label">93.0</text>
<text x="1190.0" y="296.0" class="label">sulphur</text>
<text x="1190.0" y="311.0" class="tiny">rank 3 | conf: medium</text>
<rect x="1190.0" y="318.0" width="260.0" height="10" rx="2" fill="#e9e9e9"/>
<rect x="1190.0" y="318.0" width="241.8" height="10" rx="2" fill="#8b2f2f" opacity="0.78"/>
<circle cx="1431.8" cy="323.0" r="6" fill="#8b2f2f" stroke="#8b2f2f" stroke-width="1.8"/>
<text x="1462.0" y="327.0" class="label">93.0</text>
<text x="1190.0" y="350.0" class="label">urea/ammonia/fertilizer</text>
<text x="1190.0" y="365.0" class="tiny">rank 4 | conf: medium</text>
<rect x="1190.0" y="372.0" width="260.0" height="10" rx="2" fill="#e9e9e9"/>
<rect x="1190.0" y="372.0" width="227.5" height="10" rx="2" fill="#8b2f2f" opacity="0.78"/>
<circle cx="1417.5" cy="377.0" r="6" fill="#8b2f2f" stroke="#8b2f2f" stroke-width="1.8"/>
<text x="1462.0" y="381.0" class="label">87.5</text>
<text x="1190.0" y="404.0" class="label">shipping/insurance</text>
<text x="1190.0" y="419.0" class="tiny">rank 5 | conf: low</text>
<rect x="1190.0" y="426.0" width="260.0" height="10" rx="2" fill="#e9e9e9"/>
<rect x="1190.0" y="426.0" width="216.9" height="10" rx="2" fill="#8b2f2f" opacity="0.78"/>
<circle cx="1406.9" cy="431.0" r="6" fill="#ffffff" stroke="#8b2f2f" stroke-width="1.8"/>
<text x="1462.0" y="435.0" class="label">83.4</text>
<text x="1190.0" y="458.0" class="label">refined products</text>
<text x="1190.0" y="473.0" class="tiny">rank 6 | conf: medium</text>
<rect x="1190.0" y="480.0" width="260.0" height="10" rx="2" fill="#e9e9e9"/>
<rect x="1190.0" y="480.0" width="208.4" height="10" rx="2" fill="#8b2f2f" opacity="0.78"/>
<circle cx="1398.4" cy="485.0" r="6" fill="#8b2f2f" stroke="#8b2f2f" stroke-width="1.8"/>
<text x="1462.0" y="489.0" class="label">80.2</text>
<text x="1190.0" y="512.0" class="label">crude/condensate</text>
<text x="1190.0" y="527.0" class="tiny">rank 7 | conf: medium</text>
<rect x="1190.0" y="534.0" width="260.0" height="10" rx="2" fill="#e9e9e9"/>
<rect x="1190.0" y="534.0" width="207.9" height="10" rx="2" fill="#8b2f2f" opacity="0.78"/>
<circle cx="1397.9" cy="539.0" r="6" fill="#8b2f2f" stroke="#8b2f2f" stroke-width="1.8"/>
<text x="1462.0" y="543.0" class="label">80.0</text>
<text x="1190.0" y="566.0" class="label">oil/products aggregate</text>
<text x="1190.0" y="581.0" class="tiny">rank 8 | conf: medium_high</text>
<rect x="1190.0" y="588.0" width="260.0" height="10" rx="2" fill="#e9e9e9"/>
<rect x="1190.0" y="588.0" width="202.2" height="10" rx="2" fill="#8b2f2f" opacity="0.78"/>
<circle cx="1392.2" cy="593.0" r="6" fill="#8b2f2f" stroke="#8b2f2f" stroke-width="1.8"/>
<text x="1462.0" y="597.0" class="label">77.8</text>
<text x="1190.0" y="620.0" class="label">aluminium</text>
<text x="1190.0" y="635.0" class="tiny">rank 9 | conf: medium</text>
<rect x="1190.0" y="642.0" width="260.0" height="10" rx="2" fill="#e9e9e9"/>
<rect x="1190.0" y="642.0" width="191.6" height="10" rx="2" fill="#8b2f2f" opacity="0.78"/>
<circle cx="1381.6" cy="647.0" r="6" fill="#8b2f2f" stroke="#8b2f2f" stroke-width="1.8"/>
<text x="1462.0" y="651.0" class="label">73.7</text>
<text x="58.0" y="978.0" class="note">Caveat: Current Hormuz rows are exposure/scenario rankings, not observed realized losses. Do not sum product rows; crude, refined products, LPG/NGLs, petrochemicals, fertilizer inputs,</text>
<text x="58.0" y="992.0" class="note">sulphur, aluminium, and freight channels overlap.</text>
<text x="58.0" y="1010.0" class="note">Source: data/derived/hormuz_4j7_4_case_ranking_scores.csv and data/derived/hormuz_4j7_4_hormuz_product_ranking_scores.csv; underlying IEA, EIA, World Bank/IMF, UN/industry and project-</text>
<text x="58.0" y="1024.0" class="note">derived tables listed in the score files; calculations by author. Accessed 2026-07-06.</text>
<text x="58.0" y="1042.0" class="note">Low-conf. labels and hollow markers indicate low-confidence/proxy rows. Dimension cells show 0-4 rubric scores; n/a means the score table did not carry a meaningful value for that dimension.</text>
<metadata>Figure ID: fig-4j7-historical-shock-comparison; author/script: scripts/build_4j7_historical_comparison_chart.py; generated from 4J7.4 ranking score tables; unit: normalized severity score 0-100 plus dimension rubric scores 0-4.</metadata>
</svg>
